<svg width="165" height="404" viewBox="0 0 165 404" fill="none" xmlns="http://www.w3.org/2000/svg">
<path d="M124.157 117.381L112.863 11.911L89.7204 3.05176e-05L66.0837 11.6024L53.6172 116.949C36.0903 121.146 21.9577 134.291 16.3417 151.263C16.3417 151.325 16.3417 151.386 16.3417 151.386C14.6754 156.385 13.7495 161.754 13.6878 167.309L12.577 372.387C12.5153 389.296 26.1542 403.059 43.0023 403.121L126.749 403.553C144.893 403.676 160.013 390.037 162.235 372.448L162.359 353.317C162.359 352.206 162.42 351.157 162.605 350.108L163.593 168.049C163.655 143.795 146.868 123.121 124.157 117.381Z" fill="#E46A3F"/>
<path d="M164.272 190.822H13.2565V315.239H164.272V190.822Z" fill="#FFD7CA"/>
<path d="M13.5771 280.925L26.2903 299.255C27.7715 301.353 28.5738 303.822 28.5738 306.414V306.846C28.5738 309.252 27.9567 311.598 26.7224 313.696L26.2903 314.375C24.4389 317.461 21.2914 319.621 17.7737 320.299L16.3544 320.546C14.8732 320.855 13.3302 320.855 11.7873 320.608L11.5406 320.546C8.02288 319.929 4.87534 317.893 2.96219 314.869L2.0365 313.449C0.740494 311.412 0 309.067 0 306.599C0 304.13 0.617132 301.785 1.91314 299.687L13.5771 280.925Z" fill="#77AAA3"/>
<path d="M60.5293 13.8858L82.7464 27.7716L114.53 11.7258L89.7202 3.05176e-05L60.5293 13.8858Z" fill="#723B16"/>
<path d="M82.7462 27.7716V76.6497L58.4305 48.8163L60.529 13.8858L82.7462 27.7716Z" fill="#723B16"/>
<path d="M86.399 300.798C113.681 300.798 135.798 278.681 135.798 251.399C135.798 224.117 113.681 202 86.399 202C59.1167 202 37 224.117 37 251.399C37 278.681 59.1167 300.798 86.399 300.798Z" fill="#A22A2F"/>
<path d="M88.1946 270.549L81.8837 280.07C81.1765 281.158 80.7957 282.464 80.7957 283.769V283.987C80.7957 285.238 81.1765 286.435 81.8293 287.469L82.0469 287.795C83.0262 289.373 84.6583 290.407 86.5081 290.733L87.2153 290.842C87.977 290.951 88.7931 290.951 89.5547 290.842H89.6635C91.4589 290.515 93.0366 289.427 94.0159 287.85L94.4511 287.142C95.1039 286.109 95.4304 284.857 95.4304 283.606C95.4304 282.355 95.0495 281.158 94.3967 280.07L88.1946 270.549Z" fill="#77AAA3"/>
<path d="M112.894 251.562L106.583 261.083C105.876 262.171 105.495 263.477 105.495 264.782V265C105.495 266.251 105.876 267.448 106.529 268.482L106.746 268.808C107.726 270.386 109.358 271.42 111.207 271.746L111.915 271.855C112.676 271.964 113.492 271.964 114.254 271.855H114.363C116.158 271.528 117.736 270.44 118.715 268.863L119.15 268.155C119.803 267.122 120.13 265.87 120.13 264.619C120.13 263.368 119.749 262.171 119.096 261.083L112.894 251.562Z" fill="#77AAA3"/>
<path d="M109.031 222.021L102.72 231.541C102.013 232.629 101.632 233.935 101.632 235.241V235.458C101.632 236.71 102.013 237.907 102.666 238.94L102.883 239.267C103.863 240.844 105.495 241.878 107.344 242.205L108.052 242.313C108.813 242.422 109.629 242.422 110.391 242.313H110.5C112.295 241.987 113.873 240.899 114.852 239.321L115.287 238.614C115.94 237.58 116.267 236.329 116.267 235.078C116.267 233.826 115.886 232.629 115.233 231.541L109.031 222.021Z" fill="#77AAA3"/>
<path d="M85.0393 211.793L78.7285 221.313C78.0212 222.401 77.6404 223.707 77.6404 225.013V225.23C77.6404 226.482 78.0212 227.679 78.6741 228.712L78.8917 229.039C79.8709 230.617 81.5031 231.65 83.3528 231.977L84.0601 232.085C84.8217 232.194 85.6378 232.194 86.3994 232.085H86.5083C88.3036 231.759 89.8813 230.671 90.8606 229.093L91.2958 228.386C91.9487 227.352 92.2751 226.101 92.2751 224.85C92.2751 223.598 91.8943 222.401 91.2414 221.313L85.0393 211.793Z" fill="#77AAA3"/>
<path d="M86.073 241.334L79.7622 250.909C79.0549 251.997 78.6741 253.303 78.6741 254.609V254.826C78.6741 256.078 79.0549 257.275 79.7078 258.308L79.9254 258.635C80.9046 260.212 82.5368 261.246 84.3865 261.572L85.0938 261.681C85.8554 261.79 86.6715 261.79 87.4331 261.681H87.5419C89.3373 261.355 90.915 260.267 91.8943 258.689L92.3295 257.982C92.9823 256.948 93.3088 255.697 93.3088 254.445C93.3088 253.194 92.9279 251.997 92.2751 250.909L86.073 241.334Z" fill="#77AAA3"/>
<path d="M60.0674 223.544L53.7565 233.065C53.0493 234.153 52.6685 235.458 52.6685 236.764V236.982C52.6685 238.233 53.0493 239.43 53.7021 240.464L53.8653 240.79C54.8446 242.368 56.4767 243.401 58.3265 243.728L59.0337 243.891C59.7954 244 60.6115 244 61.3731 243.891H61.4819C63.2773 243.565 64.855 242.476 65.8343 240.899L66.3239 240.083C66.9767 239.049 67.3032 237.798 67.3032 236.546C67.3032 235.295 66.9223 234.098 66.2695 233.01L60.0674 223.544Z" fill="#77AAA3"/>
<path d="M63.1682 257.438L56.8574 266.958C56.1501 268.047 55.7693 269.352 55.7693 270.658V270.876C55.7693 272.127 56.1501 273.324 56.803 274.357L57.0206 274.684C57.9999 276.262 59.632 277.295 61.4817 277.622L62.189 277.731C62.9506 277.839 63.7667 277.839 64.5284 277.731H64.6372C66.4325 277.404 68.0102 276.316 68.9895 274.738L69.4247 274.031C70.0776 272.997 70.404 271.746 70.404 270.495C70.404 269.243 70.0232 268.047 69.3703 266.958L63.1682 257.438Z" fill="#77AAA3"/>
</svg>
