<svg width="13230" height="375" viewBox="0 0 13230 375" fill="none" xmlns="http://www.w3.org/2000/svg">
<g clip-path="url(#clip0)">
<circle cx="466.972" cy="126.972" r="86.2469" transform="rotate(-45 466.972 126.972)" fill="#0B3C49"/>
<path fill-rule="evenodd" clip-rule="evenodd" d="M542.699 85.6464C538.844 78.5903 533.93 71.959 527.957 65.9858C521.698 59.7264 514.716 54.6303 507.28 50.6974L390.697 167.28C394.63 174.716 399.726 181.698 405.986 187.957C411.959 193.931 418.59 198.844 425.646 202.699L542.699 85.6464Z" fill="#CC2E2E"/>
<g opacity="0.15" filter="url(#filter0_f)">
<ellipse rx="52.8827" ry="38.7112" transform="matrix(0.961278 0.275581 -0.758168 0.65206 471.184 71.546)" fill="#47C8EA"/>
</g>
<circle cx="257.815" cy="202.815" r="86.2469" transform="rotate(30 257.815 202.815)" fill="#A22A2F"/>
<path fill-rule="evenodd" clip-rule="evenodd" d="M317.332 265.267C323.15 259.717 328.284 253.254 332.507 245.939C336.934 238.273 340.049 230.21 341.923 222.009L199.14 139.573C192.975 145.296 187.549 152.026 183.123 159.692C178.9 167.008 175.87 174.685 173.973 182.498L317.332 265.267Z" fill="#CC2E2E"/>
<g opacity="0.15" filter="url(#filter1_f)">
<ellipse rx="57.9485" ry="56.4173" transform="matrix(0.877243 0.480046 -0.520223 0.85403 251.185 187.433)" fill="#FF4646"/>
</g>
</g>
<circle cx="684.972" cy="202.382" r="86.2469" transform="rotate(45 684.972 202.382)" fill="#662527"/>
<path fill-rule="evenodd" clip-rule="evenodd" d="M726.297 278.11C733.353 274.255 739.984 269.341 745.957 263.368C752.217 257.109 757.313 250.126 761.246 242.69L644.663 126.108C637.227 130.041 630.245 135.137 623.986 141.396C618.012 147.369 613.099 154.001 609.244 161.057L726.297 278.11Z" fill="#CC2E2E"/>
<g opacity="0.15" filter="url(#filter2_f)">
<ellipse rx="55.376" ry="48.045" transform="matrix(0.917996 0.396589 -0.610877 0.791726 683.128 261)" fill="#FF6267"/>
</g>
<g clip-path="url(#clip1)">
<circle cx="1401.97" cy="218.972" r="86.2469" transform="rotate(-75 1401.97 218.972)" fill="#0B3C49"/>
<path fill-rule="evenodd" clip-rule="evenodd" d="M1446.89 145.319C1440.02 141.136 1432.45 137.85 1424.29 135.663C1415.74 133.372 1407.15 132.45 1398.74 132.762L1356.07 292.017C1363.19 296.49 1371.1 299.989 1379.65 302.28C1387.81 304.466 1396.01 305.406 1404.05 305.216L1446.89 145.319Z" fill="#CC2E2E"/>
<g opacity="0.15" filter="url(#filter3_f)">
<ellipse rx="52.8827" ry="38.7112" transform="matrix(0.970282 -0.241978 -0.330563 0.943784 1377.91 168.865)" fill="#47C8EA"/>
</g>
<circle cx="1230.82" cy="122.816" r="86.2469" fill="#A22A2F"/>
<path fill-rule="evenodd" clip-rule="evenodd" d="M1313.58 147.142C1315.85 139.427 1317.06 131.263 1317.06 122.815C1317.06 113.963 1315.73 105.423 1313.25 97.3837H1148.38C1145.9 105.423 1144.57 113.963 1144.57 122.815C1144.57 131.263 1145.78 139.427 1148.05 147.142H1313.58Z" fill="#CC2E2E"/>
<g opacity="0.15" filter="url(#filter4_f)">
<ellipse rx="57.9485" ry="56.4173" transform="matrix(0.999738 -0.0228899 -0.0235112 0.999724 1217.38 112.81)" fill="#FF4646"/>
</g>
<circle cx="1601.97" cy="126.972" r="86.2469" transform="rotate(15 1601.97 126.972)" fill="#662527"/>
<path fill-rule="evenodd" clip-rule="evenodd" d="M1675.62 171.891C1679.81 165.025 1683.09 157.453 1685.28 149.294C1687.57 140.744 1688.49 132.149 1688.18 123.742L1528.93 81.0704C1524.45 88.1945 1520.95 96.0989 1518.66 104.649C1516.48 112.809 1515.54 121.009 1515.73 129.047L1675.62 171.891Z" fill="#CC2E2E"/>
<g opacity="0.15" filter="url(#filter5_f)">
<ellipse rx="55.376" ry="48.045" transform="matrix(0.993303 -0.115542 -0.133172 0.991093 1629.68 178.658)" fill="#FF6267"/>
</g>
</g>
<g clip-path="url(#clip2)">
<circle cx="2201.97" cy="238.972" r="86.2469" transform="rotate(-105 2201.97 238.972)" fill="#0B3C49"/>
<path fill-rule="evenodd" clip-rule="evenodd" d="M2204.05 152.727C2196.01 152.537 2187.81 153.477 2179.65 155.663C2171.1 157.955 2163.19 161.453 2156.07 165.927L2198.74 325.181C2207.15 325.493 2215.74 324.571 2224.29 322.28C2232.45 320.093 2240.02 316.807 2246.89 312.624L2204.05 152.727Z" fill="#CC2E2E"/>
<g opacity="0.15" filter="url(#filter6_f)">
<ellipse rx="52.8827" ry="38.7112" transform="matrix(0.719299 -0.6947 0.185617 0.982622 2156.08 207.61)" fill="#47C8EA"/>
</g>
<circle cx="2288.82" cy="56.8155" r="86.2469" transform="rotate(-30 2288.82 56.8155)" fill="#A22A2F"/>
<path fill-rule="evenodd" clip-rule="evenodd" d="M2372.66 36.4982C2370.76 28.6849 2367.73 21.0077 2363.51 13.692C2359.08 6.02595 2353.66 -0.703597 2347.49 -6.4271L2204.71 76.009C2206.58 84.2097 2209.7 92.2729 2214.12 99.939C2218.35 107.255 2223.48 113.717 2229.3 119.267L2372.66 36.4982Z" fill="#CC2E2E"/>
<g opacity="0.15" filter="url(#filter7_f)">
<ellipse rx="57.9485" ry="56.4173" transform="matrix(0.854354 -0.519692 0.4795 0.877542 2272.18 54.867)" fill="#FF4646"/>
</g>
<circle cx="2403.97" cy="113.972" r="86.2469" transform="rotate(-15 2403.97 113.972)" fill="#662527"/>
<path fill-rule="evenodd" clip-rule="evenodd" d="M2490.22 116.047C2490.41 108.009 2489.47 99.8088 2487.28 91.6492C2484.99 83.0988 2481.49 75.1944 2477.02 68.0704L2317.76 110.742C2317.45 119.149 2318.37 127.744 2320.66 136.294C2322.85 144.453 2326.14 152.025 2330.32 158.891L2490.22 116.047Z" fill="#CC2E2E"/>
<g opacity="0.15" filter="url(#filter8_f)">
<ellipse rx="55.376" ry="48.045" transform="matrix(0.802454 -0.596713 0.380216 0.924897 2453.81 144.877)" fill="#FF6267"/>
</g>
</g>
<g clip-path="url(#clip3)">
<circle cx="3368.97" cy="281.972" r="86.2469" transform="rotate(-135 3368.97 281.972)" fill="#0B3C49"/>
<path fill-rule="evenodd" clip-rule="evenodd" d="M3327.65 206.244C3320.59 210.099 3313.96 215.013 3307.99 220.986C3301.73 227.245 3296.63 234.227 3292.7 241.664L3409.28 358.246C3416.72 354.313 3423.7 349.217 3429.96 342.957C3435.93 336.984 3440.84 330.353 3444.7 323.297L3327.65 206.244Z" fill="#CC2E2E"/>
<g opacity="0.15" filter="url(#filter9_f)">
<ellipse rx="52.8827" ry="38.7112" transform="matrix(0.275581 -0.961278 0.65206 0.758168 3313.55 277.759)" fill="#47C8EA"/>
</g>
<circle cx="3455.82" cy="163.815" r="86.2469" transform="rotate(-60 3455.82 163.815)" fill="#A22A2F"/>
<path fill-rule="evenodd" clip-rule="evenodd" d="M3518.27 104.299C3512.72 98.4807 3506.25 93.3471 3498.94 89.1234C3491.27 84.6974 3483.21 81.5821 3475.01 79.7078L3392.57 222.491C3398.3 228.656 3405.03 234.081 3412.69 238.507C3420.01 242.731 3427.68 245.761 3435.5 247.658L3518.27 104.299Z" fill="#CC2E2E"/>
<g opacity="0.15" filter="url(#filter10_f)">
<ellipse rx="57.9485" ry="56.4173" transform="matrix(0.480046 -0.877243 0.85403 0.520223 3440.43 170.447)" fill="#FF4646"/>
</g>
<circle cx="3267.97" cy="37.9716" r="86.2469" transform="rotate(-45 3267.97 37.9716)" fill="#662527"/>
<path fill-rule="evenodd" clip-rule="evenodd" d="M3343.7 -3.35347C3339.84 -10.4096 3334.93 -17.0409 3328.96 -23.0141C3322.7 -29.2735 3315.72 -34.3696 3308.28 -38.3025L3191.7 78.2799C3195.63 85.716 3200.73 92.6981 3206.99 98.9574C3212.96 104.931 3219.59 109.845 3226.65 113.699L3343.7 -3.35347Z" fill="#CC2E2E"/>
<g opacity="0.15" filter="url(#filter11_f)">
<ellipse rx="55.376" ry="48.045" transform="matrix(0.396589 -0.917996 0.791726 0.610877 3326.59 39.8154)" fill="#FF6267"/>
</g>
</g>
<g clip-path="url(#clip4)">
<circle cx="4304.97" cy="258.972" r="86.2469" transform="rotate(-165 4304.97 258.972)" fill="#0B3C49"/>
<path fill-rule="evenodd" clip-rule="evenodd" d="M4231.32 214.052C4227.14 220.919 4223.85 228.49 4221.66 236.649C4219.37 245.2 4218.45 253.794 4218.76 262.201L4378.02 304.873C4382.49 297.749 4385.99 289.844 4388.28 281.294C4390.47 273.135 4391.41 264.935 4391.22 256.897L4231.32 214.052Z" fill="#CC2E2E"/>
<g opacity="0.15" filter="url(#filter12_f)">
<ellipse rx="52.8827" ry="38.7112" transform="matrix(-0.241978 -0.970282 0.943784 0.330563 4254.87 283.036)" fill="#47C8EA"/>
</g>
<circle cx="4457.82" cy="274.815" r="86.2469" transform="rotate(-90 4457.82 274.815)" fill="#A22A2F"/>
<path fill-rule="evenodd" clip-rule="evenodd" d="M4482.14 192.047C4474.43 189.783 4466.26 188.569 4457.82 188.569C4448.96 188.569 4440.42 189.902 4432.38 192.379V357.252C4440.42 359.729 4448.96 361.062 4457.82 361.062C4466.26 361.062 4474.43 359.848 4482.14 357.584V192.047Z" fill="#CC2E2E"/>
<g opacity="0.15" filter="url(#filter13_f)">
<ellipse rx="57.9485" ry="56.4173" transform="matrix(-0.0228899 -0.999738 0.999724 0.0235112 4447.81 288.249)" fill="#FF4646"/>
</g>
<circle cx="4106.97" cy="87.9716" r="86.2469" transform="rotate(-75 4106.97 87.9716)" fill="#662527"/>
<path fill-rule="evenodd" clip-rule="evenodd" d="M4151.89 14.3195C4145.02 10.136 4137.45 6.85005 4129.29 4.66371C4120.74 2.37263 4112.15 1.45031 4103.74 1.76242L4061.07 161.017C4068.19 165.49 4076.1 168.989 4084.65 171.28C4092.81 173.466 4101.01 174.406 4109.05 174.216L4151.89 14.3195Z" fill="#CC2E2E"/>
<g opacity="0.15" filter="url(#filter14_f)">
<ellipse rx="55.376" ry="48.045" transform="matrix(-0.115542 -0.993303 0.991093 0.133172 4158.66 60.2596)" fill="#FF6267"/>
</g>
</g>
<g clip-path="url(#clip5)">
<circle cx="5368.97" cy="121.972" r="86.2469" transform="rotate(165 5368.97 121.972)" fill="#0B3C49"/>
<path fill-rule="evenodd" clip-rule="evenodd" d="M5282.73 119.897C5282.54 127.935 5283.48 136.134 5285.66 144.294C5287.95 152.844 5291.45 160.749 5295.93 167.873L5455.18 125.201C5455.49 116.794 5454.57 108.2 5452.28 99.6493C5450.09 91.4897 5446.81 83.9185 5442.62 77.0523L5282.73 119.897Z" fill="#CC2E2E"/>
<g opacity="0.15" filter="url(#filter15_f)">
<ellipse rx="52.8827" ry="38.7112" transform="matrix(-0.6947 -0.719299 0.982622 -0.185617 5337.61 167.865)" fill="#47C8EA"/>
</g>
<circle cx="4988.97" cy="188.972" r="86.2469" transform="rotate(-105 4988.97 188.972)" fill="#662527"/>
<path fill-rule="evenodd" clip-rule="evenodd" d="M4991.05 102.727C4983.01 102.538 4974.81 103.477 4966.65 105.664C4958.1 107.955 4950.19 111.453 4943.07 115.927L4985.74 275.181C4994.15 275.493 5002.74 274.571 5011.29 272.28C5019.45 270.094 5027.02 266.808 5033.89 262.624L4991.05 102.727Z" fill="#CC2E2E"/>
<g opacity="0.15" filter="url(#filter16_f)">
<ellipse rx="55.376" ry="48.045" transform="matrix(-0.596713 -0.802454 0.924897 -0.380216 5019.88 139.129)" fill="#FF6267"/>
</g>
<circle cx="5197.82" cy="331.815" r="86.2469" transform="rotate(-120 5197.82 331.815)" fill="#A22A2F"/>
<path fill-rule="evenodd" clip-rule="evenodd" d="M5177.5 247.973C5169.69 249.87 5162.01 252.9 5154.69 257.123C5147.03 261.549 5140.3 266.975 5134.57 273.14L5217.01 415.923C5225.21 414.049 5233.27 410.934 5240.94 406.508C5248.25 402.284 5254.72 397.15 5260.27 391.332L5177.5 247.973Z" fill="#CC2E2E"/>
<g opacity="0.15" filter="url(#filter17_f)">
<ellipse rx="57.9485" ry="56.4173" transform="matrix(-0.519692 -0.854354 0.877542 -0.4795 5195.87 348.452)" fill="#FF4646"/>
</g>
</g>
<g clip-path="url(#clip6)">
<circle cx="6332.97" cy="278.972" r="86.2469" transform="rotate(135 6332.97 278.972)" fill="#0B3C49"/>
<path fill-rule="evenodd" clip-rule="evenodd" d="M6257.24 320.297C6261.1 327.353 6266.01 333.984 6271.99 339.957C6278.25 346.217 6285.23 351.313 6292.66 355.246L6409.25 238.663C6405.31 231.227 6400.22 224.245 6393.96 217.986C6387.98 212.013 6381.35 207.099 6374.3 203.244L6257.24 320.297Z" fill="#CC2E2E"/>
<g opacity="0.15" filter="url(#filter18_f)">
<ellipse rx="52.8827" ry="38.7112" transform="matrix(-0.961278 -0.275581 0.758168 -0.65206 6328.76 334.397)" fill="#47C8EA"/>
</g>
<circle cx="5990.97" cy="281.972" r="86.2469" transform="rotate(-135 5990.97 281.972)" fill="#662527"/>
<path fill-rule="evenodd" clip-rule="evenodd" d="M5949.65 206.244C5942.59 210.099 5935.96 215.013 5929.99 220.986C5923.73 227.245 5918.63 234.227 5914.7 241.663L6031.28 358.246C6038.72 354.313 6045.7 349.217 6051.96 342.957C6057.93 336.984 6062.84 330.353 6066.7 323.297L5949.65 206.244Z" fill="#CC2E2E"/>
<g opacity="0.15" filter="url(#filter19_f)">
<ellipse rx="55.376" ry="48.045" transform="matrix(-0.917996 -0.396589 0.610877 -0.791726 5992.82 223.354)" fill="#FF6267"/>
</g>
<circle cx="6024.82" cy="184.815" r="86.2469" transform="rotate(-150 6024.82 184.815)" fill="#A22A2F"/>
<path fill-rule="evenodd" clip-rule="evenodd" d="M5965.3 122.364C5959.48 127.914 5954.35 134.377 5950.12 141.692C5945.7 149.358 5942.58 157.421 5940.71 165.622L6083.49 248.058C6089.66 242.335 6095.08 235.605 6099.51 227.939C6103.73 220.623 6106.76 212.946 6108.66 205.133L5965.3 122.364Z" fill="#CC2E2E"/>
<g opacity="0.15" filter="url(#filter20_f)">
<ellipse rx="57.9485" ry="56.4173" transform="matrix(-0.877243 -0.480046 0.520223 -0.85403 6031.45 200.198)" fill="#FF4646"/>
</g>
</g>
<g clip-path="url(#clip7)">
<circle cx="7197.97" cy="317.971" r="86.2469" transform="rotate(105 7197.97 317.971)" fill="#0B3C49"/>
<path fill-rule="evenodd" clip-rule="evenodd" d="M7153.05 391.624C7159.92 395.807 7167.49 399.093 7175.65 401.28C7184.2 403.571 7192.79 404.493 7201.2 404.181L7243.87 244.927C7236.75 240.453 7228.84 236.954 7220.29 234.663C7212.13 232.477 7203.93 231.537 7195.9 231.727L7153.05 391.624Z" fill="#CC2E2E"/>
<g opacity="0.15" filter="url(#filter21_f)">
<ellipse rx="52.8827" ry="38.7112" transform="matrix(-0.970282 0.241978 0.330563 -0.943784 7222.04 368.078)" fill="#47C8EA"/>
</g>
<circle cx="7077.97" cy="320.972" r="86.2469" transform="rotate(-165 7077.97 320.972)" fill="#662527"/>
<path fill-rule="evenodd" clip-rule="evenodd" d="M7004.32 276.052C7000.14 282.918 6996.85 290.49 6994.66 298.649C6992.37 307.2 6991.45 315.794 6991.76 324.201L7151.02 366.873C7155.49 359.749 7158.99 351.844 7161.28 343.294C7163.47 335.134 7164.41 326.934 7164.22 318.896L7004.32 276.052Z" fill="#CC2E2E"/>
<g opacity="0.15" filter="url(#filter22_f)">
<ellipse rx="55.376" ry="48.045" transform="matrix(-0.993303 0.115542 0.133172 -0.991093 7050.26 269.285)" fill="#FF6267"/>
</g>
<circle cx="7112.82" cy="84.8155" r="86.2469" transform="rotate(-180 7112.82 84.8155)" fill="#A22A2F"/>
<path fill-rule="evenodd" clip-rule="evenodd" d="M7030.05 60.4895C7027.78 68.2045 7026.57 76.3682 7026.57 84.8156C7026.57 93.6676 7027.9 102.208 7030.38 110.247H7195.25C7197.73 102.208 7199.06 93.6676 7199.06 84.8156C7199.06 76.3682 7197.85 68.2045 7195.58 60.4895H7030.05Z" fill="#CC2E2E"/>
<g opacity="0.15" filter="url(#filter23_f)">
<ellipse rx="57.9485" ry="56.4173" transform="matrix(-0.999738 0.0228899 0.0235112 -0.999724 7126.25 94.8214)" fill="#FF4646"/>
</g>
</g>
<g clip-path="url(#clip8)">
<circle cx="8007.82" cy="159.815" r="86.2469" transform="rotate(150 8007.82 159.815)" fill="#A22A2F"/>
<path fill-rule="evenodd" clip-rule="evenodd" d="M7923.97 180.133C7925.87 187.946 7928.9 195.623 7933.12 202.939C7937.55 210.605 7942.97 217.335 7949.14 223.058L8091.92 140.622C8090.05 132.421 8086.93 124.358 8082.51 116.692C8078.28 109.376 8073.15 102.914 8067.33 97.3641L7923.97 180.133Z" fill="#CC2E2E"/>
<g opacity="0.15" filter="url(#filter24_f)">
<ellipse rx="57.9485" ry="56.4173" transform="matrix(-0.854354 0.519692 -0.4795 -0.877542 8024.45 161.764)" fill="#FF4646"/>
</g>
</g>
<circle cx="8977.82" cy="159.816" r="86.2469" transform="rotate(120 8977.82 159.816)" fill="#A22A2F"/>
<path fill-rule="evenodd" clip-rule="evenodd" d="M8915.36 219.332C8920.91 225.15 8927.38 230.284 8934.69 234.508C8942.36 238.934 8950.42 242.049 8958.62 243.923L9041.06 101.14C9035.33 94.9747 9028.61 89.5495 9020.94 85.1235C9013.62 80.8998 9005.95 77.8697 8998.13 75.9727L8915.36 219.332Z" fill="#CC2E2E"/>
<g opacity="0.15" filter="url(#filter25_f)">
<ellipse rx="57.9485" ry="56.4173" transform="matrix(-0.480046 0.877243 -0.85403 -0.520223 8993.2 153.185)" fill="#FF4646"/>
</g>
<g clip-path="url(#clip9)">
<circle cx="9922.82" cy="117.815" r="86.2469" transform="rotate(90 9922.82 117.815)" fill="#A22A2F"/>
<path fill-rule="evenodd" clip-rule="evenodd" d="M9898.49 200.584C9906.21 202.848 9914.37 204.062 9922.82 204.062C9931.67 204.062 9940.21 202.729 9948.25 200.252V35.3793C9940.21 32.9021 9931.67 31.5685 9922.82 31.5685C9914.37 31.5685 9906.21 32.7829 9898.49 35.0467V200.584Z" fill="#CC2E2E"/>
<g opacity="0.15" filter="url(#filter26_f)">
<ellipse rx="57.9485" ry="56.4173" transform="matrix(0.0228899 0.999738 -0.999724 -0.0235112 9932.82 104.382)" fill="#FF4646"/>
</g>
</g>
<g clip-path="url(#clip10)">
<circle cx="10867.8" cy="41.8155" r="86.2469" transform="rotate(60 10867.8 41.8155)" fill="#A22A2F"/>
<path fill-rule="evenodd" clip-rule="evenodd" d="M10888.1 125.658C10895.9 123.761 10903.6 120.731 10910.9 116.507C10918.6 112.081 10925.3 106.656 10931.1 100.491L10848.6 -42.2923C10840.4 -40.418 10832.4 -37.3027 10824.7 -32.8767C10817.4 -28.653 10810.9 -23.5194 10805.4 -17.7014L10888.1 125.658Z" fill="#CC2E2E"/>
<g opacity="0.15" filter="url(#filter27_f)">
<ellipse rx="57.9485" ry="56.4173" transform="matrix(0.519692 0.854354 -0.877542 0.4795 10869.8 25.1785)" fill="#FF4646"/>
</g>
</g>
<g clip-path="url(#clip11)">
<circle cx="11812.8" cy="-28.1845" r="86.2469" transform="rotate(30 11812.8 -28.1845)" fill="#A22A2F"/>
<path fill-rule="evenodd" clip-rule="evenodd" d="M11872.3 34.2668C11878.1 28.7174 11883.3 22.2546 11887.5 14.9389C11891.9 7.27285 11895 -0.790289 11896.9 -8.99099L11754.1 -91.4271C11748 -85.7036 11742.5 -78.9741 11738.1 -71.308C11733.9 -63.9924 11730.9 -56.3151 11729 -48.5018L11872.3 34.2668Z" fill="#CC2E2E"/>
<g opacity="0.15" filter="url(#filter28_f)">
<ellipse rx="57.9485" ry="56.4173" transform="matrix(0.877243 0.480046 -0.520223 0.85403 11806.2 -43.5667)" fill="#FF4646"/>
</g>
</g>
<g clip-path="url(#clip12)">
<circle cx="12752" cy="-33.0284" r="86.2469" transform="rotate(-75 12752 -33.0284)" fill="#0B3C49"/>
<path fill-rule="evenodd" clip-rule="evenodd" d="M12796.9 -106.681C12790 -110.864 12782.5 -114.15 12774.3 -116.337C12765.7 -118.628 12757.1 -119.55 12748.7 -119.238L12706.1 40.0166C12713.2 44.4901 12721.1 47.9887 12729.6 50.2797C12737.8 52.4661 12746 53.4059 12754 53.2161L12796.9 -106.681Z" fill="#CC2E2E"/>
<g opacity="0.15" filter="url(#filter29_f)">
</g>
<circle cx="12542.8" cy="42.8155" r="86.2469" fill="#A22A2F"/>
<path fill-rule="evenodd" clip-rule="evenodd" d="M12625.6 67.1416C12627.8 59.4266 12629.1 51.2629 12629.1 42.8155C12629.1 33.9635 12627.7 25.4229 12625.3 17.3838H12460.4C12457.9 25.4229 12456.6 33.9635 12456.6 42.8155C12456.6 51.2629 12457.8 59.4266 12460 67.1416H12625.6Z" fill="#CC2E2E"/>
<g opacity="0.15" filter="url(#filter30_f)">
<ellipse rx="57.9485" ry="56.4173" transform="matrix(0.999738 -0.0228899 -0.0235112 0.999724 12529.4 32.8096)" fill="#FF4646"/>
</g>
<circle cx="12970" cy="42.3822" r="86.2469" transform="rotate(15 12970 42.3822)" fill="#662527"/>
<path fill-rule="evenodd" clip-rule="evenodd" d="M13043.6 87.3015C13047.8 80.4353 13051.1 72.864 13053.3 64.7045C13055.6 56.1541 13056.5 47.5594 13056.2 39.153L12896.9 -3.51907C12892.5 3.60499 12889 11.5094 12886.7 20.0598C12884.5 28.2193 12883.5 36.4192 12883.7 44.4573L13043.6 87.3015Z" fill="#CC2E2E"/>
<g opacity="0.15" filter="url(#filter31_f)">
<ellipse rx="55.376" ry="48.045" transform="matrix(0.993303 -0.115542 -0.133172 0.991093 12997.7 94.0687)" fill="#FF6267"/>
</g>
</g>
<defs>
<filter id="filter0_f" x="342.476" y="-27.6058" width="257.418" height="198.304" filterUnits="userSpaceOnUse" color-interpolation-filters="sRGB">
<feFlood flood-opacity="0" result="BackgroundImageFix"/>
<feBlend mode="normal" in="SourceGraphic" in2="BackgroundImageFix" result="shape"/>
<feGaussianBlur stdDeviation="35" result="effect1_foregroundBlur"/>
</filter>
<filter id="filter1_f" x="122.476" y="61.7882" width="257.418" height="251.29" filterUnits="userSpaceOnUse" color-interpolation-filters="sRGB">
<feFlood flood-opacity="0" result="BackgroundImageFix"/>
<feBlend mode="normal" in="SourceGraphic" in2="BackgroundImageFix" result="shape"/>
<feGaussianBlur stdDeviation="35" result="effect1_foregroundBlur"/>
</filter>
<filter id="filter2_f" x="554.419" y="147.07" width="257.418" height="227.861" filterUnits="userSpaceOnUse" color-interpolation-filters="sRGB">
<feFlood flood-opacity="0" result="BackgroundImageFix"/>
<feBlend mode="normal" in="SourceGraphic" in2="BackgroundImageFix" result="shape"/>
<feGaussianBlur stdDeviation="35" result="effect1_foregroundBlur"/>
</filter>
<filter id="filter3_f" x="1255.01" y="60.1434" width="245.79" height="217.443" filterUnits="userSpaceOnUse" color-interpolation-filters="sRGB">
<feFlood flood-opacity="0" result="BackgroundImageFix"/>
<feBlend mode="normal" in="SourceGraphic" in2="BackgroundImageFix" result="shape"/>
<feGaussianBlur stdDeviation="35" result="effect1_foregroundBlur"/>
</filter>
<filter id="filter4_f" x="1089.43" y="-13.6079" width="255.898" height="252.835" filterUnits="userSpaceOnUse" color-interpolation-filters="sRGB">
<feFlood flood-opacity="0" result="BackgroundImageFix"/>
<feBlend mode="normal" in="SourceGraphic" in2="BackgroundImageFix" result="shape"/>
<feGaussianBlur stdDeviation="35" result="effect1_foregroundBlur"/>
</filter>
<filter id="filter5_f" x="1504.3" y="60.6074" width="250.762" height="236.101" filterUnits="userSpaceOnUse" color-interpolation-filters="sRGB">
<feFlood flood-opacity="0" result="BackgroundImageFix"/>
<feBlend mode="normal" in="SourceGraphic" in2="BackgroundImageFix" result="shape"/>
<feGaussianBlur stdDeviation="35" result="effect1_foregroundBlur"/>
</filter>
<filter id="filter6_f" x="2047.36" y="84.7274" width="217.436" height="245.765" filterUnits="userSpaceOnUse" color-interpolation-filters="sRGB">
<feFlood flood-opacity="0" result="BackgroundImageFix"/>
<feBlend mode="normal" in="SourceGraphic" in2="BackgroundImageFix" result="shape"/>
<feGaussianBlur stdDeviation="35" result="effect1_foregroundBlur"/>
</filter>
<filter id="filter7_f" x="2145.75" y="-73.0898" width="252.856" height="255.914" filterUnits="userSpaceOnUse" color-interpolation-filters="sRGB">
<feFlood flood-opacity="0" result="BackgroundImageFix"/>
<feBlend mode="normal" in="SourceGraphic" in2="BackgroundImageFix" result="shape"/>
<feGaussianBlur stdDeviation="35" result="effect1_foregroundBlur"/>
</filter>
<filter id="filter8_f" x="2335.76" y="19.4978" width="236.115" height="250.759" filterUnits="userSpaceOnUse" color-interpolation-filters="sRGB">
<feFlood flood-opacity="0" result="BackgroundImageFix"/>
<feBlend mode="normal" in="SourceGraphic" in2="BackgroundImageFix" result="shape"/>
<feGaussianBlur stdDeviation="35" result="effect1_foregroundBlur"/>
</filter>
<filter id="filter9_f" x="3214.39" y="149.05" width="198.304" height="257.418" filterUnits="userSpaceOnUse" color-interpolation-filters="sRGB">
<feFlood flood-opacity="0" result="BackgroundImageFix"/>
<feBlend mode="normal" in="SourceGraphic" in2="BackgroundImageFix" result="shape"/>
<feGaussianBlur stdDeviation="35" result="effect1_foregroundBlur"/>
</filter>
<filter id="filter10_f" x="3314.79" y="41.7375" width="251.29" height="257.418" filterUnits="userSpaceOnUse" color-interpolation-filters="sRGB">
<feFlood flood-opacity="0" result="BackgroundImageFix"/>
<feBlend mode="normal" in="SourceGraphic" in2="BackgroundImageFix" result="shape"/>
<feGaussianBlur stdDeviation="35" result="effect1_foregroundBlur"/>
</filter>
<filter id="filter11_f" x="3212.66" y="-88.8936" width="227.861" height="257.418" filterUnits="userSpaceOnUse" color-interpolation-filters="sRGB">
<feFlood flood-opacity="0" result="BackgroundImageFix"/>
<feBlend mode="normal" in="SourceGraphic" in2="BackgroundImageFix" result="shape"/>
<feGaussianBlur stdDeviation="35" result="effect1_foregroundBlur"/>
</filter>
<filter id="filter12_f" x="4146.14" y="160.141" width="217.443" height="245.79" filterUnits="userSpaceOnUse" color-interpolation-filters="sRGB">
<feFlood flood-opacity="0" result="BackgroundImageFix"/>
<feBlend mode="normal" in="SourceGraphic" in2="BackgroundImageFix" result="shape"/>
<feGaussianBlur stdDeviation="35" result="effect1_foregroundBlur"/>
</filter>
<filter id="filter13_f" x="4321.39" y="160.3" width="252.835" height="255.898" filterUnits="userSpaceOnUse" color-interpolation-filters="sRGB">
<feFlood flood-opacity="0" result="BackgroundImageFix"/>
<feBlend mode="normal" in="SourceGraphic" in2="BackgroundImageFix" result="shape"/>
<feGaussianBlur stdDeviation="35" result="effect1_foregroundBlur"/>
</filter>
<filter id="filter14_f" x="4040.61" y="-65.1216" width="236.101" height="250.762" filterUnits="userSpaceOnUse" color-interpolation-filters="sRGB">
<feFlood flood-opacity="0" result="BackgroundImageFix"/>
<feBlend mode="normal" in="SourceGraphic" in2="BackgroundImageFix" result="shape"/>
<feGaussianBlur stdDeviation="35" result="effect1_foregroundBlur"/>
</filter>
<filter id="filter15_f" x="5214.73" y="59.1469" width="245.765" height="217.436" filterUnits="userSpaceOnUse" color-interpolation-filters="sRGB">
<feFlood flood-opacity="0" result="BackgroundImageFix"/>
<feBlend mode="normal" in="SourceGraphic" in2="BackgroundImageFix" result="shape"/>
<feGaussianBlur stdDeviation="35" result="effect1_foregroundBlur"/>
</filter>
<filter id="filter16_f" x="4894.5" y="21.0714" width="250.759" height="236.115" filterUnits="userSpaceOnUse" color-interpolation-filters="sRGB">
<feFlood flood-opacity="0" result="BackgroundImageFix"/>
<feBlend mode="normal" in="SourceGraphic" in2="BackgroundImageFix" result="shape"/>
<feGaussianBlur stdDeviation="35" result="effect1_foregroundBlur"/>
</filter>
<filter id="filter17_f" x="5067.91" y="222.024" width="255.914" height="252.856" filterUnits="userSpaceOnUse" color-interpolation-filters="sRGB">
<feFlood flood-opacity="0" result="BackgroundImageFix"/>
<feBlend mode="normal" in="SourceGraphic" in2="BackgroundImageFix" result="shape"/>
<feGaussianBlur stdDeviation="35" result="effect1_foregroundBlur"/>
</filter>
<filter id="filter18_f" x="6200.05" y="235.245" width="257.418" height="198.304" filterUnits="userSpaceOnUse" color-interpolation-filters="sRGB">
<feFlood flood-opacity="0" result="BackgroundImageFix"/>
<feBlend mode="normal" in="SourceGraphic" in2="BackgroundImageFix" result="shape"/>
<feGaussianBlur stdDeviation="35" result="effect1_foregroundBlur"/>
</filter>
<filter id="filter19_f" x="5864.11" y="109.423" width="257.418" height="227.861" filterUnits="userSpaceOnUse" color-interpolation-filters="sRGB">
<feFlood flood-opacity="0" result="BackgroundImageFix"/>
<feBlend mode="normal" in="SourceGraphic" in2="BackgroundImageFix" result="shape"/>
<feGaussianBlur stdDeviation="35" result="effect1_foregroundBlur"/>
</filter>
<filter id="filter20_f" x="5902.74" y="74.5525" width="257.418" height="251.29" filterUnits="userSpaceOnUse" color-interpolation-filters="sRGB">
<feFlood flood-opacity="0" result="BackgroundImageFix"/>
<feBlend mode="normal" in="SourceGraphic" in2="BackgroundImageFix" result="shape"/>
<feGaussianBlur stdDeviation="35" result="effect1_foregroundBlur"/>
</filter>
<filter id="filter21_f" x="7099.14" y="259.356" width="245.79" height="217.443" filterUnits="userSpaceOnUse" color-interpolation-filters="sRGB">
<feFlood flood-opacity="0" result="BackgroundImageFix"/>
<feBlend mode="normal" in="SourceGraphic" in2="BackgroundImageFix" result="shape"/>
<feGaussianBlur stdDeviation="35" result="effect1_foregroundBlur"/>
</filter>
<filter id="filter22_f" x="6924.88" y="151.234" width="250.762" height="236.101" filterUnits="userSpaceOnUse" color-interpolation-filters="sRGB">
<feFlood flood-opacity="0" result="BackgroundImageFix"/>
<feBlend mode="normal" in="SourceGraphic" in2="BackgroundImageFix" result="shape"/>
<feGaussianBlur stdDeviation="35" result="effect1_foregroundBlur"/>
</filter>
<filter id="filter23_f" x="6998.3" y="-31.5962" width="255.898" height="252.835" filterUnits="userSpaceOnUse" color-interpolation-filters="sRGB">
<feFlood flood-opacity="0" result="BackgroundImageFix"/>
<feBlend mode="normal" in="SourceGraphic" in2="BackgroundImageFix" result="shape"/>
<feGaussianBlur stdDeviation="35" result="effect1_foregroundBlur"/>
</filter>
<filter id="filter24_f" x="7898.02" y="33.807" width="252.856" height="255.914" filterUnits="userSpaceOnUse" color-interpolation-filters="sRGB">
<feFlood flood-opacity="0" result="BackgroundImageFix"/>
<feBlend mode="normal" in="SourceGraphic" in2="BackgroundImageFix" result="shape"/>
<feGaussianBlur stdDeviation="35" result="effect1_foregroundBlur"/>
</filter>
<filter id="filter25_f" x="8867.55" y="24.4757" width="251.29" height="257.418" filterUnits="userSpaceOnUse" color-interpolation-filters="sRGB">
<feFlood flood-opacity="0" result="BackgroundImageFix"/>
<feBlend mode="normal" in="SourceGraphic" in2="BackgroundImageFix" result="shape"/>
<feGaussianBlur stdDeviation="35" result="effect1_foregroundBlur"/>
</filter>
<filter id="filter26_f" x="9806.4" y="-23.567" width="252.835" height="255.898" filterUnits="userSpaceOnUse" color-interpolation-filters="sRGB">
<feFlood flood-opacity="0" result="BackgroundImageFix"/>
<feBlend mode="normal" in="SourceGraphic" in2="BackgroundImageFix" result="shape"/>
<feGaussianBlur stdDeviation="35" result="effect1_foregroundBlur"/>
</filter>
<filter id="filter27_f" x="10741.8" y="-101.249" width="255.914" height="252.856" filterUnits="userSpaceOnUse" color-interpolation-filters="sRGB">
<feFlood flood-opacity="0" result="BackgroundImageFix"/>
<feBlend mode="normal" in="SourceGraphic" in2="BackgroundImageFix" result="shape"/>
<feGaussianBlur stdDeviation="35" result="effect1_foregroundBlur"/>
</filter>
<filter id="filter28_f" x="11677.5" y="-169.212" width="257.418" height="251.29" filterUnits="userSpaceOnUse" color-interpolation-filters="sRGB">
<feFlood flood-opacity="0" result="BackgroundImageFix"/>
<feBlend mode="normal" in="SourceGraphic" in2="BackgroundImageFix" result="shape"/>
<feGaussianBlur stdDeviation="35" result="effect1_foregroundBlur"/>
</filter>
<filter id="filter29_f" x="12605" y="-191.857" width="245.79" height="217.443" filterUnits="userSpaceOnUse" color-interpolation-filters="sRGB">
<feFlood flood-opacity="0" result="BackgroundImageFix"/>
<feBlend mode="normal" in="SourceGraphic" in2="BackgroundImageFix" result="shape"/>
<feGaussianBlur stdDeviation="35" result="effect1_foregroundBlur"/>
</filter>
<filter id="filter30_f" x="12401.4" y="-93.6079" width="255.898" height="252.835" filterUnits="userSpaceOnUse" color-interpolation-filters="sRGB">
<feFlood flood-opacity="0" result="BackgroundImageFix"/>
<feBlend mode="normal" in="SourceGraphic" in2="BackgroundImageFix" result="shape"/>
<feGaussianBlur stdDeviation="35" result="effect1_foregroundBlur"/>
</filter>
<filter id="filter31_f" x="12872.3" y="-23.9819" width="250.762" height="236.101" filterUnits="userSpaceOnUse" color-interpolation-filters="sRGB">
<feFlood flood-opacity="0" result="BackgroundImageFix"/>
<feBlend mode="normal" in="SourceGraphic" in2="BackgroundImageFix" result="shape"/>
<feGaussianBlur stdDeviation="35" result="effect1_foregroundBlur"/>
</filter>
<clipPath id="clip0">
<rect width="945" height="321" fill="white"/>
</clipPath>
<clipPath id="clip1">
<rect width="945" height="321" fill="white" transform="translate(945)"/>
</clipPath>
<clipPath id="clip2">
<rect width="945" height="321" fill="white" transform="translate(1890)"/>
</clipPath>
<clipPath id="clip3">
<rect width="945" height="321" fill="white" transform="translate(2835)"/>
</clipPath>
<clipPath id="clip4">
<rect width="945" height="321" fill="white" transform="translate(3780)"/>
</clipPath>
<clipPath id="clip5">
<rect width="945" height="321" fill="white" transform="translate(4725)"/>
</clipPath>
<clipPath id="clip6">
<rect width="945" height="321" fill="white" transform="translate(5670)"/>
</clipPath>
<clipPath id="clip7">
<rect width="945" height="321" fill="white" transform="translate(6615)"/>
</clipPath>
<clipPath id="clip8">
<rect width="945" height="321" fill="white" transform="translate(7560)"/>
</clipPath>
<clipPath id="clip9">
<rect width="945" height="321" fill="white" transform="translate(9450)"/>
</clipPath>
<clipPath id="clip10">
<rect width="945" height="321" fill="white" transform="translate(10395)"/>
</clipPath>
<clipPath id="clip11">
<rect width="945" height="321" fill="white" transform="translate(11340)"/>
</clipPath>
<clipPath id="clip12">
<rect width="945" height="321" fill="white" transform="translate(12285)"/>
</clipPath>
</defs>
</svg>
