<svg width="264" height="448" viewBox="0 0 264 448" fill="none" xmlns="http://www.w3.org/2000/svg">
<rect x="218.594" width="13.8298" height="253.788" transform="rotate(19.9504 218.594 0)" fill="#FFD7CA"/>
<rect x="37" y="64.9149" width="13.8298" height="186.021" transform="rotate(-30 37 64.9149)" fill="#FFD7CA"/>
<circle cx="185" cy="104.597" r="40" fill="#A22A2F"/>
<circle r="22" transform="matrix(1 0 0 -1 210 36.5966)" fill="#A22A2F"/>
<path d="M146.84 295.79H116.193V427.266H146.84V295.79Z" fill="black"/>
<path d="M197.254 416.469V447.116H65.7793V441.385C65.7793 427.598 76.9916 416.386 90.7787 416.386H197.254V416.469Z" fill="black"/>
<path d="M131.558 159H263.033L197.254 247.536L131.558 335.989L65.7791 247.536L0 159H131.558Z" fill="black"/>
<path d="M263.034 159L65.7793 247.536L131.558 335.989L263.034 159Z" fill="#E46A3F"/>
</svg>
