<svg width="319" height="276" viewBox="0 0 319 276" fill="none" xmlns="http://www.w3.org/2000/svg">
<path d="M160.498 0.0978699L210.623 92.1893H318.795L160.498 0.0978699Z" fill="#B29E21"/>
<path d="M318.795 91.0143L269.892 90.7206L160.595 185.064L318.795 91.0143Z" fill="#262A28"/>
<path d="M0 88.3216L104.651 92.8258L160.449 0L0 88.3216Z" fill="#B29E21"/>
<path d="M104.651 92.8259L160.595 185.064L0 88.3217L104.651 92.8259Z" fill="#262A28"/>
<path fill-rule="evenodd" clip-rule="evenodd" d="M39.2197 89.2518L160.449 0L160.451 3.12244L160.595 1.00001L269.892 90.7205L160.595 185.064L39.2197 89.2518Z" fill="#77AAA3"/>
<path d="M161.574 172.873L129.738 220.951C126.071 226.483 124.163 232.946 124.212 239.555V240.681C124.261 246.899 126.071 252.97 129.396 258.208L130.521 259.971C135.558 267.853 143.675 273.288 152.869 274.854L156.537 275.491C160.449 276.176 164.41 276.127 168.322 275.344L168.909 275.246C178.005 273.484 185.927 268.049 190.817 260.167L193.116 256.495C196.392 251.158 198.153 245.039 198.055 238.772C198.006 232.456 196.148 226.287 192.725 221L161.574 172.873Z" fill="#77AAA3"/>
</svg>
