<svg width="326" height="202" viewBox="0 0 326 202" fill="none" xmlns="http://www.w3.org/2000/svg">
<path d="M109.427 56.46C109.343 56.5732 109.296 56.7145 109.212 56.8277C112.334 71.303 120.025 83.9006 130.623 93.1479C141.334 102.48 154.972 108.358 169.883 109.375L166.297 57.4043C165.194 56.9935 164.157 56.338 163.232 55.5314C162.92 55.2406 162.609 54.9497 162.326 54.6212C161.806 54.0581 161.381 53.4477 161.021 52.8276L109.427 56.46ZM143.389 79.0095L132.477 77.7444L134.787 57.8688L145.699 59.1338L143.389 79.0095Z" fill="#DCA432"/>
<path fill-rule="evenodd" clip-rule="evenodd" d="M109.17 56.6489C109.153 56.5924 109.136 56.536 109.127 56.4702L68.6266 137.887C69.0023 138.167 69.4873 138.496 70.0415 138.872C74.218 141.708 82.3237 147.211 77.1938 154.386C79.0932 153.806 79.0514 154.746 79.0095 155.685C78.9676 156.624 78.9258 157.563 80.8252 156.983C84.6618 155.851 90.0002 156.484 93.1795 158.912L106.525 150.282C106.535 150.299 106.545 150.316 106.555 150.332L169.884 109.374C154.972 108.356 141.335 102.478 130.624 93.1466C120.026 83.8995 112.335 71.3024 109.213 56.8277C109.213 56.8277 109.213 56.8276 109.213 56.8275C109.203 56.7617 109.186 56.7053 109.17 56.6489ZM105.677 86.6755C106.001 88.6162 106.362 90.5584 106.724 92.5018C108.175 100.294 109.629 108.104 108.623 115.898C108.184 119.254 107.298 122.529 106.414 125.801C105.762 128.212 105.11 130.622 104.639 133.059C103.99 136.412 103.72 140.008 104.208 143.417C103.733 140.028 104.003 136.456 104.648 133.124C105.125 130.702 105.768 128.32 106.41 125.942C107.3 122.643 108.189 119.35 108.633 115.963C109.669 108.069 108.185 100.183 106.708 92.3397C106.352 90.449 105.997 88.5608 105.677 86.6755Z" fill="#7D6212"/>
<path d="M93.1517 158.948L73.0246 157.503L72.3955 149.264C75.2854 151.418 76.4546 151.623 78.5982 152.365C80.7077 153.082 82.3395 153.305 84.4491 154.022C86.5586 154.739 90.3018 156.812 93.1517 158.948Z" fill="#7D6212"/>
<path d="M178.096 40.0413C183.584 44.8031 184.161 53.1491 179.399 58.6373C175.663 62.9485 169.727 64.2005 164.738 62.2757C163.335 61.753 162.016 60.9186 160.839 59.8923C160.442 59.5222 160.046 59.1522 159.685 58.7342C159.024 58.0176 158.483 57.2407 158.025 56.4516C155.364 51.705 155.764 45.6555 159.536 41.2963C164.262 35.8561 172.56 35.2437 178.096 40.0413Z" fill="#662527"/>
<path d="M128.049 58.7654L131.488 85.3672L152.07 82.7061L148.63 56.1043L128.049 58.7654Z" fill="white"/>
<path d="M227.212 41.1471C227 41.2631 226.842 41.338 226.63 41.454C219.329 61.4773 219.036 82.7596 224.88 102.191C230.799 121.781 242.91 139.479 260.343 152.175L295.844 86.0042C294.82 84.6332 294.063 83.1052 293.525 81.4134C293.369 80.8038 293.213 80.1942 293.104 79.5916C292.914 78.5371 292.875 77.4554 292.877 76.4286L227.212 41.1471ZM251.338 94.7723L238.98 84.8642L257.053 62.3898L269.412 72.2979L251.338 94.7723Z" fill="#DCA432"/>
<path fill-rule="evenodd" clip-rule="evenodd" d="M226.685 41.4135C226.706 41.2698 226.781 41.0851 226.85 40.9483L86.6137 131.575C88.4228 136.309 91.7055 137.135 96.2492 138.278C96.8725 138.435 97.5195 138.597 98.1897 138.777C100.894 139.505 103.678 139.926 106.468 140.348C109.361 140.785 112.261 141.223 115.085 142.006C120.641 143.495 126.677 148.428 128.686 153.805L151.667 153.513C151.789 146.484 155.252 139.802 159.743 134.236C155.275 139.826 151.789 146.486 151.674 153.465L260.397 152.135C242.965 139.438 230.854 121.74 224.935 102.151C219.091 82.7191 219.384 61.4369 226.684 41.4137C226.685 41.4136 226.685 41.4135 226.685 41.4135Z" fill="#6B540E"/>
<path d="M128.637 153.799L50.5823 154.776L86.5169 131.562C88.5742 136.946 92.5371 137.275 98.0929 138.764C103.649 140.253 109.488 140.463 114.989 141.993C120.592 143.489 126.628 148.422 128.637 153.799Z" fill="#7D6212"/>
<path d="M320.731 74.1719C323.335 82.7876 318.429 91.9208 309.813 94.5254C303.048 96.5419 295.984 93.9679 291.996 88.6293C290.876 87.1296 290.048 85.4583 289.459 83.6078C289.289 82.9411 289.118 82.2744 288.999 81.6152C288.792 80.4617 288.749 79.2786 288.751 78.1555C289.033 71.4021 293.552 65.3157 300.377 63.2543C308.993 60.6498 318.134 65.5039 320.731 74.1719Z" fill="#662527"/>
<path d="M248.32 58.42L232.089 93.5237L259.241 106.078L275.472 70.9741L248.32 58.42Z" fill="white"/>
<path d="M323 115L244.256 188.104L227.926 201.626L99.3136 201.842L82.0761 188.45L57.3646 166.33L0.640381 115.482L61.6415 122.351L85.4891 124.986L123.723 129.263L141.22 131.207H141.349L165.845 133.972L199.801 129.868L211.12 128.486L299.295 117.815L313.768 116.043L320.68 115.223L323 115Z" fill="#996633"/>
</svg>
