<svg width="489" height="245" viewBox="0 0 489 245" fill="none" xmlns="http://www.w3.org/2000/svg">
<g clip-path="url(#clip0)">
<path d="M242.379 91.797L153.139 22.7333L50.8469 101.844L92.9999 131.5L105.5 226.5L242.379 216.457V91.797Z" fill="#FFD7CA"/>
<path d="M242.378 91.797L412.953 0L441.134 101.844L416.5 124L391.5 229.5L242.378 222.204V91.797Z" fill="#662527"/>
<path d="M29.4753 90.1365V119.612H0C0 103.322 13.2016 90.1365 29.4753 90.1365Z" fill="black"/>
<path d="M0 119.595H29.4753V149.071C13.2016 149.071 0 135.869 0 119.595Z" fill="#662527"/>
<path d="M29.4753 119.595H58.9507C58.9507 135.869 45.7657 149.071 29.4753 149.071V119.595Z" fill="black"/>
<path d="M29.4753 90.1365C45.7491 90.1365 58.9507 103.338 58.9507 119.612H29.4753V90.1365Z" fill="#662527"/>
<path d="M429.51 119.595H458.985V149.071C442.711 149.071 429.51 135.869 429.51 119.595Z" fill="black"/>
<path d="M458.969 149.071V119.595H488.444C488.444 135.869 475.259 149.071 458.969 149.071Z" fill="#662527"/>
<path d="M458.969 119.595V90.1364C475.242 90.1364 488.444 103.321 488.444 119.612H458.969V119.595Z" fill="black"/>
<path d="M429.51 119.595C429.51 103.321 442.711 90.1198 458.985 90.1198V119.595H429.51Z" fill="#662527"/>
</g>
<path d="M103 208H397L387.5 245H107L103 208Z" fill="#E46A3F"/>
<defs>
<clipPath id="clip0">
<rect width="488.444" height="216.457" fill="white"/>
</clipPath>
</defs>
</svg>
