<svg width="239" height="248" viewBox="0 0 239 248" fill="none" xmlns="http://www.w3.org/2000/svg">
<rect x="144.647" width="82.3067" height="151.639" transform="rotate(13.1698 144.647 0)" fill="#662527"/>
<path d="M169.478 6.0818L136.013 153.6" stroke="#2D0B0C" stroke-width="7"/>
<path d="M197.86 12.5691L164.394 160.087" stroke="#2D0B0C" stroke-width="7"/>
<line x1="138.886" y1="25.7881" x2="218.76" y2="44.8444" stroke="#2D0B0C" stroke-width="7"/>
<line x1="124.695" y1="84.984" x2="204.569" y2="104.04" stroke="#2D0B0C" stroke-width="7"/>
<line x1="131.588" y1="55.7915" x2="211.462" y2="74.8478" stroke="#2D0B0C" stroke-width="7"/>
<line x1="116.991" y1="119.042" x2="196.865" y2="138.098" stroke="#2D0B0C" stroke-width="7"/>
<circle cx="72.4254" cy="135.344" r="59.4987" fill="#77AAA3"/>
<path d="M226.487 128.854C226.487 159.524 201.624 184.386 170.954 184.386C140.285 184.386 115.422 159.524 115.422 128.854C115.422 98.1846 140.285 73.3221 170.954 73.3221C201.624 73.3221 226.487 98.1846 226.487 128.854Z" fill="#FFD7CA"/>
<circle cx="114.859" cy="153.58" r="55.5321" fill="#996633"/>
<path d="M238.425 127.351C152.302 168.41 34.4492 146.488 0 127.351V186.811C71.1648 227.875 178.592 216.548 238.425 186.811V127.351Z" fill="#A22A2F"/>
<path d="M62.2158 231.683L25.8533 198.208C101.223 222.206 176.629 209.077 204.911 199.078L175.16 231.683C153.673 252.115 88.6613 254.724 62.2158 231.683Z" fill="#662527"/>
</svg>
