<svg width="191" height="219" viewBox="0 0 191 219" fill="none" xmlns="http://www.w3.org/2000/svg">
<path d="M11.5278 123.509C13.9592 126.031 16.579 128.394 18.9821 130.814C21.5925 133.43 24.2029 136.046 26.8039 138.663C30.008 141.879 33.2121 145.086 36.4068 148.303C39.9596 151.866 43.5029 155.43 47.0557 158.993C50.7122 162.66 54.3592 166.326 58.0157 169.984C61.5213 173.5 65.0364 177.026 68.5421 180.543C71.6614 183.675 74.7807 186.798 77.9 189.93C80.3879 192.424 82.8664 194.909 85.3543 197.404C86.9563 199.007 88.5584 200.62 85.5749 206.285C90.6505 202.711 91.1311 203.199 87.0356 207.748L146.943 207.748C148.95 202.891 150.958 198.042 152.965 193.185C157.356 182.56 161.748 171.945 166.13 161.32C170.474 150.817 174.809 140.314 179.154 129.821C181.595 123.885 184.13 117.986 186.655 112.088C188.87 106.921 191.414 101.67 190.943 95.8837C190.613 91.7107 188.483 87.6971 184.139 86.6281C180.219 85.6622 176.355 86.4012 172.757 89.0864C170.872 90.4931 167.515 93.483 164.962 95.7993C161.192 99.2221 157.479 102.682 153.794 106.171C152.183 107.69 150.571 109.219 148.96 110.738C148.705 110.981 146.924 112.276 146.943 112.651C146.67 105.955 146.406 99.2596 146.133 92.564C145.614 79.7356 145.096 66.9165 144.578 54.0881C144.182 44.3261 144.022 34.5266 143.475 24.7739C143.183 19.5788 141.336 13.5959 136.869 10.4545C133.439 8.04443 129.066 8.11945 125.56 10.3419C121.263 13.0802 119.378 17.5251 118.313 22.242C115.251 37.4242 111.717 52.522 108.494 67.6667C108.4 68.0887 107.881 69.3547 108.041 69.7767C103.367 57.3327 98.5704 44.9262 93.9998 32.4541C91.8795 26.6776 89.7685 20.901 87.6482 15.1151C86.5833 12.1987 85.4995 9.25413 83.8032 6.65656C81.1646 2.60547 76.4149 -0.489111 71.4109 0.0641627C66.4162 0.617436 62.7315 4.70604 61.5818 9.40417C60.5923 13.4178 61.12 17.6376 61.6572 21.7356C64.032 40.078 66.4068 58.4111 68.7816 76.7535C68.8664 77.3912 68.7628 79.6231 69.2151 80.1201C60.6865 70.8082 52.2333 61.3932 43.799 51.9594C39.2567 46.8768 34.38 41.5597 29.0883 37.8087C26.5077 35.9794 25.0267 35.1736 22.6895 34.686C20.3524 34.1983 17.7232 34.5641 15.9138 36.1207C13.8688 37.8837 13.2092 40.847 13.5861 43.5196C13.9631 46.1922 15.207 48.6491 16.4321 51.0498C25.3094 68.4075 34.1866 85.7653 43.0356 103.133C44.1854 105.383 45.3256 107.634 46.4754 109.884C47.1068 111.132 47.7476 112.369 48.379 113.617C48.4072 113.673 48.5297 114.02 48.5957 114.048C45.7686 113.129 42.9414 112.21 40.1143 111.291C33.9887 109.294 27.8727 107.24 21.7189 105.327C15.1882 103.292 2.58634 100.841 0.336167 105.768C-1.20467 108.802 2.96532 114.048 4.48169 116.005C4.48169 116.005 9.29436 121.192 11.5278 123.509Z" fill="#FFEFEA"/>
<path d="M58.3144 184.244L165.979 184.244V218.363H58.3144V184.244Z" fill="#0B3C49"/>
<path d="M91.6748 201.94H78.528V215.086C85.7849 215.092 91.6748 209.202 91.6748 201.94Z" fill="black"/>
<path d="M78.5278 215.092V201.94H65.381C65.3755 209.202 71.2654 215.092 78.5278 215.092Z" fill="#A22A2F"/>
<path d="M78.5278 201.94V188.793C71.2654 188.793 65.381 194.677 65.381 201.94H78.5278Z" fill="black"/>
<path d="M91.6753 201.94C91.6753 194.677 85.7854 188.793 78.5285 188.793V201.94H91.6753Z" fill="#A22A2F"/>
</svg>
