<svg width="279" height="116" viewBox="0 0 279 116" fill="none" xmlns="http://www.w3.org/2000/svg">
<path d="M254.568 75.1418C254.568 75.2673 254.568 75.3923 254.568 75.5178C254.444 92.03 235.702 101.475 221.96 92.2553C201.042 78.22 171.795 69.503 139.426 69.503C107.047 69.503 77.7981 78.22 56.8787 92.2553C43.1361 101.475 24.3946 92.0331 24.2712 75.5178C24.2712 75.393 24.2712 75.2677 24.2712 75.1418C24.2666 33.6448 75.8221 0 139.424 0C203.013 0 254.568 33.6448 254.568 75.1418Z" fill="#A22A2F"/>
<path d="M26.4517 81.3506L33.2988 90.1139L22.3959 116L0.234131 86.9601L26.4517 81.3506Z" fill="#A22A2F"/>
<path d="M252.416 81.3506L245.569 90.1139L256.472 116L278.636 86.9601L252.416 81.3506Z" fill="#A22A2F"/>
<path d="M104.733 31.4714L100.86 32.4334L94.8059 24.6675L94.096 27.7734L95.5871 33.7404L92.203 34.5815L86.7954 12.9407L90.18 12.1007L92.8144 22.6459L95.1588 10.8662L98.9009 9.93665L96.0855 21.4906L104.733 31.4714Z" fill="white"/>
<path d="M109.801 30.6927L106.357 31.2436L102.813 9.22375L108.145 8.37087C110.065 8.06223 111.62 8.47375 112.81 9.60543C114.059 10.8561 114.853 12.487 115.067 14.2391C115.414 15.9699 115.172 17.7667 114.377 19.344C113.602 20.7891 112.254 21.6652 110.333 21.9721L108.446 22.274L109.801 30.6927ZM109.511 18.9881C109.898 18.9411 110.266 18.793 110.577 18.5589C110.888 18.3248 111.132 18.0129 111.284 17.6547C111.641 16.7488 111.723 15.7583 111.521 14.806C111.414 13.8386 111.025 12.9236 110.401 12.1749C110.145 11.8819 109.816 11.6616 109.447 11.5362C109.078 11.4108 108.682 11.3848 108.299 11.4609L106.743 11.7103L107.957 19.2386L109.511 18.9881Z" fill="white"/>
<path d="M120.9 29.5491C119.769 29.6443 118.635 29.399 117.645 28.8449L118.243 25.9102C118.81 26.3173 119.509 26.4989 120.203 26.4195C120.592 26.3973 120.96 26.237 121.24 25.9677C121.52 25.6983 121.694 25.3378 121.731 24.9514L122.303 22.5224L115.946 7.17738L119.689 6.86874L123.699 17.0723L126.005 6.34714L129.681 6.04364L125.095 25.7806C124.907 26.8514 124.374 27.8318 123.577 28.5733C122.805 29.1636 121.87 29.5047 120.899 29.5506" fill="white"/>
<path d="M135.858 5.93817L135.901 12.826C135.852 13.811 136.116 14.7863 136.655 15.613C136.911 15.9522 137.249 16.222 137.636 16.3979C138.024 16.5737 138.449 16.65 138.874 16.6197C139.471 16.6304 140.067 16.5707 140.65 16.4417L140.586 5.90936L144.107 5.88776L144.244 28.189L140.723 28.2101L140.671 19.5168C139.905 19.6273 139.133 19.6879 138.359 19.6983C136.413 19.7096 134.939 19.0665 133.936 17.7688C132.892 16.3433 132.357 14.6107 132.414 12.8465L132.372 5.95874L135.858 5.93817Z" fill="white"/>
<path d="M150.876 28.5414L147.565 28.2919L149.243 6.05237L152.754 6.31574L151.735 19.8208L157.469 6.67068L160.947 6.93148L159.27 29.171L155.791 28.9092L156.837 15.0389L150.876 28.5414Z" fill="white"/>
<path d="M174.158 31.4338L170.682 30.8705L172.282 21.0692L167.614 20.3125L166.015 30.1149L162.572 29.5572L166.161 7.54407L169.604 8.10168L168.107 17.2765L172.775 18.0321L174.271 8.85733L177.747 9.42317L174.158 31.4338Z" fill="white"/>
<path d="M188.394 34.8917L184.913 34.0213L185.274 29.4231L180.98 28.3491L179.123 32.5728L175.642 31.7024L185.509 11.1779L189.412 12.1553L188.394 34.8917ZM185.635 26.3419L186.489 15.5251L182.122 25.4628L185.635 26.3419Z" fill="white"/>
<path d="M97.0422 68.2607L93.6019 69.2771L91.5655 65.1362L87.3213 66.3903L87.8785 70.9685L84.4377 71.9849L82.4524 49.3113L86.3111 48.1708L97.0422 68.2607ZM90.3024 62.3009L85.5161 52.5561L86.8302 63.3271L90.3024 62.3009Z" fill="white"/>
<path d="M101.983 67.2401L98.5684 67.9474L94.0178 46.1122L99.3042 45.0171C101.209 44.6227 102.781 44.9629 104.021 46.0376C105.327 47.23 106.196 48.8233 106.489 50.5643C106.915 52.2774 106.755 54.0836 106.034 55.6955C105.326 57.1745 104.02 58.1111 102.116 58.5051L100.244 58.893L101.983 67.2401ZM101.158 55.5607C101.542 55.4961 101.903 55.3315 102.203 55.0835C102.503 54.8355 102.732 54.5128 102.867 54.1482C103.135 53.2188 103.172 52.2383 102.975 51.2915C102.778 50.3446 102.353 49.4598 101.736 48.7135C101.466 48.4327 101.127 48.2277 100.753 48.1193C100.378 48.0109 99.9819 48.003 99.6034 48.0963L98.0602 48.4157L99.6163 55.8801L101.158 55.5607Z" fill="white"/>
<path d="M110.671 65.8599L110.295 62.7735C110.771 62.7449 111.218 62.5338 111.542 62.1846C111.817 61.8605 112.014 61.1232 112.134 59.9726C112.256 58.2738 112.258 56.5683 112.138 54.8693L111.491 42.89L120.812 41.7619L123.507 63.9016L120.011 64.3245L117.69 45.2403L115.092 45.5551L115.596 54.6887C115.716 56.5372 115.693 58.3921 115.528 60.237C115.458 61.4133 115.124 62.5589 114.551 63.5894C114.156 64.2604 113.596 64.8205 112.925 65.2174C112.22 65.5685 111.457 65.7865 110.672 65.8604" fill="white"/>
<path d="M136.024 63.2773L126.877 63.6888L125.866 41.4091L135.012 40.9976L135.152 44.0706L129.49 44.3278L129.776 50.6411L135.203 50.3962L135.343 53.4697L129.915 53.7136L130.221 60.4609L135.883 60.2037L136.024 63.2773Z" fill="white"/>
<path d="M151.686 63.574L147.697 63.467L143.95 54.3688L142.432 57.1718L142.266 63.3214L138.779 63.2278L139.383 40.9343L142.87 41.0279L142.577 51.8904L148 41.1657L151.854 41.2686L146.039 51.6487L151.686 63.574Z" fill="white"/>
<path d="M156.632 64.1018L153.33 63.7418L155.767 41.5712L159.267 41.9534L157.787 55.4147L163.968 42.4672L167.434 42.8464L164.998 65.017L161.531 64.6384L163.05 50.8118L156.632 64.1018Z" fill="white"/>
<path d="M179.787 67.8075L176.334 67.1203L178.284 57.3817L173.648 56.4589L171.697 66.197L168.276 65.5164L172.657 43.6462L176.077 44.3273L174.252 53.4424L178.889 54.3653L180.714 45.2501L184.167 45.9358L179.787 67.8075Z" fill="white"/>
<path d="M193.867 71.8044L190.423 70.7998L190.963 66.2216L186.715 64.9829L184.694 69.131L181.25 68.1269L191.907 47.9965L195.769 49.123L193.867 71.8044ZM191.442 63.1548L192.717 52.3786L187.966 62.1393L191.442 63.1548Z" fill="white"/>
<path d="M116.766 79.4952H119.045C120.392 79.4952 121.242 80.2606 121.242 81.4381C121.242 82.7307 120.201 83.4056 118.929 83.4056H117.782V85.2575H116.766V79.4952ZM118.963 82.4921C119.73 82.4921 120.21 82.0641 120.21 81.4463C120.21 80.7714 119.722 80.4175 118.963 80.4175H117.782V82.4926L118.963 82.4921Z" fill="black"/>
<path d="M122.28 79.4952H126.567V80.4005H123.296V81.899H126.195V82.8048H123.296V84.3521H126.608V85.258H122.28V79.4952Z" fill="black"/>
<path d="M127.556 82.3768C127.547 81.9837 127.618 81.593 127.765 81.228C127.911 80.863 128.13 80.5314 128.409 80.253C128.687 79.9746 129.019 79.7552 129.385 79.608C129.751 79.4608 130.142 79.3888 130.537 79.3964C130.956 79.3807 131.373 79.4524 131.763 79.6069C132.152 79.7614 132.505 79.9952 132.799 80.2935L132.146 81.043C131.938 80.8229 131.687 80.6463 131.409 80.5234C131.132 80.4004 130.832 80.3337 130.528 80.3269C130.013 80.3708 129.534 80.6058 129.184 80.9854C128.834 81.365 128.64 81.8617 128.64 82.3771C128.64 82.8925 128.834 83.3891 129.184 83.7688C129.534 84.1484 130.013 84.3834 130.528 84.4272C130.842 84.4237 131.151 84.3553 131.437 84.2263C131.723 84.0973 131.978 83.9105 132.188 83.6777L132.84 84.3367C132.55 84.6697 132.189 84.9341 131.783 85.1107C131.378 85.2873 130.938 85.3717 130.495 85.3578C130.104 85.3618 129.716 85.2872 129.354 85.1382C128.992 84.9892 128.664 84.769 128.389 84.4907C128.115 84.2124 127.899 83.8818 127.756 83.5186C127.612 83.1553 127.544 82.767 127.555 82.3768" fill="black"/>
<path d="M135.324 80.434H133.49V79.4952H138.181V80.4334H136.348V85.2585H135.324V80.434Z" fill="black"/>
<path d="M138.584 82.3768C138.578 81.7791 138.75 81.193 139.078 80.6931C139.407 80.1931 139.877 79.8018 140.429 79.569C140.981 79.3362 141.59 79.2724 142.179 79.3856C142.768 79.4989 143.309 79.7841 143.735 80.2051C144.161 80.626 144.451 81.1636 144.569 81.7496C144.688 82.3355 144.629 82.9433 144.399 83.4957C144.17 84.048 143.782 84.52 143.283 84.8516C142.784 85.1831 142.198 85.3593 141.598 85.3577C141.203 85.3648 140.809 85.2926 140.442 85.1456C140.075 84.9986 139.741 84.7797 139.46 84.5018C139.179 84.2239 138.957 83.8927 138.806 83.5277C138.656 83.1627 138.58 82.7714 138.584 82.3768ZM143.564 82.3768C143.574 82.1125 143.531 81.8488 143.437 81.6015C143.343 81.3541 143.2 81.1282 143.016 80.937C142.833 80.7458 142.613 80.5932 142.369 80.4885C142.126 80.3837 141.864 80.3287 141.598 80.3269C141.333 80.3277 141.071 80.3821 140.828 80.4867C140.585 80.5914 140.366 80.7442 140.184 80.9358C140.001 81.1274 139.86 81.354 139.768 81.6017C139.676 81.8493 139.636 82.113 139.649 82.3768C139.639 82.6412 139.682 82.9048 139.776 83.1522C139.87 83.3996 140.013 83.6256 140.197 83.8168C140.38 84.008 140.6 84.1606 140.844 84.2655C141.087 84.3703 141.349 84.4253 141.615 84.4272C141.88 84.426 142.141 84.3713 142.384 84.2665C142.627 84.1616 142.847 84.0088 143.029 83.8172C143.211 83.6256 143.352 83.3992 143.444 83.1516C143.536 82.904 143.577 82.6405 143.564 82.3768Z" fill="black"/>
<path d="M145.856 79.4952H148.136C149.482 79.4952 150.333 80.2606 150.333 81.4381C150.333 82.7307 149.292 83.4056 148.021 83.4056H146.872V85.2575H145.856V79.4952ZM148.053 82.4921C148.821 82.4921 149.3 82.0641 149.3 81.4463C149.3 80.7714 148.813 80.4175 148.053 80.4175H146.872V82.4926L148.053 82.4921Z" fill="black"/>
<path d="M152.842 79.4541H153.784L156.327 85.2586H155.253L154.667 83.8671H151.932L151.338 85.2586H150.297L152.842 79.4541ZM154.295 82.9695L153.296 80.6645L152.305 82.9695H154.295Z" fill="black"/>
<path d="M157.314 79.4952H158.33V81.8923H161.089V79.4952H162.104V85.2564H161.089V82.8275H158.33V85.2564H157.314V79.4952Z" fill="black"/>
<path d="M105.387 94.2297H105.948C106.427 93.2827 106.683 92.1139 106.683 90.187V89.3722H110.713V94.2297H111.431L111.291 96.3706H110.449V95.136H106.377L106.278 96.3706H105.387V94.2297ZM109.697 94.2297V90.2858H107.657V90.9442C107.694 92.0721 107.48 93.194 107.03 94.2297H109.697Z" fill="black"/>
<path d="M111.636 95.1122L111.735 94.2805C111.842 94.3136 111.953 94.331 112.065 94.3319C112.652 94.3319 113.196 93.9615 113.196 90.5115V89.3757H117.16V95.1369H116.145V90.2872H114.146V90.8062C114.146 94.4698 113.476 95.2028 112.337 95.2028C112.101 95.1972 111.866 95.1668 111.636 95.1122Z" fill="black"/>
<path d="M119.784 92.9699C119.383 92.8856 119.024 92.6626 118.772 92.3402C118.519 92.0178 118.389 91.6168 118.405 91.2081C118.405 90.0882 119.223 89.3722 120.56 89.3722H123.131V95.1335H122.124V93.1407H120.844L119.407 95.1335H118.209L119.784 92.9699ZM122.121 92.2621V90.2858H120.643C119.883 90.2858 119.429 90.6458 119.429 91.2739C119.429 91.8747 119.899 92.2621 120.627 92.2621H122.121Z" fill="black"/>
<path d="M127.089 89.3716H130.979V90.2852H128.097V95.135H127.089V89.3716Z" fill="black"/>
<path d="M131.992 89.3722H134.272C135.618 89.3722 136.469 90.1376 136.469 91.3151C136.469 92.6078 135.428 93.2827 134.157 93.2827H133.008V95.1345H131.992V89.3722ZM134.189 92.3691C134.957 92.3691 135.436 91.9406 135.436 91.3233C135.436 90.6479 134.949 90.2945 134.189 90.2945H133.008V92.3696L134.189 92.3691Z" fill="black"/>
<path d="M137.127 94.938L137.515 94.1803C137.73 94.3043 137.976 94.3669 138.225 94.3614C138.417 94.3428 138.602 94.2756 138.761 94.1662C138.92 94.0567 139.048 93.9086 139.134 93.7358L136.722 89.3722H137.862L139.662 92.723L141.247 89.3722H142.346L140.091 93.8758C139.604 94.8531 139.008 95.2261 138.258 95.2261C137.862 95.2296 137.472 95.1303 137.127 94.938Z" fill="black"/>
<path d="M142.634 92.2533C142.625 91.8602 142.696 91.4694 142.843 91.1045C142.99 90.7395 143.209 90.4078 143.487 90.1294C143.766 89.851 144.098 89.6317 144.463 89.4844C144.829 89.3372 145.221 89.2653 145.615 89.2729C146.034 89.2572 146.452 89.3289 146.841 89.4834C147.231 89.6379 147.584 89.8717 147.878 90.17L147.225 90.9194C147.016 90.6994 146.766 90.5228 146.488 90.3999C146.21 90.277 145.911 90.2102 145.607 90.2034C145.092 90.2473 144.612 90.4822 144.263 90.8619C143.913 91.2415 143.719 91.7381 143.719 92.2535C143.719 92.769 143.913 93.2656 144.263 93.6452C144.612 94.0249 145.092 94.2598 145.607 94.3037C145.921 94.3002 146.23 94.2318 146.516 94.1028C146.802 93.9737 147.057 93.7869 147.267 93.5542L147.919 94.2132C147.629 94.5462 147.268 94.8106 146.862 94.9872C146.456 95.1638 146.016 95.2482 145.574 95.2342C145.182 95.2383 144.794 95.1636 144.432 95.0147C144.07 94.8657 143.742 94.6455 143.468 94.3672C143.193 94.0889 142.978 93.7582 142.834 93.395C142.691 93.0318 142.622 92.6435 142.633 92.2533" fill="black"/>
<path d="M150.402 90.3105H148.567V89.3722H153.258V90.3105H151.424V95.1355H150.4L150.402 90.3105Z" fill="black"/>
<path d="M154.33 89.3716H155.346V91.7687H158.104V89.3716H159.12V95.1329H158.104V92.7039H155.346V95.1329H154.33V89.3716Z" fill="black"/>
<path d="M160.604 89.3716H161.612V91.4467H162.941C164.238 91.4467 165.113 92.0887 165.113 93.2502C165.113 94.4117 164.272 95.1355 162.933 95.1355H160.604V89.3716ZM162.917 94.2296C163.668 94.2296 164.104 93.8922 164.104 93.2415C164.104 92.6489 163.666 92.3279 162.898 92.3279H161.608V94.2312L162.917 94.2296ZM165.799 89.3716H166.807V95.1329H165.8L165.799 89.3716Z" fill="black"/>
<path d="M169.958 92.2039L167.935 89.3716H169.132L170.57 91.4385L172.014 89.3716H173.178L171.166 92.1875L173.263 95.135H172.066L170.546 92.9519L169.019 95.1339H167.854L169.958 92.2039Z" fill="black"/>
<path d="M117.996 99.2487H119.012V102.147L121.762 99.2487H123.009L120.606 101.727L123.117 105.012H121.886L119.913 102.418L119.012 103.341V105.012H117.996V99.2487Z" fill="black"/>
<path d="M123.279 104.989L123.378 104.157C123.485 104.19 123.596 104.208 123.708 104.208C124.295 104.208 124.84 103.838 124.84 100.388V99.2523H128.804V105.014H127.788V100.164H125.789V100.683C125.789 104.346 125.119 105.079 123.98 105.079C123.744 105.074 123.509 105.043 123.279 104.989Z" fill="black"/>
<path d="M130.04 102.13C130.034 101.532 130.206 100.946 130.534 100.446C130.863 99.9461 131.333 99.5548 131.885 99.322C132.437 99.0892 133.046 99.0254 133.635 99.1386C134.224 99.2519 134.765 99.5371 135.191 99.958C135.617 100.379 135.907 100.917 136.025 101.503C136.144 102.088 136.085 102.696 135.856 103.249C135.626 103.801 135.238 104.273 134.739 104.605C134.24 104.936 133.654 105.112 133.054 105.111C132.659 105.118 132.266 105.046 131.898 104.899C131.531 104.752 131.197 104.533 130.916 104.255C130.635 103.977 130.413 103.646 130.262 103.281C130.112 102.916 130.036 102.524 130.04 102.13ZM135.02 102.13C135.03 101.865 134.987 101.602 134.893 101.354C134.799 101.107 134.656 100.881 134.472 100.69C134.289 100.499 134.069 100.346 133.825 100.241C133.582 100.137 133.32 100.082 133.054 100.08C132.789 100.081 132.528 100.135 132.284 100.24C132.041 100.344 131.822 100.497 131.64 100.689C131.457 100.88 131.316 101.107 131.224 101.355C131.132 101.602 131.092 101.866 131.105 102.13C131.095 102.394 131.138 102.658 131.232 102.905C131.326 103.153 131.469 103.379 131.653 103.57C131.836 103.761 132.056 103.914 132.3 104.018C132.543 104.123 132.806 104.178 133.071 104.18C133.336 104.179 133.597 104.124 133.84 104.019C134.083 103.915 134.303 103.762 134.485 103.57C134.667 103.379 134.808 103.152 134.9 102.905C134.992 102.657 135.033 102.393 135.02 102.13Z" fill="black"/>
<path d="M136.933 104.814L137.321 104.057C137.537 104.181 137.783 104.243 138.032 104.238C138.224 104.219 138.408 104.152 138.567 104.043C138.726 103.933 138.855 103.785 138.94 103.612L136.529 99.2487H137.669L139.469 102.599L141.054 99.2487H142.153L139.899 103.754C139.412 104.732 138.816 105.105 138.066 105.105C137.67 105.108 137.28 105.009 136.935 104.817" fill="black"/>
<path d="M143.108 99.2487H144.124V101.645H146.882V99.2497H147.897V105.011H146.881V102.582H144.123V105.011H143.107L143.108 99.2487Z" fill="black"/>
<path d="M149.125 102.13C149.119 101.532 149.291 100.946 149.619 100.446C149.948 99.9461 150.418 99.5548 150.97 99.322C151.523 99.0892 152.132 99.0254 152.72 99.1386C153.309 99.2519 153.85 99.5371 154.276 99.958C154.702 100.379 154.992 100.917 155.111 101.503C155.229 102.088 155.17 102.696 154.941 103.249C154.712 103.801 154.323 104.273 153.824 104.605C153.325 104.936 152.739 105.112 152.14 105.111C151.744 105.118 151.351 105.046 150.983 104.899C150.616 104.752 150.282 104.533 150.001 104.255C149.72 103.977 149.498 103.646 149.347 103.281C149.197 102.916 149.122 102.524 149.125 102.13ZM154.105 102.13C154.115 101.865 154.072 101.602 153.978 101.354C153.884 101.107 153.741 100.881 153.558 100.69C153.374 100.499 153.154 100.346 152.911 100.241C152.667 100.137 152.405 100.082 152.14 100.08C151.875 100.081 151.613 100.135 151.37 100.24C151.126 100.344 150.907 100.497 150.725 100.689C150.543 100.88 150.401 101.107 150.309 101.355C150.217 101.602 150.177 101.866 150.19 102.13C150.18 102.394 150.223 102.658 150.318 102.905C150.412 103.153 150.555 103.379 150.738 103.57C150.921 103.761 151.141 103.914 151.385 104.018C151.628 104.123 151.891 104.178 152.156 104.18C152.421 104.179 152.683 104.124 152.926 104.019C153.169 103.915 153.388 103.762 153.57 103.57C153.752 103.379 153.894 103.152 153.986 102.905C154.078 102.657 154.118 102.393 154.105 102.13Z" fill="black"/>
<path d="M156.398 99.2487H158.989C159.541 99.2126 160.084 99.3961 160.501 99.759C160.629 99.8854 160.73 100.037 160.797 100.204C160.864 100.371 160.895 100.551 160.889 100.731C160.895 101.002 160.819 101.27 160.672 101.499C160.525 101.728 160.313 101.908 160.064 102.017C160.391 102.081 160.686 102.258 160.896 102.517C161.106 102.776 161.217 103.1 161.211 103.433C161.211 104.462 160.361 105.014 159.072 105.014H156.397L156.398 99.2487ZM158.785 101.678C159.437 101.678 159.875 101.42 159.875 100.879C159.875 100.426 159.514 100.146 158.859 100.146H157.397V101.678H158.785ZM159.082 104.114C159.776 104.114 160.197 103.843 160.197 103.308C160.197 102.822 159.809 102.534 159.01 102.534H157.4V104.114H159.082Z" fill="black"/>
</svg>
