<svg width="44" height="57" viewBox="0 0 44 57" fill="none" xmlns="http://www.w3.org/2000/svg">
<path d="M25.5751 3.16026L6.57335 24.5924C4.3845 27.0393 2.99612 30.0908 2.56232 33.3503L2.4843 33.905C2.07763 36.9716 2.55282 40.0638 3.82999 42.8752L4.26261 43.8215C6.20078 48.0541 9.80734 51.2669 14.2332 52.6764L15.9981 53.2444C17.8801 53.8534 19.8372 54.104 21.821 53.9895L22.1172 53.982C26.7014 53.7412 31.0094 51.6168 33.9433 48.0694L35.3072 46.4165C37.2929 44.0148 38.5611 41.1186 38.9712 38.0279C39.3846 34.9132 38.8921 31.7693 37.5701 28.927L25.5751 3.16026Z" fill="#77AAA3"/>
</svg>
