<svg width="147" height="120" viewBox="0 0 147 120" fill="none" xmlns="http://www.w3.org/2000/svg">
<path d="M89.4075 30.3801C89.346 30.4511 89.2989 30.4999 89.2375 30.5709C89.3093 38.8418 92.0992 46.6165 96.8677 52.8834C101.685 59.1975 108.495 63.9813 116.559 66.2234L120.456 37.3425C119.897 36.9836 119.414 36.5313 118.988 35.9896C118.849 35.7893 118.709 35.589 118.587 35.3848C118.375 35.0273 118.214 34.6395 118.074 34.2661L89.4075 30.3801ZM105.474 46.5862L99.6341 44.6671L103.144 34.0393L108.984 35.9584L105.474 46.5862Z" fill="#DCA432"/>
<path fill-rule="evenodd" clip-rule="evenodd" d="M89.2518 30.5487C89.2398 30.4936 89.2422 30.4162 89.2485 30.3571L50.6149 82.38C51.9168 83.8547 53.2222 83.708 55.0291 83.505C55.277 83.4771 55.5343 83.4482 55.8023 83.4223C56.8842 83.3187 57.9533 83.0928 59.0248 82.8664C60.1357 82.6316 61.2492 82.3963 62.3823 82.2962C64.6041 82.0813 67.469 83.0528 68.9312 84.7337L77.2437 81.4998C76.3342 78.9372 76.6783 76.0485 77.5464 73.4214C76.6895 76.054 76.3346 78.938 77.2394 81.4816L116.573 66.2013C108.509 63.9592 101.699 59.1753 96.8818 52.8613C92.1133 46.5944 89.3234 38.8198 89.2516 30.549C89.2517 30.5489 89.2517 30.5488 89.2518 30.5487ZM88.6154 31.2896C86.289 34.1834 85.0125 37.9326 84.3999 41.7383C85.0144 37.9412 86.2893 34.1845 88.6154 31.2896Z" fill="#6B540E"/>
<path d="M68.9127 84.7383L40.6774 95.7162L50.5781 82.3885C52.0586 84.0655 53.5436 83.6457 55.7655 83.4308C57.9874 83.2158 60.138 82.4973 62.3455 82.3047C64.5857 82.0858 67.4506 83.0573 68.9127 84.7383Z" fill="#7D6212"/>
<path d="M127.89 29.6551C130.009 32.4319 129.469 36.4191 126.692 38.5382C124.508 40.1918 121.591 40.2176 119.414 38.8202C118.803 38.4276 118.275 37.9329 117.809 37.3404C117.656 37.1213 117.503 36.9023 117.371 36.6788C117.138 36.2879 116.962 35.8637 116.81 35.4552C115.993 32.9624 116.807 30.1353 119.007 28.4572C121.784 26.3381 125.767 26.8582 127.89 29.6551Z" fill="#A22A2F"/>
<path d="M99.4297 33.785L98.3081 48.7521L109.885 49.6196L111.006 34.6525L99.4297 33.785Z" fill="white"/>
<path d="M48.139 50.5216C48.1238 50.5743 48.1261 50.632 48.1108 50.6846C51.2157 55.5205 55.7253 59.0523 60.8356 60.9708C65.9986 62.9046 71.7548 63.1849 77.3128 61.5253L68.9363 43.1251C68.4797 43.1259 68.0135 43.0288 67.5676 42.8615C67.4148 42.7982 67.262 42.7349 67.1143 42.6541C66.8489 42.5201 66.6112 42.3561 66.3961 42.1797L48.139 50.5216ZM63.5511 54.095L59.4129 55.1203L57.5476 47.5823L61.6858 46.5569L63.5511 54.095Z" fill="#DCA432"/>
<path fill-rule="evenodd" clip-rule="evenodd" d="M48.0713 50.6253C48.0576 50.607 48.0439 50.5888 48.0314 50.5662L44.3925 85.6681C44.5671 85.7187 44.7882 85.7724 45.0408 85.8337C46.9446 86.2959 50.6395 87.1928 49.7517 90.4989C50.3631 90.0296 50.4757 90.3766 50.5883 90.7236C50.7009 91.0705 50.8134 91.4175 51.4248 90.9482C52.6651 90.0147 54.6915 89.5182 56.1774 89.9679L59.853 85.0153C59.859 85.0201 59.865 85.0249 59.8711 85.0297L77.313 61.5249C71.755 63.1846 65.9987 62.9042 60.8358 60.9705C55.7256 59.052 51.2161 55.5204 48.1112 50.6846C48.1112 50.6845 48.1112 50.6844 48.1113 50.6844C48.0988 50.6617 48.0851 50.6435 48.0713 50.6253ZM50.9061 62.0437C51.2822 62.6948 51.672 63.3415 52.0619 63.9885C53.6496 66.6231 55.241 69.2637 55.9364 72.2333C56.2334 73.5125 56.3573 74.8235 56.481 76.1329C56.5723 77.0981 56.6634 78.0624 56.8237 79.0126C57.0425 80.3089 57.4292 81.6412 58.0612 82.8068C57.4364 81.6466 57.0532 80.3231 56.8359 79.0351C56.6798 78.0897 56.5893 77.1367 56.4989 76.1851C56.3735 74.8648 56.2483 73.5471 55.9486 72.2558C55.251 69.2458 53.6382 66.5817 52.0341 63.932C51.6535 63.3032 51.2734 62.6753 50.9061 62.0437Z" fill="#7D6212"/>
<path d="M56.1721 89.985L48.6604 92.1989L47.3105 89.2903C48.6539 89.6797 49.1067 89.5951 49.9868 89.5732C50.8511 89.5467 51.4745 89.4056 52.3388 89.3791C53.2031 89.3526 54.8456 89.5965 56.1721 89.985Z" fill="#7D6212"/>
<path d="M70.8617 35.2088C73.5043 36.1925 74.8498 39.1473 73.8661 41.79C73.0952 43.8653 71.108 45.1283 69.0331 45.1076C68.4521 45.1086 67.8588 44.985 67.2913 44.7721C67.0969 44.6916 66.9025 44.6111 66.7145 44.5082C66.3768 44.3377 66.0743 44.129 65.8006 43.9045C64.1873 42.5416 63.5096 40.2885 64.2869 38.1909C65.2642 35.5706 68.1967 34.2186 70.8617 35.2088Z" fill="#A22A2F"/>
<path d="M55.2206 48.8252L60.0911 58.0253L67.2091 54.2571L62.3386 45.057L55.2206 48.8252Z" fill="white"/>
<path d="M134.729 44.3387L115.602 81.4706L111.507 88.6077L64.7938 106.19L56.7063 103.668L44.7148 98.9924L17.1786 88.2318L40.2837 82.4263L49.3096 80.1386L63.7874 76.4895L70.411 74.8148L70.4581 74.7972L79.7371 72.4684L91.5197 66.3554L95.4453 64.3125L126.04 48.4339L131.058 45.8205L133.459 44.5814C133.897 44.5071 134.313 44.4229 134.729 44.3387Z" fill="#996633"/>
</svg>
