<svg width="196" height="158" viewBox="0 0 196 158" fill="none" xmlns="http://www.w3.org/2000/svg">
<path d="M77.7227 55.5204C76.2241 54.6434 74.5357 54.0543 72.8217 53.8165C71.8817 53.6891 70.9373 53.6541 69.9802 53.6928C65.8993 53.8915 61.8898 55.7351 58.8025 58.4844C48.1717 68.0411 45.8 81.6661 47.3097 94.7957C47.3306 94.9451 47.343 95.0755 47.3639 95.2249C47.8899 99.8405 48.6929 105.081 49.8868 110.489L60.6946 107.062L78.053 101.595C78.0446 101.576 78.0552 101.548 78.0384 101.51C77.1438 94.0673 78.1111 86.2754 80.6131 79.1859C81.2465 77.342 82.0104 75.4856 82.665 73.5871C83.837 70.1453 84.6219 66.6483 83.7641 63.1765C82.9439 59.892 80.659 57.1881 77.7227 55.5204ZM73.1374 68.0867L73.1393 68.2444C73.0987 68.7155 72.9488 69.1444 72.6812 69.5122L72.6411 69.5752C72.344 69.9787 71.9587 70.2853 71.5062 70.4403L67.5141 71.9138L67.5057 71.8948L67.7383 67.7135C67.76 67.2508 67.9205 66.7946 68.1881 66.4268C68.4557 66.0591 68.8221 65.7608 69.2472 65.5952L69.5502 65.461C70.1837 65.2031 70.8968 65.2272 71.5043 65.5246L71.54 65.5541C71.7944 65.668 72.036 65.8555 72.2587 66.0515L72.4436 66.2642C72.9415 66.7234 73.1698 67.3926 73.1374 68.0867Z" fill="#A22A2F"/>
<path d="M67.5055 71.8949C63.6625 75.1375 62.936 99.5891 61.9687 105.795" stroke="#1E0F00" stroke-miterlimit="10"/>
<path d="M73.137 68.0868L73.1389 68.2445C73.0983 68.7156 72.9484 69.1445 72.6808 69.5123L72.6407 69.5753C72.3436 69.9788 71.9583 70.2854 71.5058 70.4405L67.5137 71.9139L67.5053 71.895L67.7379 67.7136C67.7596 67.2509 67.9201 66.7947 68.1877 66.4269C68.4553 66.0592 68.8217 65.761 69.2468 65.5953L69.5499 65.4612C70.1833 65.2033 70.8964 65.2273 71.5039 65.5247L71.5396 65.5542C71.794 65.6681 72.0356 65.8557 72.2583 66.0516L72.4432 66.2643C72.9411 66.7235 73.1694 67.3927 73.137 68.0868Z" stroke="#1E0F00" stroke-miterlimit="10"/>
<path d="M90.7681 46.0953C88.8585 47.4621 79.1145 54.519 77.7228 55.5205C76.2242 54.6434 74.5358 54.0544 72.8219 53.8165C71.8818 53.6891 70.9374 53.6541 69.9803 53.6928C70.1397 52.4668 72.05 39.3859 72.3961 36.9442C73.7288 37.6002 90.7681 46.0953 90.7681 46.0953Z" fill="#A22A2F"/>
<path d="M77.7226 55.5205C77.5984 55.5982 77.55 55.6423 77.55 55.6423L77.7226 55.5205Z" fill="#A22A2F"/>
<path d="M70.0006 53.6839C69.9786 53.7408 69.9961 53.7803 69.9961 53.7803L70.0006 53.6839Z" fill="#A22A2F"/>
<path d="M158.734 45.314C156.845 42.0723 153.641 39.5944 150.067 38.2771C137.866 33.8017 125.933 37.7047 116.044 44.4857C107.012 50.5927 95.4179 60.1228 88.6494 70.9824C87.7472 72.4242 86.946 73.8892 86.2457 75.3775C85.229 77.4817 84.4521 79.6157 83.8877 81.7688C82.4625 87.4526 82.3762 93.8574 85.7311 98.6703C85.8361 98.8051 85.9054 98.9104 86.0104 99.0451L86.0672 99.0199L97.1843 95.524L111.084 87.2611C111.358 86.7545 111.98 85.7541 112.124 85.464C114.689 80.0006 118.796 75.4625 123.744 72.0026C129.342 68.1186 136.009 65.5738 142.744 64.5626C145.293 64.181 149.272 63.5973 151.795 63.0011L157.729 59.4668C159.608 57.3658 160.539 54.5064 160.524 51.6583C160.508 51.0083 160.465 50.3478 160.365 49.7124C160.242 48.9739 160.064 48.2143 159.8 47.5156C159.492 46.7685 159.145 46.0382 158.734 45.314ZM98.6934 91.6157C98.636 92.0489 98.461 92.421 98.1955 92.7424L97.9996 92.9651C97.5972 93.4379 97.0268 93.7358 96.4041 93.7624L96.3663 93.7791C96.097 93.7851 95.8299 93.7448 95.5734 93.6771L95.3358 93.6011C94.7513 93.4068 94.2429 92.9749 93.9912 92.4066L93.9325 92.2741C93.7647 91.8952 93.6916 91.4744 93.7658 91.0791L93.7785 91.0055C93.8358 90.5723 94.0131 90.1539 94.3164 89.8157L96.8991 86.95L98.4994 90.4101C98.6861 90.7806 98.7675 91.2203 98.6934 91.6157ZM149.831 51.4549L149.828 51.5012C149.826 51.7515 149.805 52.0101 149.718 52.2751L149.642 52.5127C149.598 52.6683 149.534 52.8322 149.435 52.9667C149.222 53.3556 148.883 53.6643 148.448 53.8573L148.315 53.916C147.936 54.0838 147.507 54.1379 147.101 54.0911L147.027 54.0784C146.788 54.0486 146.577 53.9831 146.369 53.8714C146.189 53.7701 146.008 53.6689 145.857 53.532L142.972 50.9578L146.451 49.3491L146.489 49.3323C146.868 49.1645 147.278 49.1188 147.684 49.1656C148.098 49.2313 148.489 49.398 148.811 49.6635L149.033 49.8594C149.525 50.2534 149.785 50.8406 149.831 51.4549Z" fill="#A22A2F"/>
<path d="M97.0061 87.0385C98.1272 79.1332 101.563 71.6979 106.679 65.6488" stroke="#1E0F00" stroke-miterlimit="10"/>
<path d="M106.697 65.6404C108.612 63.3649 110.759 61.3043 113.125 59.4858C120.209 53.9926 133.961 47.2903 143.018 50.9601" stroke="#1E0F00" stroke-miterlimit="10"/>
<path d="M149.83 51.4552L149.828 51.5015C149.825 51.7518 149.804 52.0105 149.717 52.2754L149.641 52.513C149.597 52.6686 149.534 52.8326 149.435 52.967C149.222 53.3559 148.883 53.6646 148.447 53.8576L148.314 53.9163C147.935 54.0841 147.506 54.1382 147.1 54.0914L147.027 54.0787C146.787 54.0489 146.577 53.9834 146.369 53.8717C146.188 53.7705 146.007 53.6693 145.856 53.5323L142.971 50.9581L146.45 49.3494L146.488 49.3326C146.867 49.1648 147.277 49.1191 147.683 49.1659C148.097 49.2317 148.488 49.3984 148.81 49.6638L149.033 49.8597C149.524 50.2537 149.784 50.8409 149.83 51.4552Z" stroke="#1E0F00" stroke-miterlimit="10"/>
<path d="M98.5176 90.4022C98.6854 90.781 98.7479 91.2291 98.701 91.635C98.6437 92.0683 98.4687 92.4403 98.2032 92.7618L98.0073 92.9845C97.6049 93.4573 97.0344 93.7552 96.4118 93.7817L96.3739 93.7985C96.1047 93.8044 95.8376 93.7641 95.581 93.6965L95.3434 93.6204C94.7589 93.4262 94.2505 92.9943 93.9989 92.426L93.9401 92.2934C93.7724 91.9146 93.6993 91.4938 93.7734 91.0984L93.7861 91.0248C93.8435 90.5916 94.0207 90.1733 94.3241 89.835L96.9067 86.9693L98.5176 90.4022Z" stroke="#1E0F00" stroke-miterlimit="10"/>
<path d="M173.484 39.8919C173.484 39.8919 173.673 57.458 173.691 58.6738C171.946 57.7018 161.735 52.3456 160.522 51.7045C160.506 51.0546 160.462 50.394 160.362 49.7586C160.239 49.0202 160.061 48.2606 159.797 47.5619C159.519 46.7791 159.172 46.0487 158.77 45.3435L173.484 39.8919Z" fill="#A22A2F"/>
<path d="M162.023 57.3447L141.408 103.858L137.838 114.162L81.9778 138.901L71.3626 135.038L56.443 130.203L22.1737 119.075L49.8497 110.353L60.6574 106.926L78.0159 101.459L85.9429 98.945L85.9997 98.9198L97.1169 95.4238L111.017 87.1609L115.644 84.4094L151.744 62.9389L157.678 59.4045L160.512 57.7192C161.008 57.6126 161.515 57.4786 162.023 57.3447Z" fill="#B98E4D"/>
</svg>
