<svg width="75" height="74" viewBox="0 0 75 74" fill="none" xmlns="http://www.w3.org/2000/svg">
<g opacity="0.82">
<path d="M48.8702 11.9679C51.9475 13.3154 49.6966 25.7411 43.6435 39.5634C37.5905 53.3856 30.1257 63.6427 27.0485 62.2951C23.9713 60.9475 26.4469 48.5056 32.5 34.6833C38.5531 20.8611 45.793 10.6203 48.8702 11.9679Z" fill="#6C6363"/>
<rect x="13.4034" y="19.8433" width="19.0126" height="35.0281" transform="rotate(-53.1805 13.4034 19.8433)" fill="#662527"/>
<path d="M16.9912 15.1527L45.1045 35.9033" stroke="#2D0B0C" stroke-width="2"/>
<path d="M20.9939 9.74831L49.1072 30.4989" stroke="#2D0B0C" stroke-width="2"/>
<line x1="18.1735" y1="23.3365" x2="29.6071" y2="8.20124" stroke="#2D0B0C" stroke-width="2"/>
<line x1="29.3842" y1="31.8245" x2="40.8178" y2="16.6892" stroke="#2D0B0C" stroke-width="2"/>
<line x1="23.8459" y1="27.661" x2="35.2795" y2="12.5258" stroke="#2D0B0C" stroke-width="2"/>
<line x1="33.8821" y1="35.1036" x2="45.3157" y2="19.9683" stroke="#2D0B0C" stroke-width="7"/>
<circle cx="35.3496" cy="47.6665" r="13.744" transform="rotate(-66.3502 35.3496 47.6665)" fill="#77AAA3"/>
<path d="M48.252 14.4663C54.7416 17.3082 57.6986 24.8729 54.8567 31.3625C52.0147 37.852 44.4501 40.809 37.9605 37.9671C31.4709 35.1251 28.5139 27.5605 31.3559 21.0709C34.1978 14.5813 41.7625 11.6243 48.252 14.4663Z" fill="#FFD7CA"/>
<circle cx="43.1402" cy="40.3775" r="12.8277" transform="rotate(-66.3502 43.1402 40.3775)" fill="#996633"/>
<path d="M49.0403 11.8009C49.7478 33.8289 34.1885 56.7347 26.9471 62.2508L39.5285 67.7605C54.8119 56.5074 62.3698 32.7266 61.6217 17.3106L49.0403 11.8009Z" fill="#A22A2F"/>
<path d="M54.7885 58.7538L44.3359 63.3461C56.3977 49.6218 60.607 32.4495 61.112 25.5386L65.2543 34.8552C67.5866 41.2951 62.1144 55.2931 54.7885 58.7538Z" fill="#662527"/>
</g>
</svg>
