<svg width="95" height="76" viewBox="0 0 95 76" fill="none" xmlns="http://www.w3.org/2000/svg">
<g opacity="0.94">
<path d="M26.715 36.6713L7.90731 22.9505L8.18305 17.2445L12.9822 14.0251L34.3739 23.2161C37.0949 20.3453 41.1444 19.1016 44.9865 19.8966C44.9982 19.9034 45.0099 19.9101 45.0099 19.9101C46.143 20.142 47.2651 20.5552 48.3276 21.153L87.4293 43.4468C90.6501 45.2908 91.7693 49.3934 89.9321 52.6026L80.824 68.568C78.8563 72.0302 74.6047 73.4074 71.0177 71.8996L67.3678 69.8236C67.1566 69.7017 66.9504 69.5983 66.7307 69.5183L32.018 49.7272C27.4012 47.0773 25.3137 41.6179 26.715 36.6713Z" fill="#E46A3F"/>
<path d="M36.2715 52.3556L52.8438 23.6516L76.492 37.3049L59.9197 66.009L36.2715 52.3556Z" fill="#FFD7CA"/>
<path d="M70.045 33.4097L72.1337 37.8376C72.37 38.3493 72.7512 38.7727 73.2439 39.0572L73.326 39.1046C73.7835 39.3687 74.2969 39.5088 74.8312 39.5044L75.0077 39.4968C75.7974 39.4835 76.5533 39.1223 77.0684 38.5282L77.2711 38.2855C77.4922 38.0378 77.6616 37.7446 77.784 37.4242L77.7993 37.3705C78.068 36.6342 78.0263 35.8124 77.6615 35.1169L77.4933 34.7852C77.2484 34.3154 76.8839 33.9173 76.4147 33.6464C75.9455 33.3755 75.432 33.2354 74.891 33.2515L70.045 33.4097Z" fill="#77AAA3"/>
<path d="M14.0241 13.2192L14.2253 18.9659L7.6876 23.2462L8.18139 17.2438L14.0241 13.2192Z" fill="#723B16"/>
<path d="M14.2253 18.966L23.5157 24.3298L20.8937 16.6537L14.0241 13.2193L14.2253 18.966Z" fill="#723B16"/>
<g clip-path="url(#clip0)">
<path d="M65.5993 50.5585C62.6054 55.7441 55.9745 57.5209 50.7889 54.5269C45.6033 51.533 43.8266 44.9022 46.8205 39.7166C49.8144 34.5309 56.4452 32.7542 61.6309 35.7481C66.8165 38.742 68.5932 45.3729 65.5993 50.5585Z" fill="#A22A2F"/>
<path d="M59.6529 47.5805L62.1551 47.4258C62.4395 47.4108 62.7295 47.4817 62.9776 47.625L63.019 47.6488C63.2568 47.7862 63.4426 47.9899 63.5674 48.2274L63.6056 48.3046C63.798 48.6639 63.8153 49.0875 63.6744 49.4749L63.6175 49.6213C63.5546 49.778 63.465 49.9331 63.3607 50.066L63.3488 50.0866C63.0897 50.3921 62.7098 50.5725 62.3024 50.5855L62.1202 50.5907C61.8521 50.6013 61.5785 50.526 61.3406 50.3887C61.1028 50.2514 60.9171 50.0477 60.7819 49.8042L59.6529 47.5805Z" fill="#77AAA3"/>
<path d="M53.3333 50.1914L55.8355 50.0366C56.1199 50.0216 56.4099 50.0925 56.6581 50.2358L56.6994 50.2597C56.9373 50.397 57.123 50.6007 57.2478 50.8383L57.286 50.9154C57.4784 51.2747 57.4958 51.6984 57.3548 52.0858L57.2979 52.2321C57.235 52.3889 57.1454 52.544 57.0412 52.6768L57.0292 52.6975C56.7702 53.0029 56.3902 53.1834 55.9829 53.1964L55.8007 53.2015C55.5326 53.2121 55.2589 53.1369 55.0211 52.9996C54.7832 52.8622 54.5975 52.6585 54.4623 52.415L53.3333 50.1914Z" fill="#77AAA3"/>
<path d="M48.1421 46.2155L50.6443 46.0608C50.9288 46.0457 51.2187 46.1166 51.4669 46.2599L51.5083 46.2838C51.7461 46.4211 51.9318 46.6248 52.0566 46.8624L52.0948 46.9395C52.2872 47.2988 52.3046 47.7225 52.1636 48.1099L52.1067 48.2563C52.0438 48.413 51.9543 48.5681 51.85 48.7009L51.8381 48.7216C51.579 49.027 51.199 49.2075 50.7917 49.2205L50.6095 49.2256C50.3414 49.2363 50.0677 49.161 49.8299 49.0237C49.592 48.8864 49.4063 48.6826 49.2712 48.4391L48.1421 46.2155Z" fill="#77AAA3"/>
<path d="M48.8309 40.5329L51.3331 40.3782C51.6175 40.3632 51.9074 40.4341 52.1556 40.5774L52.197 40.6012C52.4348 40.7386 52.6205 40.9423 52.7454 41.1798L52.7835 41.257C52.9759 41.6163 52.9933 42.0399 52.8524 42.4273L52.7954 42.5737C52.7325 42.7304 52.643 42.8855 52.5387 43.0183L52.5268 43.039C52.2677 43.3445 51.8878 43.5249 51.4804 43.5379L51.2982 43.543C51.0301 43.5537 50.7565 43.4784 50.5186 43.3411C50.2808 43.2038 50.0951 43.0001 49.9599 42.7566L48.8309 40.5329Z" fill="#77AAA3"/>
<path d="M54.3326 43.9713L56.8451 43.8225C57.1295 43.8075 57.4195 43.8784 57.6677 44.0217L57.709 44.0456C57.9469 44.1829 58.1326 44.3866 58.2574 44.6241L58.2956 44.7013C58.488 45.0606 58.5054 45.4842 58.3644 45.8716L58.3075 46.018C58.2446 46.1747 58.155 46.3298 58.0508 46.4627L58.0388 46.4834C57.7798 46.7888 57.3998 46.9693 56.9925 46.9823L56.8103 46.9874C56.5422 46.998 56.2685 46.9227 56.0307 46.7854C55.7928 46.6481 55.6071 46.4444 55.4719 46.2009L54.3326 43.9713Z" fill="#77AAA3"/>
<path d="M53.8047 37.0759L56.3069 36.9212C56.5914 36.9061 56.8813 36.977 57.1295 37.1203L57.1709 37.1442C57.4087 37.2815 57.5944 37.4853 57.7192 37.7228L57.7634 37.7896C57.9558 38.1489 57.9732 38.5725 57.8322 38.96L57.7856 39.1123C57.7227 39.269 57.6332 39.4241 57.5289 39.5569L57.517 39.5776C57.2579 39.8831 56.8779 40.0635 56.4706 40.0765L56.2618 40.08C55.9936 40.0907 55.72 40.0154 55.4821 39.8781C55.2443 39.7408 55.0586 39.5371 54.9234 39.2936L53.8047 37.0759Z" fill="#77AAA3"/>
<path d="M59.9068 41.3849L62.409 41.2301C62.6934 41.2151 62.9834 41.286 63.2316 41.4293L63.2729 41.4532C63.5108 41.5905 63.6965 41.7942 63.8213 42.0317L63.8595 42.1089C64.0519 42.4682 64.0692 42.8918 63.9283 43.2793L63.8714 43.4256C63.8085 43.5823 63.7189 43.7374 63.6146 43.8703L63.6027 43.891C63.3436 44.1964 62.9637 44.3769 62.5563 44.3899L62.3742 44.395C62.106 44.4056 61.8324 44.3304 61.5945 44.193C61.3567 44.0557 61.171 43.852 61.0358 43.6085L59.9068 41.3849Z" fill="#77AAA3"/>
</g>
</g>
<defs>
<clipPath id="clip0">
<rect width="21.672" height="21.672" fill="white" transform="matrix(-0.5 0.866025 0.866025 0.5 52.2415 30.3271)"/>
</clipPath>
</defs>
</svg>
