<svg width="102" height="106" viewBox="0 0 102 106" fill="none" xmlns="http://www.w3.org/2000/svg">
<path d="M46.6207 62.8168L41.3999 58.4409L22.6275 80.8379L27.8482 85.2138L46.6207 62.8168Z" fill="black"/>
<path d="M37.9782 90.573L33.6023 95.7937L11.2053 77.0213L12.0235 76.045C13.9921 73.6964 17.5031 73.3873 19.8517 75.3559L37.99 90.5588L37.9782 90.573Z" fill="black"/>
<path d="M63.5488 37.333L85.9458 56.1055L62.1106 61.7814L38.2778 67.4834L39.7136 43.009L41.1377 18.5488L63.5488 37.333Z" fill="black"/>
<path d="M85.9446 56.1052L39.7125 43.0087L38.2766 67.4831L85.9446 56.1052Z" fill="#A22A2F"/>
<path d="M79.0961 18.7844C70.3948 11.4913 57.4172 12.6339 50.124 21.3351L53.5197 24.1812C59.2475 17.3476 69.4163 16.4523 76.25 22.1801C83.0837 27.9078 83.9789 38.0767 78.2511 44.9104L81.6468 47.7565C88.9376 39.0292 87.7973 26.0776 79.0961 18.7844Z" fill="#A22A2F"/>
<path d="M73.2268 25.7875C78.0515 29.8313 78.6857 37.0353 74.6419 41.86L78.2639 44.8958C83.9916 38.0621 83.0964 27.8933 76.2627 22.1655C69.429 16.4377 59.2602 17.333 53.5324 24.1667L57.1544 27.2025C61.1841 22.3661 68.3881 21.7318 73.2268 25.7875Z" fill="#7D6212"/>
<path d="M73.2259 25.7873C68.4013 21.7435 61.1973 22.3777 57.1535 27.2024L60.3369 29.8706C62.9102 26.8004 67.4875 26.3974 70.5577 28.9707C73.6279 31.5441 74.0309 36.1213 71.4575 39.1915L74.6409 41.8598C78.6847 37.0352 78.0505 29.8312 73.2259 25.7873Z" fill="#77AAA3"/>
<path d="M68.7195 31.1637C70.5871 32.7291 70.818 35.5 69.2645 37.3535L71.4575 39.1915C74.0308 36.1213 73.6278 31.5441 70.5576 28.9707C67.4874 26.3974 62.9102 26.8004 60.3368 29.8706L62.5298 31.7087C64.0692 29.8434 66.8519 29.5984 68.7195 31.1637Z" fill="#A22A2F"/>
<path d="M68.7194 31.1639C66.8518 29.5986 64.0832 29.8554 62.5297 31.7089L69.2785 37.3655C70.8178 35.5002 70.5728 32.7174 68.7194 31.1639Z" fill="#B98E4D"/>
</svg>
