<svg width="54" height="59" viewBox="0 0 54 59" fill="none" xmlns="http://www.w3.org/2000/svg">
<path d="M15.1355 9.02328L13.4956 35.4206C13.2943 38.4455 14.019 41.455 15.5566 44.0732L15.8153 44.5212C17.2629 46.9836 19.3667 48.9632 21.8945 50.2827L22.7473 50.7252C26.5639 52.7028 31.0147 52.9898 35.0363 51.499L36.6433 50.9088C38.3589 50.2819 39.9253 49.3515 41.3036 48.1403L41.5148 47.9664C44.7133 45.1848 46.6399 41.1898 46.7577 36.9407L46.8103 34.9626C46.8895 32.0861 46.1655 29.2579 44.7067 26.776C43.2365 24.2747 41.0908 22.2673 38.5128 20.9509L15.1355 9.02328Z" fill="#77AAA3"/>
</svg>
