<svg width="70" height="47" viewBox="0 0 70 47" fill="none" xmlns="http://www.w3.org/2000/svg">
<path d="M47.53 11.2077C47.4875 11.2339 47.4559 11.251 47.4134 11.2772C46.1277 15.4784 46.2982 19.8627 47.712 23.7996C49.1429 27.768 51.828 31.28 55.5544 33.7047L62.145 19.6976C61.9193 19.4265 61.7469 19.1202 61.6179 18.7777C61.5791 18.6539 61.5403 18.5301 61.5115 18.4073C61.461 18.1922 61.4412 17.97 61.4305 17.7586L47.53 11.2077ZM53.0782 21.9853L50.4267 20.0797L53.9035 15.2571L56.555 17.1627L53.0782 21.9853Z" fill="#DCA432"/>
<path fill-rule="evenodd" clip-rule="evenodd" d="M47.4241 11.2683C47.4269 11.2385 47.4404 11.1996 47.4531 11.1707L19.5669 31.348C19.9907 32.3032 20.6754 32.4375 21.6232 32.6235C21.7532 32.649 21.8881 32.6755 22.0281 32.7052C22.5926 32.8257 23.1703 32.8821 23.7493 32.9387C24.3496 32.9974 24.9513 33.0562 25.5412 33.1866C26.7011 33.4329 27.9971 34.383 28.469 35.4682L33.1968 35.1587C33.1459 33.7221 33.7757 32.3203 34.6292 31.1319C33.7804 32.3248 33.1459 33.7225 33.1974 35.1488L55.5649 33.6958C51.8385 31.2711 49.1534 27.7592 47.7224 23.7907C46.3087 19.8539 46.1382 15.4696 47.4238 11.2685C47.4239 11.2684 47.424 11.2684 47.4241 11.2683ZM46.782 11.6805C45.2703 12.7546 44.1051 14.3426 43.2301 16.0574C44.1048 14.3467 45.2703 12.7553 46.782 11.6805Z" fill="#6B540E"/>
<path d="M28.4589 35.4675L12.4011 36.5151L19.5469 31.3464C20.0288 32.4326 20.8481 32.4573 22.008 32.7036C23.1679 32.9499 24.3722 32.9297 25.5212 33.185C26.691 33.4322 27.9869 34.3823 28.4589 35.4675Z" fill="#7D6212"/>
<path d="M67.1397 16.992C67.7693 18.7374 66.8583 20.6707 65.1129 21.3004C63.7421 21.7888 62.2601 21.3356 61.3812 20.2798C61.1343 19.9833 60.9457 19.6482 60.8045 19.2736C60.7621 19.1382 60.7197 19.0028 60.6881 18.8684C60.6329 18.6332 60.6113 18.3901 60.5995 18.1589C60.5844 16.7656 61.4486 15.4636 62.8313 14.9652C64.5767 14.3356 66.5111 15.2357 67.1397 16.992Z" fill="#A22A2F"/>
<path d="M52.0624 14.5346L49.1018 21.9371L54.8274 24.2271L57.788 16.8246L52.0624 14.5346Z" fill="white"/>
<path d="M23.4053 14.8142C23.3891 14.8384 23.3811 14.868 23.3649 14.8922C24.1647 17.8382 25.8846 20.3482 28.1666 22.1369C30.4728 23.9418 33.344 25.0039 36.4247 25.0516L35.1227 14.3918C34.8913 14.3192 34.6706 14.1955 34.4715 14.0395C34.4042 13.983 34.337 13.9265 34.2751 13.8619C34.162 13.7517 34.0678 13.6306 33.9871 13.5069L23.4053 14.8142ZM30.6413 19.0879L28.3811 18.9458L28.6412 14.8292L30.9013 14.9712L30.6413 19.0879Z" fill="#DCA432"/>
<path fill-rule="evenodd" clip-rule="evenodd" d="M23.3544 14.8558C23.3504 14.8444 23.3463 14.8329 23.3436 14.8195L15.8892 32.0191C15.9696 32.0727 16.073 32.1352 16.1912 32.2067C17.0817 32.7451 18.8101 33.7901 17.8318 35.3229C18.2166 35.1829 18.2181 35.3767 18.2197 35.5704C18.2213 35.7642 18.2228 35.9579 18.6076 35.8179C19.3851 35.5433 20.4909 35.6157 21.1717 36.0811L23.8253 34.1598C23.8276 34.1631 23.8299 34.1665 23.8322 34.1699L36.4248 25.0513C33.344 25.0036 30.4729 23.9414 28.1667 22.1366C25.8847 20.3479 24.1649 17.8381 23.3651 14.8922C23.3651 14.8922 23.3651 14.8921 23.3652 14.8921C23.3625 14.8787 23.3584 14.8672 23.3544 14.8558ZM22.9651 21.0931C23.0516 21.4831 23.1457 21.8729 23.2398 22.263C23.6229 23.8514 24.0069 25.4434 23.8845 27.0589C23.8305 27.7543 23.6837 28.4382 23.5371 29.1213C23.429 29.6248 23.321 30.1279 23.2503 30.6348C23.154 31.3261 23.1369 32.0624 23.2705 32.7535C23.1397 32.0662 23.1571 31.3349 23.2529 30.648C23.3249 30.1442 23.4314 29.647 23.5377 29.1504C23.6853 28.4616 23.8325 27.7741 23.8871 27.0721C24.0148 25.4358 23.6237 23.8285 23.2347 22.2298C23.1424 21.8505 23.0502 21.4717 22.9651 21.0931Z" fill="#7D6212"/>
<path d="M21.1665 36.0888L17.0074 36.0096L16.7886 34.3204C17.4069 34.7324 17.6498 34.7619 18.0991 34.8915C18.5411 35.0162 18.8795 35.0444 19.3215 35.1691C19.7636 35.2939 20.5566 35.68 21.1665 36.0888Z" fill="#7D6212"/>
<path d="M37.3633 10.6894C38.5448 11.6101 38.754 13.322 37.8333 14.5034C37.1111 15.4314 35.9025 15.7536 34.8547 15.4114C34.5603 15.319 34.2795 15.1616 34.0261 14.9631C33.9405 14.8912 33.8548 14.8193 33.7761 14.7372C33.6322 14.5968 33.5124 14.4428 33.4096 14.2853C32.8102 13.337 32.8271 12.0873 33.5561 11.149C34.47 9.97785 36.1716 9.76177 37.3633 10.6894Z" fill="#A22A2F"/>
<path d="M27.2637 15.0867L28.2603 20.5257L32.4683 19.7547L31.4717 14.3157L27.2637 15.0867Z" fill="white"/>
<path d="M68.2566 25.5232L52.6323 41.2755L49.4172 44.2363L22.9434 45.6757L19.2496 43.1056L13.9226 38.8201L1.69385 28.9676L14.3261 29.7201L19.2639 30.004L27.1811 30.4698L30.8041 30.6802L30.8308 30.6788L35.9034 30.9823L42.8492 29.7691L45.1644 29.3618L63.2004 26.2088L66.1605 25.6872L67.5746 25.4432C67.8082 25.4755 68.0324 25.4994 68.2566 25.5232Z" fill="#996633"/>
</svg>
