<svg width="97" height="106" viewBox="0 0 97 106" fill="none" xmlns="http://www.w3.org/2000/svg">
<path d="M27.387 15.6876L24.4082 63.6359C24.0425 69.1303 25.359 74.597 28.1519 79.3527L28.6217 80.1664C31.2512 84.6391 35.0726 88.2349 39.6639 90.6315L41.213 91.4354C48.1456 95.0275 56.23 95.5489 63.5348 92.8409L66.4538 91.7689C69.5701 90.6301 72.4154 88.9402 74.9189 86.7401L75.3026 86.4242C81.1123 81.3718 84.6118 74.1152 84.8257 66.3971L84.9212 62.804C85.0652 57.5792 83.7502 52.4419 81.1003 47.9338C78.4299 43.3904 74.5323 39.7442 69.8497 37.3531L27.387 15.6876Z" fill="#77AAA3"/>
</svg>
