<svg width="121" height="125" viewBox="0 0 121 125" fill="none" xmlns="http://www.w3.org/2000/svg">
<path d="M65.2252 50.2694L71.3945 55.4404L93.5778 28.974L87.4084 23.8031L65.2252 50.2694Z" fill="black"/>
<path d="M75.438 17.4702L80.609 11.3009L107.075 33.4841L106.108 34.6377C103.782 37.4131 99.6333 37.7783 96.8579 35.4521L75.424 17.4869L75.438 17.4702Z" fill="black"/>
<path d="M45.2213 80.3834L18.755 58.2002L46.9208 51.4929L75.0839 44.755L73.3871 73.6762L71.7043 102.581L45.2213 80.3834Z" fill="black"/>
<path d="M18.756 58.2006L73.3882 73.6766L75.0849 44.7554L18.756 58.2006Z" fill="#A22A2F"/>
<path d="M26.8493 102.302C37.1316 110.92 52.4671 109.57 61.0853 99.2881L57.0727 95.9249C50.3043 104 38.2879 105.058 30.2125 98.2897C22.1372 91.5212 21.0793 79.5048 27.8478 71.4294L23.8352 68.0662C15.2196 78.3792 16.5671 93.684 26.8493 102.302Z" fill="#A22A2F"/>
<path d="M33.7851 94.0267C28.0839 89.2481 27.3345 80.7352 32.113 75.034L27.833 71.4465C21.0645 79.5219 22.1224 91.5383 30.1977 98.3067C38.273 105.075 50.2894 104.017 57.0579 95.942L52.7778 92.3545C48.016 98.0698 39.5031 98.8192 33.7851 94.0267Z" fill="#7D6212"/>
<path d="M33.7859 94.027C39.4871 98.8056 48 98.0561 52.7786 92.3549L49.0168 89.2018C45.9759 92.8299 40.567 93.3061 36.9389 90.2652C33.3109 87.2243 32.8347 81.8154 35.8756 78.1873L32.1138 75.0343C27.3352 80.7355 28.0847 89.2484 33.7859 94.027Z" fill="#77AAA3"/>
<path d="M39.1111 87.6737C36.9042 85.824 36.6314 82.5496 38.4672 80.3594L35.8757 78.1873C32.8348 81.8154 33.311 87.2243 36.9391 90.2652C40.5671 93.3061 45.976 92.8299 49.0169 89.2019L46.4255 87.0298C44.6064 89.234 41.3181 89.5235 39.1111 87.6737Z" fill="#A22A2F"/>
<path d="M39.1114 87.6735C41.3183 89.5232 44.59 89.2197 46.4258 87.0295L38.4507 80.3451C36.6317 82.5493 36.9212 85.8377 39.1114 87.6735Z" fill="#B98E4D"/>
</svg>
