<svg width="121" height="125" viewBox="0 0 121 125" fill="none" xmlns="http://www.w3.org/2000/svg">
<path d="M55.6247 74.3921L49.4553 69.2211L27.2721 95.6875L33.4414 100.858L55.6247 74.3921Z" fill="black"/>
<path d="M45.4118 107.191L40.2409 113.361L13.7745 91.1774L14.7414 90.0238C17.0677 87.2484 21.2166 86.8832 23.9919 89.2094L45.4258 107.175L45.4118 107.191Z" fill="black"/>
<path d="M75.6285 44.2782L102.095 66.4614L73.9291 73.1686L45.766 79.9066L47.4627 50.9854L49.1455 22.0809L75.6285 44.2782Z" fill="black"/>
<path d="M102.094 66.461L47.4617 50.985L45.765 79.9062L102.094 66.461Z" fill="#A22A2F"/>
<path d="M94.0005 22.3593C83.7183 13.7411 68.3828 15.0912 59.7645 25.3735L63.7771 28.7367C70.5456 20.6614 82.562 19.6034 90.6373 26.3719C98.7126 33.1404 99.7705 45.1568 93.0021 53.2321L97.0147 56.5954C105.63 46.2824 104.283 30.9776 94.0005 22.3593Z" fill="#A22A2F"/>
<path d="M87.0647 30.6349C92.7659 35.4135 93.5154 43.9264 88.7368 49.6276L93.0169 53.215C99.7854 45.1397 98.7275 33.1233 90.6521 26.3548C82.5768 19.5863 70.5604 20.6443 63.792 28.7196L68.072 32.307C72.8339 26.5918 81.3468 25.8423 87.0647 30.6349Z" fill="#7D6212"/>
<path d="M87.064 30.6346C81.3627 25.856 72.8499 26.6055 68.0713 32.3067L71.8331 35.4597C74.874 31.8317 80.2829 31.3555 83.9109 34.3964C87.539 37.4373 88.0152 42.8462 84.9743 46.4742L88.7361 49.6273C93.5146 43.926 92.7652 35.4132 87.064 30.6346Z" fill="#77AAA3"/>
<path d="M81.7387 36.9879C83.9456 38.8377 84.2184 42.112 82.3827 44.3022L84.9741 46.4743C88.015 42.8462 87.5388 37.4373 83.9108 34.3964C80.2828 31.3555 74.8738 31.8317 71.8329 35.4598L74.4244 37.6318C76.2434 35.4276 79.5318 35.1381 81.7387 36.9879Z" fill="#A22A2F"/>
<path d="M81.7384 36.9881C79.5315 35.1383 76.2598 35.4418 74.4241 37.632L82.3991 44.3165C84.2182 42.1122 83.9286 38.8238 81.7384 36.9881Z" fill="#B98E4D"/>
</svg>
