<svg width="100" height="115" viewBox="0 0 100 115" fill="none" xmlns="http://www.w3.org/2000/svg">
<path d="M68.5239 101.006L77.5563 48.9791C78.618 43.0202 77.8384 36.889 75.36 31.3566L74.9448 30.4109C72.6109 25.2074 68.8691 20.8182 64.1416 17.6466L62.5461 16.5816C55.4047 11.8216 46.6349 10.2778 38.3276 12.3561L35.0093 13.1756C31.4673 14.0443 28.1551 15.5477 25.1547 17.6498L24.6975 17.9487C17.7411 22.7687 13.0433 30.2751 11.8795 38.6819L11.3422 42.596C10.5553 48.2871 11.373 54.0583 13.7249 59.3029C16.0949 64.5887 19.914 69.042 24.7417 72.2187L68.5239 101.006Z" fill="#77AAA3"/>
</svg>
