<svg width="96" height="135" viewBox="0 0 96 135" fill="none" xmlns="http://www.w3.org/2000/svg">
<g opacity="0.91">
<path d="M26.1377 48.4802L16.8105 17.1929L21.9658 11.0609L30.0555 11.5461L46.1141 39.9748C51.5891 39.0834 57.1637 41.1362 60.7751 45.2873C60.7824 45.3049 60.7898 45.3224 60.7898 45.3224C61.8569 46.5437 62.7578 47.9581 63.4354 49.5277L88.1217 107.621C90.1487 112.415 87.9118 117.943 83.1356 119.963L59.4095 130.038C54.2727 132.229 48.359 130.154 45.638 125.424L43.3294 120.007C43.1974 119.691 43.0552 119.401 42.878 119.125L20.9623 67.5522C18.0626 60.6734 20.3716 52.8087 26.1377 48.4802Z" fill="#E46A3F"/>
<path d="M23.4751 74.0986L66.3516 56.1523L81.1369 91.4768L38.2604 109.423L23.4751 74.0986Z" fill="#FFD7CA"/>
<path d="M77.2531 81.6534L75.8217 88.3682C75.6506 89.14 75.7162 89.9362 76.0242 90.6721L76.0755 90.7948C76.3615 91.4782 76.8154 92.0707 77.4152 92.5197L77.6186 92.6611C78.5109 93.3172 79.6613 93.5565 80.7407 93.3312L81.173 93.2326C81.6302 93.1442 82.0683 92.9608 82.477 92.7074L82.5397 92.6605C83.4651 92.0673 84.1168 91.115 84.3006 90.0291L84.3947 89.5161C84.5207 88.7838 84.4522 88.03 84.1589 87.3291C83.8655 86.6282 83.4116 86.0357 82.7943 85.594L77.2531 81.6534Z" fill="#77AAA3"/>
<path d="M31.9031 11.5325L27.2453 18.1152L16.3146 17.3365L21.965 11.059L31.9031 11.5325Z" fill="#723B16"/>
<path d="M27.2452 18.1151L33.0538 31.9926L36.6498 21.2006L31.903 11.5325L27.2452 18.1151Z" fill="#723B16"/>
<g clip-path="url(#clip0)">
<path d="M57.724 97.01C49.978 100.252 41.0704 96.601 37.8282 88.855C34.5861 81.109 38.2372 72.2014 45.9832 68.9592C53.7292 65.7171 62.6368 69.3682 65.879 77.1142C69.1211 84.8602 65.47 93.7678 57.724 97.01Z" fill="#A22A2F"/>
<path d="M53.6195 88.6354L56.5427 90.5886C56.8728 90.8135 57.1361 91.1389 57.2913 91.5097L57.3171 91.5714C57.4658 91.9267 57.4999 92.3118 57.4374 92.6829L57.4144 92.8014C57.3239 93.3657 56.9833 93.8532 56.4969 94.1657L56.3091 94.2806C56.1057 94.402 55.874 94.499 55.6449 94.5586L55.614 94.5715C55.0654 94.6922 54.4882 94.5708 54.0227 94.2392L53.815 94.0901C53.5069 93.8742 53.2655 93.5577 53.1168 93.2025C52.9681 92.8472 52.934 92.4621 52.99 92.0756L53.6195 88.6354Z" fill="#77AAA3"/>
<path d="M44.3505 86.1794L47.2737 88.1326C47.6038 88.3575 47.8671 88.6829 48.0222 89.0537L48.0481 89.1154C48.1968 89.4707 48.2309 89.8558 48.1684 90.2269L48.1454 90.3454C48.0548 90.9097 47.7143 91.3972 47.2279 91.7097L47.04 91.8246C46.8367 91.946 46.605 92.043 46.3758 92.1026L46.3449 92.1155C45.7964 92.2362 45.2192 92.1148 44.7536 91.7832L44.546 91.6341C44.2378 91.4182 43.9964 91.1017 43.8477 90.7465C43.699 90.3912 43.6649 90.0061 43.721 89.6196L44.3505 86.1794Z" fill="#77AAA3"/>
<path d="M41.9364 77.333L44.8596 79.2862C45.1897 79.511 45.453 79.8365 45.6082 80.2072L45.634 80.269C45.7827 80.6243 45.8168 81.0094 45.7543 81.3804L45.7313 81.499C45.6408 82.0633 45.3002 82.5507 44.8138 82.8632L44.626 82.9782C44.4226 83.0996 44.1909 83.1965 43.9618 83.2562L43.9309 83.2691C43.3823 83.3898 42.8051 83.2683 42.3396 82.9368L42.1319 82.7877C41.8237 82.5718 41.5824 82.2553 41.4337 81.9C41.285 81.5448 41.2508 81.1597 41.3069 80.7732L41.9364 77.333Z" fill="#77AAA3"/>
<path d="M47.5328 71.5782L50.456 73.5313C50.7861 73.7562 51.0494 74.0817 51.2046 74.4524L51.2305 74.5142C51.3792 74.8695 51.4133 75.2545 51.3507 75.6256L51.3278 75.7441C51.2372 76.3085 50.8967 76.7959 50.4103 77.1084L50.2224 77.2233C50.0191 77.3447 49.7874 77.4417 49.5582 77.5013L49.5273 77.5143C48.9788 77.6349 48.4015 77.5135 47.936 77.1819L47.7284 77.0328C47.4202 76.8169 47.1788 76.5005 47.0301 76.1452C46.8814 75.7899 46.8473 75.4049 46.9034 75.0183L47.5328 71.5782Z" fill="#77AAA3"/>
<path d="M50.7501 80.0886L53.6798 82.0572C54.0099 82.2821 54.2732 82.6076 54.4283 82.9783L54.4542 83.0401C54.6029 83.3953 54.637 83.7804 54.5745 84.1515L54.5515 84.27C54.461 84.8343 54.1204 85.3218 53.634 85.6343L53.4461 85.7492C53.2428 85.8706 53.0111 85.9676 52.7819 86.0272L52.7511 86.0402C52.2025 86.1608 51.6253 86.0394 51.1598 85.7078L50.9521 85.5587C50.6439 85.3428 50.4026 85.0264 50.2539 84.6711C50.1052 84.3158 50.071 83.9307 50.1271 83.5442L50.7501 80.0886Z" fill="#77AAA3"/>
<path d="M56.0194 71.9467L58.9426 73.8999C59.2727 74.1248 59.536 74.4502 59.6912 74.8209L59.717 74.8827C59.8657 75.238 59.8998 75.6231 59.8373 75.9941L59.8298 76.1062C59.7392 76.6705 59.3987 77.158 58.9123 77.4705L58.7309 77.6008C58.5276 77.7223 58.2959 77.8192 58.0667 77.8789L58.0358 77.8918C57.4873 78.0125 56.91 77.891 56.4445 77.5594L56.2085 77.3859C55.9003 77.17 55.6589 76.8536 55.5102 76.4983C55.3615 76.143 55.3274 75.7579 55.3835 75.3714L56.0194 71.9467Z" fill="#77AAA3"/>
<path d="M59.1666 81.9384L62.0898 83.8916C62.4199 84.1165 62.6832 84.4419 62.8384 84.8126L62.8642 84.8744C63.0129 85.2297 63.0471 85.6148 62.9845 85.9858L62.9615 86.1044C62.871 86.6687 62.5304 87.1561 62.0441 87.4686L61.8562 87.5836C61.6529 87.705 61.4212 87.8019 61.192 87.8616L61.1611 87.8745C60.6126 87.9952 60.0353 87.8737 59.5698 87.5422L59.3622 87.3931C59.054 87.1772 58.8126 86.8607 58.6639 86.5054C58.5152 86.1502 58.4811 85.7651 58.5371 85.3786L59.1666 81.9384Z" fill="#77AAA3"/>
</g>
</g>
<defs>
<clipPath id="clip0">
<rect width="30.392" height="30.392" fill="white" transform="matrix(-0.922456 0.386101 0.386101 0.922456 60.0085 63.0888)"/>
</clipPath>
</defs>
</svg>
