<svg width="59" height="54" viewBox="0 0 59 54" fill="none" xmlns="http://www.w3.org/2000/svg">
<path d="M49.1744 39.483L38.132 15.4502C36.8785 12.69 34.8163 10.3813 32.2231 8.80192L31.7833 8.52958C29.343 7.04493 26.553 6.296 23.7019 6.32929L22.7412 6.3428C18.4431 6.40593 14.386 8.25845 11.5481 11.4744L10.4114 12.7545C9.19647 14.1184 8.25649 15.6791 7.61518 17.3983L7.51133 17.6514C6.00916 21.6151 6.20158 26.0462 8.10787 29.8456L8.99728 31.6132C10.2882 34.185 12.2639 36.3343 14.7233 37.8308C17.2018 39.3391 20.0419 40.0926 22.9358 40.0329L49.1744 39.483Z" fill="#77AAA3"/>
</svg>
