<svg width="59" height="54" viewBox="0 0 59 54" fill="none" xmlns="http://www.w3.org/2000/svg">
<path d="M48.9797 39.4649L37.9373 15.4321C36.6838 12.6719 34.6216 10.3632 32.0284 8.78379L31.5886 8.51145C29.1483 7.0268 26.3583 6.27787 23.5072 6.31116L22.5465 6.32467C18.2484 6.3878 14.1913 8.24033 11.3534 11.4562L10.2167 12.7364C9.00177 14.1003 8.06179 15.661 7.42047 17.3801L7.31663 17.6333C5.81446 21.597 6.00688 26.0281 7.91317 29.8274L8.80258 31.5951C10.0935 34.1668 12.0692 36.3162 14.5286 37.8127C17.0071 39.321 19.8472 40.0745 22.7411 40.0148L48.9797 39.4649Z" fill="#77AAA3"/>
</svg>
