<svg width="79" height="95" viewBox="0 0 79 95" fill="none" xmlns="http://www.w3.org/2000/svg">
<g opacity="0.91">
<path d="M57.4534 58.0619L67.9036 78.8654L65.0488 83.8135L59.3085 84.4816L44.4888 66.5246C40.756 67.8332 36.5861 67.0871 33.5329 64.623C33.5256 64.6116 33.5182 64.6002 33.5182 64.6002C32.6167 63.8758 31.8078 62.9952 31.1363 61.9776L6.55983 24.2688C4.53888 21.156 5.41999 16.9957 8.52145 14.9821L23.923 4.94987C27.2563 2.77084 31.6671 3.49061 34.1673 6.47202L36.4637 9.98748C36.5957 10.1925 36.7317 10.3787 36.8906 10.5503L58.7087 44.0262C61.6024 48.4942 60.9619 54.3039 57.4534 58.0619Z" fill="#E46A3F"/>
<path d="M56.1282 39.7434L28.2629 57.6902L13.4772 34.7329L41.3425 16.7861L56.1282 39.7434Z" fill="#FFD7CA"/>
<path d="M17.4289 41.1455L17.5965 36.2525C17.6205 35.6893 17.4751 35.1385 17.1671 34.6602L17.1157 34.5805C16.8297 34.1364 16.4371 33.777 15.96 33.5365L15.7996 33.4626C15.0913 33.1132 14.2538 33.0887 13.5241 33.3815L13.2328 33.5046C12.9229 33.6237 12.6382 33.8071 12.3828 34.036L12.3446 34.0767C11.7689 34.6086 11.4301 35.3584 11.4365 36.1438L11.4344 36.5157C11.4372 37.0455 11.5793 37.5663 11.8727 38.0218C12.166 38.4773 12.5586 38.8366 13.0471 39.0698L17.4289 41.1455Z" fill="#77AAA3"/>
<path d="M58.013 84.7216L60.4623 79.5191L68.2338 78.7027L65.0495 83.8147L58.013 84.7216Z" fill="#723B16"/>
<path d="M60.4625 79.5191L54.6538 70.5001L53.4748 78.5256L58.0132 84.7216L60.4625 79.5191Z" fill="#723B16"/>
<g clip-path="url(#clip0)">
<path d="M29.2252 27.9284C34.2593 24.6861 40.9686 26.1387 44.2108 31.1728C47.4531 36.2069 46.0005 42.9162 40.9664 46.1585C35.9323 49.4007 29.223 47.9481 25.9807 42.914C22.7385 37.8799 24.1911 31.1706 29.2252 27.9284Z" fill="#A22A2F"/>
<path d="M33.1513 33.2962L30.8553 32.2895C30.5955 32.1728 30.3701 31.9771 30.2149 31.7362L30.1891 31.696C30.0403 31.4651 29.9684 31.199 29.966 30.9307L29.9674 30.8446C29.9606 30.4371 30.1389 30.0524 30.4414 29.7723L30.559 29.6682C30.6866 29.5576 30.8372 29.4606 30.9906 29.3902L31.0107 29.3773C31.3808 29.2241 31.8012 29.2374 32.1694 29.4122L32.3338 29.4909C32.5771 29.6041 32.786 29.7962 32.9347 30.0271C33.0834 30.258 33.1554 30.5241 33.1642 30.8024L33.1513 33.2962Z" fill="#77AAA3"/>
<path d="M39.9652 33.8647L37.6693 32.858C37.4095 32.7412 37.184 32.5456 37.0289 32.3046L37.003 32.2645C36.8543 32.0336 36.7823 31.7675 36.78 31.4992L36.7813 31.4131C36.7745 31.0056 36.9528 30.6209 37.2554 30.3408L37.3729 30.2367C37.5005 30.1261 37.6511 30.0291 37.8046 29.9587L37.8247 29.9458C38.1947 29.7926 38.6152 29.8059 38.9833 29.9806L39.1477 30.0594C39.391 30.1726 39.5999 30.3647 39.7487 30.5956C39.8974 30.8264 39.9693 31.0926 39.9782 31.3709L39.9652 33.8647Z" fill="#77AAA3"/>
<path d="M42.7633 39.7746L40.4674 38.7679C40.2076 38.6511 39.9821 38.4555 39.827 38.2146L39.8011 38.1744C39.6524 37.9435 39.5804 37.6774 39.5781 37.4091L39.5794 37.323C39.5726 36.9155 39.7509 36.5308 40.0535 36.2507L40.171 36.1466C40.2986 36.036 40.4492 35.939 40.6027 35.8686L40.6228 35.8557C40.9928 35.7025 41.4133 35.7158 41.7815 35.8906L41.9458 35.9693C42.1891 36.0825 42.3981 36.2746 42.5468 36.5055C42.6955 36.7364 42.7674 37.0025 42.7763 37.2808L42.7633 39.7746Z" fill="#77AAA3"/>
<path d="M39.5518 44.513L37.2558 43.5062C36.996 43.3895 36.7706 43.1938 36.6154 42.9529L36.5896 42.9127C36.4409 42.6818 36.3689 42.4157 36.3665 42.1474L36.3679 42.0613C36.3611 41.6538 36.5394 41.2691 36.8419 40.9891L36.9595 40.885C37.0871 40.7744 37.2377 40.6774 37.3911 40.6069L37.4112 40.594C37.7813 40.4409 38.2017 40.4542 38.5699 40.6289L38.7343 40.7077C38.9776 40.8208 39.1865 41.0129 39.3352 41.2438C39.4839 41.4747 39.5559 41.7408 39.5647 42.0192L39.5518 44.513Z" fill="#77AAA3"/>
<path d="M36.2317 38.9391L33.9293 37.9223C33.6695 37.8055 33.4441 37.6099 33.2889 37.3689L33.263 37.3288C33.1143 37.0979 33.0424 36.8318 33.04 36.5635L33.0413 36.4774C33.0345 36.0699 33.2129 35.6852 33.5154 35.4051L33.6329 35.301C33.7606 35.1904 33.9111 35.0934 34.0646 35.023L34.0847 35.0101C34.4547 34.8569 34.8752 34.8702 35.2434 35.045L35.4077 35.1237C35.651 35.2369 35.86 35.429 36.0087 35.6599C36.1574 35.8907 36.2293 36.1569 36.2382 36.4352L36.2317 38.9391Z" fill="#77AAA3"/>
<path d="M33.5475 45.3125L31.2516 44.3058C30.9918 44.189 30.7663 43.9934 30.6112 43.7525L30.5853 43.7123C30.4366 43.4814 30.3646 43.2153 30.3622 42.947L30.3536 42.8674C30.3468 42.4599 30.5251 42.0752 30.8276 41.7951L30.9387 41.6809C31.0663 41.5704 31.2169 41.4734 31.3704 41.4029L31.3904 41.39C31.7605 41.2369 32.1809 41.2501 32.5491 41.4249L32.7365 41.5173C32.9798 41.6304 33.1887 41.8225 33.3374 42.0534C33.4861 42.2843 33.5581 42.5504 33.5669 42.8288L33.5475 45.3125Z" fill="#77AAA3"/>
<path d="M30.0918 38.6899L27.7959 37.6831C27.5361 37.5664 27.3106 37.3707 27.1555 37.1298L27.1296 37.0896C26.9809 36.8587 26.9089 36.5926 26.9066 36.3243L26.9079 36.2382C26.9011 35.8307 27.0794 35.446 27.3819 35.166L27.4995 35.0618C27.6271 34.9512 27.7777 34.8543 27.9312 34.7838L27.9513 34.7709C28.3213 34.6178 28.7418 34.631 29.1099 34.8058L29.2743 34.8846C29.5176 34.9977 29.7265 35.1898 29.8752 35.4207C30.024 35.6516 30.0959 35.9177 30.1048 36.196L30.0918 38.6899Z" fill="#77AAA3"/>
</g>
</g>
<defs>
<clipPath id="clip0">
<rect width="21.672" height="21.672" fill="white" transform="matrix(0.84072 -0.54147 -0.54147 -0.84072 31.8513 52.0291)"/>
</clipPath>
</defs>
</svg>
