<svg width="144" height="145" viewBox="0 0 144 145" fill="none" xmlns="http://www.w3.org/2000/svg">
<g opacity="0.8">
<path d="M113.248 101.026C109.84 106.224 87.8641 98.2871 64.5121 82.9821C41.1602 67.6772 24.7479 50.8957 28.1552 45.6969C31.5625 40.4981 53.4991 48.8507 76.8511 64.1557C100.203 79.4607 116.655 95.8269 113.248 101.026Z" fill="#6C6363"/>
<rect x="109.814" y="33.8899" width="35.1795" height="64.8134" transform="rotate(46.4108 109.814 33.8899)" fill="#662527"/>
<path d="M117.266 41.8819L70.7396 86.776" stroke="#2D0B0C" stroke-width="2"/>
<path d="M125.891 50.8507L79.3656 95.7448" stroke="#2D0B0C" stroke-width="2"/>
<line x1="101.352" y1="42.0994" x2="125.44" y2="67.6257" stroke="#2D0B0C" stroke-width="2"/>
<line x1="82.4092" y1="59.936" x2="106.498" y2="85.4623" stroke="#2D0B0C" stroke-width="2"/>
<line x1="91.7129" y1="51.1151" x2="115.802" y2="76.6414" stroke="#2D0B0C" stroke-width="2"/>
<line x1="73.494" y1="68.5903" x2="97.5827" y2="94.1167" stroke="#2D0B0C" stroke-width="7"/>
<circle cx="52.2855" cy="65.352" r="25.4309" transform="rotate(33.241 52.2855 65.352)" fill="#77AAA3"/>
<path d="M108.88 99.1276C101.694 110.091 86.9812 113.154 76.0174 105.968C65.0536 98.7827 61.9909 84.0696 69.1766 73.1058C76.3623 62.1421 91.0754 59.0793 102.039 66.2651C113.003 73.4508 116.066 88.1639 108.88 99.1276Z" fill="#FFD7CA"/>
<circle cx="63.1821" cy="81.8128" r="23.7355" transform="rotate(33.241 63.1821 81.8128)" fill="#996633"/>
<path d="M113.5 101.387C73.0925 95.887 36.0987 60.4379 28.2673 45.5257L14.3363 66.7813C30.1553 98.1345 71.2123 119.255 99.5688 122.643L113.5 101.387Z" fill="#A22A2F"/>
<path d="M26.064 97.3992L20.908 76.9131C42.2288 103.15 72.2612 116.124 84.7142 119.176L66.4395 123.861C53.9711 126.131 30.1194 111.832 26.064 97.3992Z" fill="#662527"/>
</g>
</svg>
