<svg width="48" height="57" viewBox="0 0 48 57" fill="none" xmlns="http://www.w3.org/2000/svg">
<path d="M24.0923 22.5579L27.5392 23.876L33.1937 9.08887L29.7468 7.77079L24.0923 22.5579Z" fill="black"/>
<path d="M23.6122 6.81682L24.9303 3.36992L39.7174 9.02448L39.4709 9.66902C38.878 11.2197 37.1347 11.9985 35.584 11.4055L23.6086 6.82616L23.6122 6.81682Z" fill="black"/>
<path d="M19.9277 38.5997L5.1406 32.9451L16.343 25.8258L27.5397 18.6936L31.1301 31.4804L34.7241 44.2578L19.9277 38.5997Z" fill="black"/>
<path d="M5.14109 32.9452L31.1306 31.4804L27.5402 18.6936L5.14109 32.9452Z" fill="#A22A2F"/>
<path d="M15.2446 50.8461C20.9894 53.0429 27.4331 50.1641 29.6299 44.4193L27.388 43.562C25.6627 48.0738 20.6136 50.3295 16.1019 48.6042C11.5901 46.8789 9.33434 41.8299 11.0596 37.3181L8.81773 36.4608C6.62669 42.2185 9.49973 48.6493 15.2446 50.8461Z" fill="#A22A2F"/>
<path d="M17.0125 46.2226C13.8271 45.0045 12.2291 41.4276 13.4471 38.2422L11.0558 37.3278C9.3305 41.8396 11.5862 46.8886 16.098 48.6139C20.6098 50.3392 25.6589 48.0835 27.3842 43.5717L24.9928 42.6573C23.7841 45.8462 20.2071 47.4442 17.0125 46.2226Z" fill="#7D6212"/>
<path d="M17.0128 46.2225C20.1981 47.4406 23.7751 45.8425 24.9932 42.6572L22.8914 41.8535C22.1163 43.8805 19.8435 44.8959 17.8165 44.1208C15.7895 43.3456 14.7741 41.0729 15.5492 39.0459L13.4475 38.2422C12.2294 41.4275 13.8275 45.0045 17.0128 46.2225Z" fill="#77AAA3"/>
<path d="M18.3703 42.6728C17.1372 42.2013 16.5293 40.8232 16.9972 39.5995L15.5493 39.0458C14.7742 41.0729 15.7896 43.3456 17.8166 44.1207C19.8436 44.8959 22.1164 43.8805 22.8915 41.8534L21.4436 41.2998C20.985 42.5271 19.6033 43.1443 18.3703 42.6728Z" fill="#A22A2F"/>
<path d="M18.3703 42.6727C19.6033 43.1442 20.9757 42.5234 21.4437 41.2997L16.9879 39.5958C16.5293 40.8231 17.1466 42.2048 18.3703 42.6727Z" fill="#B98E4D"/>
</svg>
