<svg width="59" height="76" viewBox="0 0 59 76" fill="none" xmlns="http://www.w3.org/2000/svg">
<path d="M21.6524 21.9185C21.6642 21.967 21.6707 22.0024 21.6825 22.0509C25.28 24.5729 29.5022 25.7668 33.6832 25.6399C37.8997 25.5065 42.0699 24.0392 45.5282 21.2454L34.2463 10.6458C33.9186 10.7766 33.574 10.8458 33.2084 10.8626C33.0787 10.8612 32.949 10.8598 32.8232 10.8492C32.6031 10.8308 32.3856 10.7808 32.1813 10.7256L21.6524 21.9185ZM33.6176 19.9757L30.9853 21.9078L27.4745 17.1099L30.1068 15.1778L33.6176 19.9757Z" fill="#DCA432"/>
<path fill-rule="evenodd" clip-rule="evenodd" d="M21.6773 22.0378C21.6498 22.026 21.6171 22.0011 21.5935 21.9801L32.1569 54.7395C33.1963 54.6319 33.5358 54.0223 34.0058 53.1785C34.0703 53.0628 34.1372 52.9426 34.2088 52.8188C34.4979 52.3191 34.7303 51.7872 34.9632 51.2541C35.2046 50.7014 35.4466 50.1474 35.7531 49.6267C36.346 48.5999 37.6503 47.6613 38.8283 47.5481L39.9962 42.9565C38.6057 42.558 37.4618 41.5151 36.5936 40.3267C37.4677 41.5119 38.6062 42.558 39.987 42.9526L45.5231 21.2325C42.0647 24.0262 37.8945 25.4935 33.6781 25.6269C29.497 25.7538 25.2749 24.56 21.6774 22.038C21.6774 22.0379 21.6773 22.0379 21.6773 22.0378ZM21.7796 22.4631C22.3034 24.4051 23.5557 26.1509 25.0436 27.6157C23.5602 26.1528 22.3039 24.4053 21.7796 22.4631Z" fill="#6B540E"/>
<path d="M38.8245 47.5575L34.8545 63.152L32.1492 54.7581C33.3311 54.6357 33.6081 53.8642 34.201 52.8373C34.794 51.8105 35.1472 50.659 35.7454 49.6453C36.3422 48.6093 37.6465 47.6707 38.8245 47.5575Z" fill="#7D6212"/>
<path d="M33.2181 5.0591C35.0726 5.00016 36.6294 6.46447 36.6884 8.31899C36.7289 9.77366 35.8395 11.0428 34.5637 11.5522C34.2053 11.6952 33.8283 11.771 33.4285 11.7893C33.2866 11.7878 33.1447 11.7862 33.0071 11.7747C32.7664 11.7545 32.5285 11.6999 32.305 11.6395C30.9753 11.223 30.0045 9.99842 29.9582 8.52942C29.8992 6.67489 31.3535 5.11373 33.2181 5.0591Z" fill="#A22A2F"/>
<path d="M26.218 18.637L32.3419 23.7419L36.2904 19.0053L30.1665 13.9004L26.218 18.637Z" fill="white"/>
<path d="M17.6208 45.9757C17.6388 45.9985 17.6645 46.0153 17.6825 46.0382C20.7314 46.1887 23.6502 45.3295 26.057 43.7125C28.4867 42.0776 30.3847 39.6757 31.3829 36.7608L20.843 34.7021C20.7024 34.8997 20.5165 35.0713 20.3066 35.2124C20.2321 35.2589 20.1575 35.3054 20.077 35.3443C19.9372 35.4177 19.7929 35.4698 19.6503 35.5083L17.6208 45.9757ZM23.9229 40.4162L23.0888 42.5216L19.2543 41.0011L20.0885 38.8957L23.9229 40.4162Z" fill="#DCA432"/>
<path fill-rule="evenodd" clip-rule="evenodd" d="M17.6446 46.037C17.6325 46.0373 17.6204 46.0376 17.6068 46.036L31.6577 58.4444C31.7335 58.3845 31.8249 58.3055 31.9294 58.2152C32.7168 57.5349 34.2451 56.2145 35.4003 57.6188C35.3861 57.2096 35.5709 57.2681 35.7556 57.3265C35.9403 57.385 36.1251 57.4434 36.1109 57.0342C36.0903 56.2099 36.5011 55.1807 37.1542 54.6771L36.1478 51.5594C36.1517 51.5583 36.1557 51.5571 36.1596 51.556L31.3827 36.7606C30.3845 39.6755 28.4864 42.0774 26.0568 43.7124C23.6501 45.3292 20.7314 46.1885 17.6825 46.038C17.6825 46.038 17.6825 46.038 17.6825 46.038C17.6689 46.0364 17.6568 46.0367 17.6446 46.037ZM23.4353 48.3342C23.8396 48.3735 24.2463 48.4052 24.6532 48.4369C26.2822 48.5638 27.915 48.6909 29.4134 49.307C30.058 49.5735 30.663 49.9246 31.2672 50.2753C31.7126 50.5338 32.1576 50.792 32.6178 51.016C33.2516 51.3245 33.9541 51.5703 34.6596 51.6547C33.9586 51.5688 33.261 51.3242 32.6312 51.0177C32.1744 50.7933 31.7345 50.5383 31.2952 50.2836C30.6858 49.9303 30.0775 49.5776 29.4268 49.3086C27.9102 48.681 26.2607 48.5559 24.6201 48.4314C24.224 48.4013 23.8284 48.3713 23.4353 48.3342Z" fill="#7D6212"/>
<path d="M37.16 54.6846L35.7983 58.6153L34.1243 58.301C34.7073 57.8404 34.8105 57.6185 35.0727 57.2313C35.328 56.8495 35.4594 56.5365 35.7148 56.1547C35.9701 55.7729 36.5825 55.1381 37.16 54.6846Z" fill="#7D6212"/>
<path d="M18.0152 31.4262C19.2562 30.5875 20.9488 30.9179 21.7876 32.1589C22.4467 33.1328 22.3793 34.3817 21.7299 35.2723C21.5509 35.5237 21.3144 35.742 21.0472 35.9216C20.9524 35.9808 20.8575 36.04 20.7551 36.0895C20.5771 36.1829 20.3935 36.2492 20.212 36.2982C19.1248 36.575 17.9416 36.1724 17.2748 35.1889C16.4437 33.9576 16.7645 32.2726 18.0152 31.4262Z" fill="#A22A2F"/>
<path d="M19.0734 42.3907L24.554 43.1251L25.1222 38.8849L19.6417 38.1505L19.0734 42.3907Z" fill="white"/>
<path d="M41.6764 6.63544L51.8242 26.3655L53.6454 30.3387L46.8264 55.9597L43.2399 58.6775L37.517 62.418L24.3655 71L28.9879 59.2198L30.7851 54.6119L33.6766 47.2269L34.9973 43.8466L35.0042 43.8208L36.8617 39.0908L37.8562 32.1103L38.1848 29.7827L40.7646 11.6558L41.1841 8.67943L41.3894 7.25924C41.4924 7.0471 41.5844 6.84128 41.6764 6.63544Z" fill="#996633"/>
</svg>
