<svg width="196" height="159" viewBox="0 0 196 159" fill="none" xmlns="http://www.w3.org/2000/svg">
<path d="M117.745 102.862C119.244 103.739 120.932 104.328 122.646 104.566C123.586 104.694 124.53 104.728 125.488 104.69C129.569 104.491 133.578 102.648 136.665 99.8982C147.296 90.3416 149.668 76.7165 148.158 63.5869C148.137 63.4376 148.125 63.3071 148.104 63.1578C147.578 58.5421 146.775 53.3014 145.581 47.894L134.773 51.3209L117.415 56.788C117.423 56.8069 117.413 56.8343 117.429 56.8721C118.324 64.3153 117.357 72.1073 114.855 79.1968C114.221 81.0407 113.457 82.897 112.803 84.7955C111.631 88.2373 110.846 91.7343 111.704 95.2061C112.524 98.4906 114.809 101.194 117.745 102.862ZM122.33 90.296L122.329 90.1382C122.369 89.6671 122.519 89.2382 122.787 88.8705L122.827 88.8074C123.124 88.4039 123.509 88.0973 123.962 87.9423L127.954 86.4688L127.962 86.4878L127.729 90.6691C127.708 91.1318 127.547 91.5881 127.28 91.9558C127.012 92.3236 126.646 92.6218 126.221 92.7874L125.918 92.9216C125.284 93.1795 124.571 93.1554 123.964 92.858L123.928 92.8285C123.673 92.7146 123.432 92.5271 123.209 92.3312L123.024 92.1185C122.526 91.6593 122.298 90.9901 122.33 90.296Z" fill="#A22A2F"/>
<path d="M127.962 86.4878C131.805 83.2451 132.532 58.7936 133.499 52.5876" stroke="#1E0F00" stroke-miterlimit="10"/>
<path d="M122.331 90.2959L122.329 90.1381C122.369 89.667 122.519 89.2381 122.787 88.8703L122.827 88.8073C123.124 88.4038 123.51 88.0972 123.962 87.9422L127.954 86.4687L127.962 86.4877L127.73 90.669C127.708 91.1317 127.548 91.588 127.28 91.9557C127.012 92.3235 126.646 92.6217 126.221 92.7873L125.918 92.9215C125.284 93.1794 124.571 93.1553 123.964 92.8579L123.928 92.8284C123.674 92.7145 123.432 92.527 123.209 92.3311L123.025 92.1184C122.527 91.6592 122.298 90.99 122.331 90.2959Z" stroke="#1E0F00" stroke-miterlimit="10"/>
<path d="M104.7 112.287C106.609 110.921 116.353 103.864 117.745 102.862C119.244 103.739 120.932 104.328 122.646 104.566C123.586 104.694 124.53 104.729 125.487 104.69C125.328 105.916 123.418 118.997 123.072 121.438C121.739 120.783 104.7 112.287 104.7 112.287Z" fill="#A22A2F"/>
<path d="M117.745 102.862C117.869 102.784 117.918 102.74 117.918 102.74L117.745 102.862Z" fill="#A22A2F"/>
<path d="M125.467 104.699C125.489 104.642 125.472 104.602 125.472 104.602L125.467 104.699Z" fill="#A22A2F"/>
<path d="M36.7336 113.069C38.6224 116.31 41.8269 118.788 45.401 120.105C57.6014 124.581 69.5351 120.678 79.4239 113.897C88.4558 107.79 100.05 98.2597 106.818 87.4002C107.721 85.9584 108.522 84.4934 109.222 83.0051C110.239 80.9009 111.016 78.7669 111.58 76.6137C113.005 70.93 113.092 64.5251 109.737 59.7123C109.632 59.5775 109.562 59.4722 109.457 59.3375L109.401 59.3626L98.2835 62.8586L84.3836 71.1215C84.1094 71.6281 83.4876 72.6285 83.3442 72.9185C80.7792 78.382 76.6715 82.92 71.7238 86.38C66.1257 90.2639 59.4586 92.8087 52.7242 93.82C50.1743 94.2016 46.1959 94.7853 43.6731 95.3814L37.7388 98.9158C35.8598 101.017 34.9284 103.876 34.9436 106.724C34.9595 107.374 35.0028 108.035 35.103 108.67C35.2261 109.409 35.4038 110.168 35.668 110.867C35.9762 111.614 36.3223 112.344 36.7336 113.069ZM96.7744 66.7669C96.8317 66.3337 97.0068 65.9616 97.2722 65.6401L97.4682 65.4174C97.8705 64.9447 98.441 64.6467 99.0636 64.6202L99.1015 64.6034C99.3708 64.5975 99.6379 64.6378 99.8944 64.7054L100.132 64.7815C100.716 64.9758 101.225 65.4077 101.477 65.9759L101.535 66.1085C101.703 66.4873 101.776 66.9081 101.702 67.3035L101.689 67.3771C101.632 67.8103 101.455 68.2287 101.151 68.5669L98.5687 71.4326L96.9684 67.9725C96.7817 67.602 96.7002 67.1622 96.7744 66.7669ZM45.6372 106.928L45.6394 106.881C45.6418 106.631 45.6631 106.372 45.7497 106.108L45.8258 105.87C45.8702 105.714 45.9335 105.55 46.0325 105.416C46.2455 105.027 46.5845 104.718 47.0202 104.525L47.1528 104.467C47.5316 104.299 47.9608 104.245 48.3667 104.291L48.4403 104.304C48.6801 104.334 48.8903 104.399 49.0984 104.511C49.2792 104.612 49.46 104.714 49.6112 104.851L52.4958 107.425L49.0167 109.034L48.9788 109.05C48.6 109.218 48.1898 109.264 47.7839 109.217C47.3696 109.151 46.9786 108.985 46.6571 108.719L46.4344 108.523C45.9427 108.129 45.6826 107.542 45.6372 106.928Z" fill="#A22A2F"/>
<path d="M98.4617 71.344C97.3406 79.2494 93.9043 86.6847 88.7892 92.7337" stroke="#1E0F00" stroke-miterlimit="10"/>
<path d="M88.7704 92.7421C86.8554 95.0176 84.7093 97.0783 82.3426 98.8967C75.2594 104.39 61.5067 111.092 52.4499 107.422" stroke="#1E0F00" stroke-miterlimit="10"/>
<path d="M45.6382 106.927L45.6403 106.881C45.6428 106.631 45.6641 106.372 45.7507 106.107L45.8268 105.87C45.8712 105.714 45.9345 105.55 46.0335 105.416C46.2465 105.027 46.5855 104.718 47.0212 104.525L47.1538 104.466C47.5326 104.298 47.9618 104.244 48.3677 104.291L48.4413 104.304C48.6811 104.334 48.8913 104.399 49.0994 104.511C49.2802 104.612 49.4609 104.713 49.6122 104.85L52.4968 107.424L49.0177 109.033L48.9798 109.05C48.601 109.218 48.1908 109.263 47.7849 109.217C47.3706 109.151 46.9796 108.984 46.6581 108.719L46.4354 108.523C45.9437 108.129 45.6836 107.542 45.6382 106.927Z" stroke="#1E0F00" stroke-miterlimit="10"/>
<path d="M96.9504 67.9804C96.7827 67.6016 96.7202 67.1534 96.767 66.7475C96.8243 66.3143 96.9994 65.9422 97.2648 65.6208L97.4607 65.3981C97.8631 64.9253 98.4336 64.6274 99.0562 64.6009L99.0941 64.5841C99.3633 64.5781 99.6305 64.6184 99.887 64.6861L100.125 64.7621C100.709 64.9564 101.217 65.3883 101.469 65.9566L101.528 66.0892C101.696 66.468 101.769 66.8888 101.695 67.2841L101.682 67.3577C101.625 67.791 101.447 68.2093 101.144 68.5476L98.5613 71.4133L96.9504 67.9804Z" stroke="#1E0F00" stroke-miterlimit="10"/>
<path d="M21.9839 118.491C21.9839 118.491 21.7947 100.925 21.7773 99.7088C23.5219 100.681 33.7333 106.037 34.9462 106.678C34.9621 107.328 35.0054 107.989 35.1056 108.624C35.2287 109.362 35.4065 110.122 35.6706 110.821C35.9493 111.604 36.2954 112.334 36.6983 113.039L21.9839 118.491Z" fill="#A22A2F"/>
<path d="M33.4453 101.038L54.0594 54.5244L57.6299 44.2202L113.49 19.4817L124.105 23.345L139.025 28.1795L173.294 39.3078L145.618 48.03L134.81 51.4569L117.452 56.924L109.525 59.4377L109.468 59.4628L98.3509 62.9588L84.451 71.2217L79.824 73.9732L43.7238 95.4437L37.7895 98.9781L34.9561 100.663C34.4595 100.77 33.9524 100.904 33.4453 101.038Z" fill="#B98E4D"/>
</svg>
