<svg width="98" height="107" viewBox="0 0 98 107" fill="none" xmlns="http://www.w3.org/2000/svg">
<path d="M27.7234 15.8514L24.7125 64.3167C24.3429 69.8704 25.6736 75.3959 28.4966 80.2029L28.9714 81.0254C31.6293 85.5463 35.4919 89.1809 40.1328 91.6034L41.6985 92.4159C48.7059 96.0467 56.8774 96.5738 64.261 93.8366L67.2115 92.753C70.3614 91.6019 73.2373 89.8938 75.7678 87.67L76.1556 87.3507C82.028 82.2438 85.5652 74.909 85.7815 67.1076L85.878 63.4758C86.0235 58.1947 84.6943 53.002 82.0158 48.4453C79.3167 43.8529 75.377 40.1674 70.644 37.7505L27.7234 15.8514Z" fill="#77AAA3"/>
</svg>
