<svg width="118" height="103" viewBox="0 0 118 103" fill="none" xmlns="http://www.w3.org/2000/svg">
<path d="M45.6129 38.9836C44.6633 38.5563 43.6189 38.3129 42.5817 38.2805C42.0129 38.2646 41.4476 38.304 40.8793 38.3882C38.4585 38.7673 36.1854 40.1228 34.52 41.9594C28.7911 48.337 28.247 56.6132 29.9858 64.3461C30.0078 64.4338 30.0235 64.5108 30.0455 64.5985C30.654 67.3173 31.4675 70.3911 32.5247 73.5393L38.7507 70.8055L48.7525 66.4369C48.7463 66.4261 48.7508 66.4091 48.7384 66.3876C47.7296 62.0064 47.8088 57.2982 48.8479 52.9109C49.1079 51.7709 49.4448 50.6151 49.7139 49.4412C50.193 47.314 50.4377 45.1786 49.7045 43.1631C49.0056 41.2569 47.4704 39.7905 45.6129 38.9836ZM43.6812 46.7698L43.6924 46.8637C43.6983 47.1472 43.6363 47.4126 43.5002 47.6489L43.4804 47.6891C43.329 47.9487 43.1188 48.1561 42.8589 48.2775L40.5724 49.411L40.5662 49.4003L40.4379 46.8921C40.4213 46.6148 40.4878 46.3324 40.6239 46.0961C40.76 45.8597 40.9595 45.6585 41.2024 45.5325L41.3745 45.4332C41.7358 45.2389 42.1625 45.2078 42.5438 45.3463L42.567 45.3616C42.7259 45.4133 42.882 45.5097 43.0273 45.6123L43.1511 45.7273C43.4774 45.9693 43.6563 46.3538 43.6812 46.7698Z" fill="#A22A2F"/>
<path d="M40.566 49.4001C38.4815 51.5792 39.6099 66.2062 39.4294 69.9687" stroke="#1E0F00" stroke-miterlimit="10"/>
<path d="M43.6812 46.7697L43.6924 46.8637C43.6983 47.1472 43.6363 47.4125 43.5002 47.6489L43.4804 47.689C43.329 47.9486 43.1188 48.1561 42.8589 48.2774L40.5724 49.411L40.5662 49.4002L40.4379 46.892C40.4213 46.6147 40.4878 46.3324 40.6239 46.096C40.76 45.8596 40.9595 45.6584 41.2024 45.5325L41.3745 45.4331C41.7358 45.2389 42.1625 45.2077 42.5438 45.3462L42.567 45.3615C42.7259 45.4132 42.882 45.5096 43.0273 45.6122L43.1511 45.7272C43.4773 45.9693 43.6562 46.3537 43.6812 46.7697Z" stroke="#1E0F00" stroke-miterlimit="10"/>
<path d="M52.7901 32.53C51.7387 33.467 46.3789 38.2974 45.613 38.9834C44.6634 38.5562 43.619 38.3127 42.5817 38.2804C42.013 38.2644 41.4477 38.3039 40.8794 38.3881C40.8961 37.6468 41.1999 29.7246 41.2503 28.2465C42.0869 28.5525 52.7901 32.53 52.7901 32.53Z" fill="#A22A2F"/>
<path d="M45.6132 38.9835C45.5441 39.0378 45.518 39.0672 45.518 39.0672L45.6132 38.9835Z" fill="#A22A2F"/>
<path d="M40.891 38.3816C40.8815 38.4169 40.8945 38.4392 40.8945 38.4392L40.891 38.3816Z" fill="#A22A2F"/>
<path d="M93.2689 27.7234C91.9355 25.9109 89.8664 24.638 87.651 24.0808C80.09 22.1912 73.2231 25.2807 67.7594 29.9559C62.7637 34.1743 56.4587 40.5977 53.1161 47.5056C52.6702 48.4229 52.286 49.3477 51.9635 50.2799C51.4916 51.5996 51.1646 52.9217 50.9656 54.2417C50.4787 57.722 50.8363 61.5468 53.1442 64.2025C53.2155 64.2761 53.2635 64.3345 53.3347 64.4081L53.367 64.3895L59.7729 61.5948L67.5338 55.7799C67.6649 55.4603 67.9718 54.824 68.0388 54.6419C69.2194 51.2202 71.3791 48.2518 74.1084 45.8726C77.1986 43.199 81.0117 41.2558 84.9629 40.2227C86.459 39.8323 88.7941 39.2301 90.2604 38.7135L93.5733 36.2269C94.5597 34.8541 94.9324 33.0895 94.7415 31.3922C94.6904 31.0056 94.6224 30.6145 94.5221 30.242C94.4016 29.8095 94.2471 29.3679 94.0449 28.9681C93.8134 28.5423 93.5604 28.1289 93.2689 27.7234ZM60.4232 59.1679C60.4166 59.4299 60.336 59.6629 60.1983 59.8716L60.0957 60.0169C59.8859 60.3245 59.5648 60.5386 59.1952 60.5942L59.1737 60.6066C59.0135 60.6274 58.8516 60.6204 58.6944 60.5964L58.5478 60.5663C58.1869 60.4877 57.8561 60.2627 57.6697 59.9399L57.6263 59.8646C57.502 59.6494 57.4316 59.4031 57.4505 59.1626L57.4534 59.1179C57.46 58.8559 57.5389 58.5952 57.6982 58.3741L59.0552 56.5003L60.2305 58.4614C60.3655 58.6704 60.4421 58.9274 60.4232 59.1679ZM88.3518 31.9538L88.3535 31.9816C88.368 32.131 88.3718 32.2866 88.3371 32.4501L88.3069 32.5966C88.2904 32.6923 88.2631 32.7941 88.2126 32.8806C88.1105 33.1261 87.928 33.3318 87.6805 33.4747L87.6052 33.5182C87.39 33.6424 87.1375 33.7021 86.8925 33.7001L86.8478 33.6973C86.7029 33.6948 86.5734 33.6692 86.4422 33.6158C86.3279 33.567 86.2136 33.5182 86.1147 33.4463L84.2302 32.0955L86.2021 30.914L86.2236 30.9015C86.4388 30.7773 86.6805 30.7238 86.9255 30.7258C87.1767 30.7386 87.4206 30.813 87.6292 30.9508L87.7745 31.0534C88.0929 31.2569 88.2855 31.5904 88.3518 31.9538Z" fill="#A22A2F"/>
<path d="M59.1254 56.5463C59.289 51.7607 60.8632 47.1075 63.5271 43.1737" stroke="#1E0F00" stroke-miterlimit="10"/>
<path d="M63.5374 43.1674C64.534 41.6882 65.6822 40.3224 66.9773 39.0869C70.8503 35.3588 78.6231 30.4839 84.2581 32.0938" stroke="#1E0F00" stroke-miterlimit="10"/>
<path d="M88.3519 31.954L88.3536 31.9817C88.3681 32.1312 88.3719 32.2868 88.3372 32.4503L88.307 32.5968C88.2905 32.6924 88.2632 32.7943 88.2127 32.8808C88.1106 33.1263 87.9281 33.332 87.6806 33.4749L87.6053 33.5184C87.3901 33.6426 87.1377 33.7023 86.8926 33.7003L86.8479 33.6974C86.7031 33.695 86.5735 33.6694 86.4423 33.616C86.328 33.5672 86.2138 33.5184 86.1148 33.4464L84.2303 32.0956L86.2022 30.9141L86.2237 30.9017C86.4389 30.7775 86.6806 30.724 86.9256 30.726C87.1769 30.7387 87.4207 30.8132 87.6293 30.9509L87.7746 31.0535C88.093 31.2571 88.2856 31.5906 88.3519 31.954Z" stroke="#1E0F00" stroke-miterlimit="10"/>
<path d="M60.2411 58.4553C60.3654 58.6705 60.4313 58.9338 60.4293 59.1788C60.4227 59.4408 60.3421 59.6738 60.2044 59.8825L60.1018 60.0278C59.892 60.3354 59.5709 60.5495 59.2013 60.6051L59.1798 60.6175C59.0196 60.6382 58.8577 60.6313 58.7005 60.6073L58.5539 60.5771C58.193 60.4986 57.8622 60.2736 57.6759 59.9508L57.6324 59.8754C57.5081 59.6603 57.4377 59.414 57.4566 59.1735L57.4595 59.1288C57.4661 58.8668 57.545 58.606 57.7043 58.385L59.0613 56.5112L60.2411 58.4553Z" stroke="#1E0F00" stroke-miterlimit="10"/>
<path d="M101.718 23.5481C101.718 23.5481 102.953 34.0108 103.041 34.7347C101.938 34.2665 95.5071 31.7247 94.7429 31.4199C94.6919 31.0333 94.6239 30.6422 94.5236 30.2697C94.403 29.8372 94.2485 29.3956 94.0464 28.9959C93.8302 28.5469 93.5771 28.1334 93.2918 27.7387L101.718 23.5481Z" fill="#A22A2F"/>
<path d="M95.998 34.6873L86.6763 63.7401L85.2052 70.1127L53.4754 88.4319L46.8987 86.8061L37.6933 84.8761L16.5476 80.4289L32.4939 73.4603L38.7198 70.7265L48.7216 66.3578L53.288 64.3527L53.3203 64.334L59.7263 61.5394L67.4872 55.7244L70.0705 53.7882L90.2262 38.6796L93.5391 36.193L95.1211 35.0071C95.4103 34.9118 95.7042 34.7995 95.998 34.6873Z" fill="#B98E4D"/>
</svg>
