<svg width="315" height="197" viewBox="0 0 315 197" fill="none" xmlns="http://www.w3.org/2000/svg">
<path d="M46.494 36.9803C135.048 -20.0054 201.299 -1.63602 253.392 33.3775C280.127 51.341 311.648 79.7577 314.347 120.81C315.416 137.251 308.694 154.504 299.834 168.256C291.228 181.601 277.377 195.962 260.369 196.013C243.921 196.064 231.445 184.443 220.089 174.091C207.868 162.928 198.04 149.328 185.003 139.027C174.615 130.857 163.056 126.696 149.765 128.574C129.549 131.415 114.323 144.609 99.6063 157.853C73.5848 181.348 31.9302 214.636 8.65853 168.205C-1.16952 148.567 -1.7806 122.84 2.59875 101.527C9.42237 68.188 26.5324 49.8186 46.494 36.9803Z" fill="#996633"/>
<path d="M84.7366 70.573C102.661 55.299 126.493 45.9113 149.459 44.186C171.712 42.5114 194.933 49.0067 212.705 62.8599C224.112 71.7909 234.551 84.1217 239.745 97.7719C245.55 112.995 239.694 134.054 221.056 136.946C220.649 136.997 220.293 137.048 219.885 137.099C208.784 138.266 202.317 131.365 196.664 123.195C190.961 115.025 183.883 105.536 174.971 100.664C168.606 97.163 160.204 94.981 152.871 95.8944C137.594 97.7719 125.118 107.109 112.795 115.583C102.356 122.789 85.6532 135.069 72.7189 127.204C53.9794 115.837 64.0111 92.8497 75.0104 80.2652C77.913 76.8146 81.172 73.5669 84.7366 70.573Z" fill="#FFEFEA"/>
</svg>
