<svg width="548" height="275" viewBox="0 0 548 275" fill="none" xmlns="http://www.w3.org/2000/svg">
<path d="M273.991 0C122.717 0 0.00952148 122.726 0.00952148 274.023H58.9623C58.9623 155.271 155.257 58.9617 273.991 58.9617C392.725 58.9617 489.02 155.271 489.02 274.023L547.973 274.023C548.055 122.726 425.347 0 273.991 0Z" fill="#A22A2F"/>
<path d="M273.991 121.981C357.949 121.981 426.01 190.052 426.01 274.023H489.02C489.02 155.271 392.725 58.9615 273.991 58.9615C155.258 58.9615 58.9624 155.271 58.9624 274.023H121.972C121.972 190.052 190.033 121.981 273.991 121.981Z" fill="#996633"/>
<path d="M273.991 121.981C190.033 121.981 121.972 190.052 121.972 274.023H177.199C177.199 220.527 220.503 177.216 273.991 177.216C327.479 177.216 370.783 220.527 370.783 274.023L426.01 274.023C426.092 190.052 358.032 121.981 273.991 121.981Z" fill="#77AAA3"/>
<path d="M273.991 215.392C306.366 215.392 332.613 241.644 332.613 274.023H370.783C370.783 220.527 327.479 177.216 273.991 177.216C220.503 177.216 177.199 220.527 177.199 274.023H215.37C215.37 241.644 241.617 215.392 273.991 215.392Z" fill="#A22A2F"/>
</svg>
