<svg width="415" height="224" viewBox="0 0 415 224" fill="none" xmlns="http://www.w3.org/2000/svg">
<path d="M258.502 103.741C258.502 82.3676 250.628 63.4422 238.452 51.3988L238.518 49.4137L377.745 1.571C396.009 -4.71539 415 8.84996 415 28.1061V195.258C415 215.705 393.759 229.337 375.164 220.8L236.996 157.341C249.966 145.496 258.502 125.909 258.502 103.741Z" fill="#A22A2F"/>
<path d="M0.164551 195.258V28.1061C0.164551 8.78375 19.156 -4.71542 37.4196 1.57096L176.646 49.4136L176.713 52.0605C164.868 64.0377 157.324 82.7646 157.324 103.741C157.324 125.777 165.728 145.298 178.632 157.209L40.0004 220.8C21.4059 229.337 0.164551 215.771 0.164551 195.258Z" fill="#A22A2F"/>
<path d="M302.507 135.193C315.48 135.193 325.998 124.675 325.998 111.701C325.998 98.7275 315.48 88.2101 302.507 88.2101C289.533 88.2101 279.015 98.7275 279.015 111.701C279.015 124.675 289.533 135.193 302.507 135.193Z" fill="#262A28"/>
<path d="M361.072 99.4909C379.418 99.4909 394.29 84.6184 394.29 66.2723C394.29 47.9262 379.418 33.0538 361.072 33.0538C342.725 33.0538 327.853 47.9262 327.853 66.2723C327.853 84.6184 342.725 99.4909 361.072 99.4909Z" fill="#7C1324"/>
<path d="M109.614 135.193C122.588 135.193 133.105 124.675 133.105 111.701C133.105 98.7275 122.588 88.2101 109.614 88.2101C96.6399 88.2101 86.1226 98.7275 86.1226 111.701C86.1226 124.675 96.6399 135.193 109.614 135.193Z" fill="#262A28"/>
<path d="M52.9698 99.4909C71.3159 99.4909 86.1884 84.6185 86.1884 66.2723C86.1884 47.9262 71.3159 33.0538 52.9698 33.0538C34.6237 33.0538 19.7512 47.9262 19.7512 66.2723C19.7512 84.6185 34.6237 99.4909 52.9698 99.4909Z" fill="#7C1324"/>
<path d="M153.817 103.741C153.817 81.3088 161.956 61.3247 174.595 48.5534C183.793 39.2231 195.373 33.6646 207.946 33.6646C220.188 33.6646 231.503 38.9584 240.569 47.8255C253.605 60.663 262.009 80.9118 262.009 103.741C262.009 127.431 252.943 148.408 238.981 161.047C230.18 169.053 219.46 173.818 207.88 173.818C196.233 173.818 185.381 168.987 176.58 160.848C162.816 148.143 153.817 127.299 153.817 103.741Z" fill="#C1574B"/>
</svg>
