<svg width="191" height="219" viewBox="0 0 191 219" fill="none" xmlns="http://www.w3.org/2000/svg">
<path d="M179.472 123.509C177.041 126.031 174.421 128.394 172.018 130.814C169.408 133.43 166.797 136.046 164.196 138.663C160.992 141.879 157.788 145.086 154.593 148.303C151.04 151.866 147.497 155.43 143.944 158.993C140.288 162.66 136.641 166.326 132.984 169.984C129.479 173.5 125.964 177.026 122.458 180.543C119.339 183.675 116.219 186.798 113.1 189.93C110.612 192.424 108.134 194.909 105.646 197.404C104.044 199.007 102.442 200.62 105.425 206.285C100.35 202.711 99.8689 203.199 103.964 207.748L44.0569 207.748C42.0496 202.891 40.0423 198.042 38.0351 193.185C33.6436 182.56 29.252 171.945 24.8699 161.32C20.5255 150.817 16.1906 140.314 11.8462 129.821C9.40541 123.885 6.87039 117.986 4.34479 112.088C2.13019 106.921 -0.414246 101.67 0.0569458 95.8837C0.386795 91.7107 2.51657 87.6971 6.86096 86.6281C10.7813 85.6622 14.6448 86.4012 18.2428 89.0864C20.1275 90.4931 23.4846 93.483 26.0385 95.7993C29.808 99.2221 33.5211 102.682 37.2058 106.171C38.8173 107.69 40.4287 109.219 42.0402 110.738C42.2946 110.981 44.0758 112.276 44.0569 112.651C44.3302 105.955 44.5941 99.2596 44.8674 92.564C45.3857 79.7356 45.904 66.9165 46.4223 54.0881C46.8181 44.3261 46.9783 34.5266 47.5249 24.7739C47.817 19.5788 49.6641 13.5959 54.131 10.4545C57.5613 8.04443 61.934 8.11945 65.4396 10.3419C69.7369 13.0802 71.6217 17.5251 72.6866 22.242C75.7493 37.4242 79.2833 52.522 82.5062 67.6667C82.6005 68.0887 83.1188 69.3547 82.9586 69.7767C87.6328 57.3327 92.4296 44.9262 97.0002 32.4541C99.1205 26.6776 101.231 20.901 103.352 15.1151C104.417 12.1987 105.5 9.25413 107.197 6.65656C109.835 2.60547 114.585 -0.489111 119.589 0.0641627C124.584 0.617436 128.269 4.70604 129.418 9.40417C130.408 13.4178 129.88 17.6376 129.343 21.7356C126.968 40.078 124.593 58.4111 122.218 76.7535C122.134 77.3912 122.237 79.6231 121.785 80.1201C130.313 70.8082 138.767 61.3932 147.201 51.9594C151.743 46.8768 156.62 41.5597 161.912 37.8087C164.492 35.9794 165.973 35.1736 168.31 34.686C170.648 34.1983 173.277 34.5641 175.086 36.1207C177.131 37.8837 177.791 40.847 177.414 43.5196C177.037 46.1922 175.793 48.6491 174.568 51.0498C165.691 68.4075 156.813 85.7653 147.964 103.133C146.815 105.383 145.674 107.634 144.525 109.884C143.893 111.132 143.252 112.369 142.621 113.617C142.593 113.673 142.47 114.02 142.404 114.048C145.231 113.129 148.059 112.21 150.886 111.291C157.011 109.294 163.127 107.24 169.281 105.327C175.812 103.292 188.414 100.841 190.664 105.768C192.205 108.802 188.035 114.048 186.518 116.005C186.518 116.005 181.706 121.192 179.472 123.509Z" fill="#FFEFEA"/>
<path d="M132.686 184.244L25.0205 184.244L25.0205 218.363H132.686V184.244Z" fill="#0B3C49"/>
<path d="M99.3252 201.94H112.472V215.086C105.215 215.092 99.3252 209.202 99.3252 201.94Z" fill="black"/>
<path d="M112.472 215.092V201.94H125.619C125.625 209.202 119.735 215.092 112.472 215.092Z" fill="#A22A2F"/>
<path d="M112.472 201.94V188.793C119.735 188.793 125.619 194.677 125.619 201.94H112.472Z" fill="black"/>
<path d="M99.3247 201.94C99.3247 194.677 105.215 188.793 112.471 188.793V201.94H99.3247Z" fill="#A22A2F"/>
</svg>
