<svg width="11838" height="403" viewBox="0 0 11838 403" fill="none" xmlns="http://www.w3.org/2000/svg">
<g clip-path="url(#clip0)">
<path d="M296.528 308.509C298.959 311.031 301.579 313.394 303.982 315.814C306.592 318.43 309.203 321.046 311.804 323.663C315.008 326.879 318.212 330.086 321.407 333.303C324.96 336.866 328.503 340.43 332.056 343.993C335.712 347.66 339.359 351.326 343.016 354.984C346.521 358.5 350.036 362.026 353.542 365.543C356.661 368.675 359.781 371.798 362.9 374.93C365.388 377.424 367.866 379.909 370.354 382.404C371.956 384.007 373.558 385.62 370.575 391.285C375.65 387.711 376.131 388.199 372.036 392.748H431.943C433.95 387.891 435.958 383.042 437.965 378.185C442.356 367.56 446.748 356.945 451.13 346.32C455.474 335.817 459.809 325.314 464.154 314.821C466.595 308.885 469.13 302.986 471.655 297.088C473.87 291.921 476.414 286.67 475.943 280.884C475.613 276.711 473.483 272.697 469.139 271.628C465.219 270.662 461.355 271.401 457.757 274.086C455.872 275.493 452.515 278.483 449.962 280.799C446.192 284.222 442.479 287.682 438.794 291.171C437.183 292.69 435.571 294.219 433.96 295.738C433.705 295.981 431.924 297.276 431.943 297.651C431.67 290.955 431.406 284.26 431.133 277.564C430.614 264.736 430.096 251.917 429.578 239.088C429.182 229.326 429.022 219.527 428.475 209.774C428.183 204.579 426.336 198.596 421.869 195.454C418.439 193.044 414.066 193.119 410.56 195.342C406.263 198.08 404.378 202.525 403.313 207.242C400.251 222.424 396.717 237.522 393.494 252.667C393.4 253.089 392.881 254.355 393.041 254.777C388.367 242.333 383.57 229.926 379 217.454C376.879 211.678 374.769 205.901 372.648 200.115C371.583 197.199 370.5 194.254 368.803 191.657C366.165 187.605 361.415 184.511 356.411 185.064C351.416 185.617 347.731 189.706 346.582 194.404C345.592 198.418 346.12 202.638 346.657 206.736C349.032 225.078 351.407 243.411 353.782 261.754C353.866 262.391 353.763 264.623 354.215 265.12C345.687 255.808 337.233 246.393 328.799 236.959C324.257 231.877 319.38 226.56 314.088 222.809C311.508 220.979 310.027 220.174 307.69 219.686C305.352 219.198 302.723 219.564 300.914 221.121C298.869 222.884 298.209 225.847 298.586 228.52C298.963 231.192 300.207 233.649 301.432 236.05C310.309 253.408 319.187 270.765 328.036 288.133C329.185 290.383 330.326 292.634 331.475 294.884C332.107 296.132 332.748 297.369 333.379 298.617C333.407 298.673 333.53 299.02 333.596 299.048C330.769 298.129 327.941 297.21 325.114 296.291C318.989 294.294 312.873 292.24 306.719 290.327C300.188 288.292 287.586 285.841 285.336 290.768C283.795 293.802 287.965 299.048 289.482 301.005C289.482 301.005 294.294 306.192 296.528 308.509Z" fill="#FFEFEA"/>
<path d="M343.314 369.244H450.979V403.363H343.314V369.244Z" fill="#0B3C49"/>
<path d="M376.675 386.94H363.528V400.086C370.785 400.092 376.675 394.202 376.675 386.94Z" fill="black"/>
<path d="M363.528 400.092V386.94H350.381C350.376 394.202 356.265 400.092 363.528 400.092Z" fill="#A22A2F"/>
<path d="M363.528 386.94V373.793C356.265 373.793 350.381 379.677 350.381 386.94H363.528Z" fill="black"/>
<path d="M376.675 386.94C376.675 379.677 370.785 373.793 363.529 373.793V386.94H376.675Z" fill="#A22A2F"/>
<path d="M781.472 308.509C779.041 311.031 776.421 313.394 774.018 315.814C771.408 318.43 768.797 321.046 766.196 323.663C762.992 326.879 759.788 330.086 756.593 333.303C753.04 336.866 749.497 340.43 745.944 343.993C742.288 347.66 738.641 351.326 734.984 354.984C731.479 358.5 727.964 362.026 724.458 365.543C721.339 368.675 718.219 371.798 715.1 374.93C712.612 377.424 710.134 379.909 707.646 382.404C706.044 384.007 704.442 385.62 707.425 391.285C702.35 387.711 701.869 388.199 705.964 392.748H646.057C644.05 387.891 642.042 383.042 640.035 378.185C635.644 367.56 631.252 356.945 626.87 346.32C622.526 335.817 618.191 325.314 613.846 314.821C611.405 308.885 608.87 302.986 606.345 297.088C604.13 291.921 601.586 286.67 602.057 280.884C602.387 276.711 604.517 272.697 608.861 271.628C612.781 270.662 616.645 271.401 620.243 274.086C622.128 275.493 625.485 278.483 628.038 280.799C631.808 284.222 635.521 287.682 639.206 291.171C640.817 292.69 642.429 294.219 644.04 295.738C644.295 295.981 646.076 297.276 646.057 297.651C646.33 290.955 646.594 284.26 646.867 277.564C647.386 264.736 647.904 251.917 648.422 239.088C648.818 229.326 648.978 219.527 649.525 209.774C649.817 204.579 651.664 198.596 656.131 195.454C659.561 193.044 663.934 193.119 667.44 195.342C671.737 198.08 673.622 202.525 674.687 207.242C677.749 222.424 681.283 237.522 684.506 252.667C684.6 253.089 685.119 254.355 684.959 254.777C689.633 242.333 694.43 229.926 699 217.454C701.121 211.678 703.231 205.901 705.352 200.115C706.417 197.199 707.5 194.254 709.197 191.657C711.835 187.605 716.585 184.511 721.589 185.064C726.584 185.617 730.269 189.706 731.418 194.404C732.408 198.418 731.88 202.638 731.343 206.736C728.968 225.078 726.593 243.411 724.218 261.754C724.134 262.391 724.237 264.623 723.785 265.12C732.313 255.808 740.767 246.393 749.201 236.959C753.743 231.877 758.62 226.56 763.912 222.809C766.492 220.979 767.973 220.174 770.31 219.686C772.648 219.198 775.277 219.564 777.086 221.121C779.131 222.884 779.791 225.847 779.414 228.52C779.037 231.192 777.793 233.649 776.568 236.05C767.691 253.408 758.813 270.765 749.964 288.133C748.815 290.383 747.674 292.634 746.525 294.884C745.893 296.132 745.252 297.369 744.621 298.617C744.593 298.673 744.47 299.02 744.404 299.048C747.231 298.129 750.059 297.21 752.886 296.291C759.011 294.294 765.127 292.24 771.281 290.327C777.812 288.292 790.414 285.841 792.664 290.768C794.205 293.802 790.035 299.048 788.518 301.005C788.518 301.005 783.706 306.192 781.472 308.509Z" fill="#FFEFEA"/>
<path d="M734.686 369.244H627.021V403.363H734.686V369.244Z" fill="#0B3C49"/>
<path d="M701.325 386.94H714.472V400.086C707.215 400.092 701.325 394.202 701.325 386.94Z" fill="black"/>
<path d="M714.472 400.092V386.94H727.619C727.624 394.202 721.735 400.092 714.472 400.092Z" fill="#A22A2F"/>
<path d="M714.472 386.94V373.793C721.735 373.793 727.619 379.677 727.619 386.94H714.472Z" fill="black"/>
<path d="M701.325 386.94C701.325 379.677 707.215 373.793 714.471 373.793V386.94H701.325Z" fill="#A22A2F"/>
</g>
<g clip-path="url(#clip1)">
<path d="M1372.53 388.509C1374.96 391.031 1377.58 393.394 1379.98 395.814C1382.59 398.43 1385.2 401.046 1387.8 403.663C1391.01 406.879 1394.21 410.086 1397.41 413.303C1400.96 416.866 1404.5 420.43 1408.06 423.993C1411.71 427.66 1415.36 431.326 1419.02 434.984C1422.52 438.5 1426.04 442.026 1429.54 445.543C1432.66 448.675 1435.78 451.798 1438.9 454.93C1441.39 457.424 1443.87 459.909 1446.35 462.404C1447.96 464.007 1449.56 465.62 1446.57 471.285C1451.65 467.711 1452.13 468.199 1448.04 472.748H1507.94C1509.95 467.891 1511.96 463.042 1513.96 458.185C1518.36 447.56 1522.75 436.945 1527.13 426.32C1531.47 415.817 1535.81 405.314 1540.15 394.821C1542.59 388.885 1545.13 382.986 1547.66 377.088C1549.87 371.921 1552.41 366.67 1551.94 360.884C1551.61 356.711 1549.48 352.697 1545.14 351.628C1541.22 350.662 1537.36 351.401 1533.76 354.086C1531.87 355.493 1528.52 358.483 1525.96 360.799C1522.19 364.222 1518.48 367.682 1514.79 371.171C1513.18 372.69 1511.57 374.219 1509.96 375.738C1509.71 375.981 1507.92 377.276 1507.94 377.651C1507.67 370.955 1507.41 364.26 1507.13 357.564C1506.61 344.736 1506.1 331.917 1505.58 319.088C1505.18 309.326 1505.02 299.527 1504.48 289.774C1504.18 284.579 1502.34 278.596 1497.87 275.454C1494.44 273.044 1490.07 273.119 1486.56 275.342C1482.26 278.08 1480.38 282.525 1479.31 287.242C1476.25 302.424 1472.72 317.522 1469.49 332.667C1469.4 333.089 1468.88 334.355 1469.04 334.777C1464.37 322.333 1459.57 309.926 1455 297.454C1452.88 291.678 1450.77 285.901 1448.65 280.115C1447.58 277.199 1446.5 274.254 1444.8 271.657C1442.16 267.605 1437.41 264.511 1432.41 265.064C1427.42 265.617 1423.73 269.706 1422.58 274.404C1421.59 278.418 1422.12 282.638 1422.66 286.736C1425.03 305.078 1427.41 323.411 1429.78 341.754C1429.87 342.391 1429.76 344.623 1430.22 345.12C1421.69 335.808 1413.23 326.393 1404.8 316.959C1400.26 311.877 1395.38 306.56 1390.09 302.809C1387.51 300.979 1386.03 300.174 1383.69 299.686C1381.35 299.198 1378.72 299.564 1376.91 301.121C1374.87 302.884 1374.21 305.847 1374.59 308.52C1374.96 311.192 1376.21 313.649 1377.43 316.05C1386.31 333.408 1395.19 350.765 1404.04 368.133C1405.19 370.383 1406.33 372.634 1407.48 374.884C1408.11 376.132 1408.75 377.369 1409.38 378.617C1409.41 378.673 1409.53 379.02 1409.6 379.048C1406.77 378.129 1403.94 377.21 1401.11 376.291C1394.99 374.294 1388.87 372.24 1382.72 370.327C1376.19 368.292 1363.59 365.841 1361.34 370.768C1359.8 373.802 1363.97 379.048 1365.48 381.005C1365.48 381.005 1370.29 386.192 1372.53 388.509Z" fill="#FFEFEA"/>
<path d="M1857.47 388.509C1855.04 391.031 1852.42 393.394 1850.02 395.814C1847.41 398.43 1844.8 401.046 1842.2 403.663C1838.99 406.879 1835.79 410.086 1832.59 413.303C1829.04 416.866 1825.5 420.43 1821.94 423.993C1818.29 427.66 1814.64 431.326 1810.98 434.984C1807.48 438.5 1803.96 442.026 1800.46 445.543C1797.34 448.675 1794.22 451.798 1791.1 454.93C1788.61 457.424 1786.13 459.909 1783.65 462.404C1782.04 464.007 1780.44 465.62 1783.43 471.285C1778.35 467.711 1777.87 468.199 1781.96 472.748H1722.06C1720.05 467.891 1718.04 463.042 1716.04 458.185C1711.64 447.56 1707.25 436.945 1702.87 426.32C1698.53 415.817 1694.19 405.314 1689.85 394.821C1687.41 388.885 1684.87 382.986 1682.34 377.088C1680.13 371.921 1677.59 366.67 1678.06 360.884C1678.39 356.711 1680.52 352.697 1684.86 351.628C1688.78 350.662 1692.64 351.401 1696.24 354.086C1698.13 355.493 1701.48 358.483 1704.04 360.799C1707.81 364.222 1711.52 367.682 1715.21 371.171C1716.82 372.69 1718.43 374.219 1720.04 375.738C1720.29 375.981 1722.08 377.276 1722.06 377.651C1722.33 370.955 1722.59 364.26 1722.87 357.564C1723.39 344.736 1723.9 331.917 1724.42 319.088C1724.82 309.326 1724.98 299.527 1725.52 289.774C1725.82 284.579 1727.66 278.596 1732.13 275.454C1735.56 273.044 1739.93 273.119 1743.44 275.342C1747.74 278.08 1749.62 282.525 1750.69 287.242C1753.75 302.424 1757.28 317.522 1760.51 332.667C1760.6 333.089 1761.12 334.355 1760.96 334.777C1765.63 322.333 1770.43 309.926 1775 297.454C1777.12 291.678 1779.23 285.901 1781.35 280.115C1782.42 277.199 1783.5 274.254 1785.2 271.657C1787.84 267.605 1792.59 264.511 1797.59 265.064C1802.58 265.617 1806.27 269.706 1807.42 274.404C1808.41 278.418 1807.88 282.638 1807.34 286.736C1804.97 305.078 1802.59 323.411 1800.22 341.754C1800.13 342.391 1800.24 344.623 1799.78 345.12C1808.31 335.808 1816.77 326.393 1825.2 316.959C1829.74 311.877 1834.62 306.56 1839.91 302.809C1842.49 300.979 1843.97 300.174 1846.31 299.686C1848.65 299.198 1851.28 299.564 1853.09 301.121C1855.13 302.884 1855.79 305.847 1855.41 308.52C1855.04 311.192 1853.79 313.649 1852.57 316.05C1843.69 333.408 1834.81 350.765 1825.96 368.133C1824.81 370.383 1823.67 372.634 1822.52 374.884C1821.89 376.132 1821.25 377.369 1820.62 378.617C1820.59 378.673 1820.47 379.02 1820.4 379.048C1823.23 378.129 1826.06 377.21 1828.89 376.291C1835.01 374.294 1841.13 372.24 1847.28 370.327C1853.81 368.292 1866.41 365.841 1868.66 370.768C1870.2 373.802 1866.03 379.048 1864.52 381.005C1864.52 381.005 1859.71 386.192 1857.47 388.509Z" fill="#FFEFEA"/>
</g>
<g clip-path="url(#clip2)">
<path d="M2449.53 469.509C2451.96 472.031 2454.58 474.394 2456.98 476.814C2459.59 479.43 2462.2 482.046 2464.8 484.663C2468.01 487.879 2471.21 491.086 2474.41 494.303C2477.96 497.866 2481.5 501.43 2485.06 504.993C2488.71 508.66 2492.36 512.326 2496.02 515.984C2499.52 519.5 2503.04 523.026 2506.54 526.543C2509.66 529.675 2512.78 532.798 2515.9 535.93C2518.39 538.424 2520.87 540.909 2523.35 543.404C2524.96 545.007 2526.56 546.62 2523.57 552.285C2528.65 548.711 2529.13 549.199 2525.04 553.748H2584.94C2586.95 548.891 2588.96 544.042 2590.96 539.185C2595.36 528.56 2599.75 517.945 2604.13 507.32C2608.47 496.817 2612.81 486.314 2617.15 475.821C2619.59 469.885 2622.13 463.986 2624.66 458.088C2626.87 452.921 2629.41 447.67 2628.94 441.884C2628.61 437.711 2626.48 433.697 2622.14 432.628C2618.22 431.662 2614.36 432.401 2610.76 435.086C2608.87 436.493 2605.52 439.483 2602.96 441.799C2599.19 445.222 2595.48 448.682 2591.79 452.171C2590.18 453.69 2588.57 455.219 2586.96 456.738C2586.71 456.981 2584.92 458.276 2584.94 458.651C2584.67 451.955 2584.41 445.26 2584.13 438.564C2583.61 425.736 2583.1 412.917 2582.58 400.088C2582.18 390.326 2582.02 380.527 2581.48 370.774C2581.18 365.579 2579.34 359.596 2574.87 356.454C2571.44 354.044 2567.07 354.119 2563.56 356.342C2559.26 359.08 2557.38 363.525 2556.31 368.242C2553.25 383.424 2549.72 398.522 2546.49 413.667C2546.4 414.089 2545.88 415.355 2546.04 415.777C2541.37 403.333 2536.57 390.926 2532 378.454C2529.88 372.678 2527.77 366.901 2525.65 361.115C2524.58 358.199 2523.5 355.254 2521.8 352.657C2519.16 348.605 2514.41 345.511 2509.41 346.064C2504.42 346.617 2500.73 350.706 2499.58 355.404C2498.59 359.418 2499.12 363.638 2499.66 367.736C2502.03 386.078 2504.41 404.411 2506.78 422.754C2506.87 423.391 2506.76 425.623 2507.22 426.12C2498.69 416.808 2490.23 407.393 2481.8 397.959C2477.26 392.877 2472.38 387.56 2467.09 383.809C2464.51 381.979 2463.03 381.174 2460.69 380.686C2458.35 380.198 2455.72 380.564 2453.91 382.121C2451.87 383.884 2451.21 386.847 2451.59 389.52C2451.96 392.192 2453.21 394.649 2454.43 397.05C2463.31 414.408 2472.19 431.765 2481.04 449.133C2482.19 451.383 2483.33 453.634 2484.48 455.884C2485.11 457.132 2485.75 458.369 2486.38 459.617C2486.41 459.673 2486.53 460.02 2486.6 460.048C2483.77 459.129 2480.94 458.21 2478.11 457.291C2471.99 455.294 2465.87 453.24 2459.72 451.327C2453.19 449.292 2440.59 446.841 2438.34 451.768C2436.8 454.802 2440.97 460.048 2442.48 462.005C2442.48 462.005 2447.29 467.192 2449.53 469.509Z" fill="#FFEFEA"/>
<path d="M2934.47 469.509C2932.04 472.031 2929.42 474.394 2927.02 476.814C2924.41 479.43 2921.8 482.046 2919.2 484.663C2915.99 487.879 2912.79 491.086 2909.59 494.303C2906.04 497.866 2902.5 501.43 2898.94 504.993C2895.29 508.66 2891.64 512.326 2887.98 515.984C2884.48 519.5 2880.96 523.026 2877.46 526.543C2874.34 529.675 2871.22 532.798 2868.1 535.93C2865.61 538.424 2863.13 540.909 2860.65 543.404C2859.04 545.007 2857.44 546.62 2860.43 552.285C2855.35 548.711 2854.87 549.199 2858.96 553.748H2799.06C2797.05 548.891 2795.04 544.042 2793.04 539.185C2788.64 528.56 2784.25 517.945 2779.87 507.32C2775.53 496.817 2771.19 486.314 2766.85 475.821C2764.41 469.885 2761.87 463.986 2759.34 458.088C2757.13 452.921 2754.59 447.67 2755.06 441.884C2755.39 437.711 2757.52 433.697 2761.86 432.628C2765.78 431.662 2769.64 432.401 2773.24 435.086C2775.13 436.493 2778.48 439.483 2781.04 441.799C2784.81 445.222 2788.52 448.682 2792.21 452.171C2793.82 453.69 2795.43 455.219 2797.04 456.738C2797.29 456.981 2799.08 458.276 2799.06 458.651C2799.33 451.955 2799.59 445.26 2799.87 438.564C2800.39 425.736 2800.9 412.917 2801.42 400.088C2801.82 390.326 2801.98 380.527 2802.52 370.774C2802.82 365.579 2804.66 359.596 2809.13 356.454C2812.56 354.044 2816.93 354.119 2820.44 356.342C2824.74 359.08 2826.62 363.525 2827.69 368.242C2830.75 383.424 2834.28 398.522 2837.51 413.667C2837.6 414.089 2838.12 415.355 2837.96 415.777C2842.63 403.333 2847.43 390.926 2852 378.454C2854.12 372.678 2856.23 366.901 2858.35 361.115C2859.42 358.199 2860.5 355.254 2862.2 352.657C2864.84 348.605 2869.59 345.511 2874.59 346.064C2879.58 346.617 2883.27 350.706 2884.42 355.404C2885.41 359.418 2884.88 363.638 2884.34 367.736C2881.97 386.078 2879.59 404.411 2877.22 422.754C2877.13 423.391 2877.24 425.623 2876.78 426.12C2885.31 416.808 2893.77 407.393 2902.2 397.959C2906.74 392.877 2911.62 387.56 2916.91 383.809C2919.49 381.979 2920.97 381.174 2923.31 380.686C2925.65 380.198 2928.28 380.564 2930.09 382.121C2932.13 383.884 2932.79 386.847 2932.41 389.52C2932.04 392.192 2930.79 394.649 2929.57 397.05C2920.69 414.408 2911.81 431.765 2902.96 449.133C2901.81 451.383 2900.67 453.634 2899.52 455.884C2898.89 457.132 2898.25 458.369 2897.62 459.617C2897.59 459.673 2897.47 460.02 2897.4 460.048C2900.23 459.129 2903.06 458.21 2905.89 457.291C2912.01 455.294 2918.13 453.24 2924.28 451.327C2930.81 449.292 2943.41 446.841 2945.66 451.768C2947.2 454.802 2943.03 460.048 2941.52 462.005C2941.52 462.005 2936.71 467.192 2934.47 469.509Z" fill="#FFEFEA"/>
</g>
<g clip-path="url(#clip3)">
<path d="M4601.53 388.509C4603.96 391.031 4606.58 393.394 4608.98 395.814C4611.59 398.43 4614.2 401.046 4616.8 403.663C4620.01 406.879 4623.21 410.086 4626.41 413.303C4629.96 416.866 4633.5 420.43 4637.06 423.993C4640.71 427.66 4644.36 431.326 4648.02 434.984C4651.52 438.5 4655.04 442.026 4658.54 445.543C4661.66 448.675 4664.78 451.798 4667.9 454.93C4670.39 457.424 4672.87 459.909 4675.35 462.404C4676.96 464.007 4678.56 465.62 4675.57 471.285C4680.65 467.711 4681.13 468.199 4677.04 472.748H4736.94C4738.95 467.891 4740.96 463.042 4742.96 458.185C4747.36 447.56 4751.75 436.945 4756.13 426.32C4760.47 415.817 4764.81 405.314 4769.15 394.821C4771.59 388.885 4774.13 382.986 4776.66 377.088C4778.87 371.921 4781.41 366.67 4780.94 360.884C4780.61 356.711 4778.48 352.697 4774.14 351.628C4770.22 350.662 4766.36 351.401 4762.76 354.086C4760.87 355.493 4757.52 358.483 4754.96 360.799C4751.19 364.222 4747.48 367.682 4743.79 371.171C4742.18 372.69 4740.57 374.219 4738.96 375.738C4738.71 375.981 4736.92 377.276 4736.94 377.651C4736.67 370.955 4736.41 364.26 4736.13 357.564C4735.61 344.736 4735.1 331.917 4734.58 319.088C4734.18 309.326 4734.02 299.527 4733.48 289.774C4733.18 284.579 4731.34 278.596 4726.87 275.454C4723.44 273.044 4719.07 273.119 4715.56 275.342C4711.26 278.08 4709.38 282.525 4708.31 287.242C4705.25 302.424 4701.72 317.522 4698.49 332.667C4698.4 333.089 4697.88 334.355 4698.04 334.777C4693.37 322.333 4688.57 309.926 4684 297.454C4681.88 291.678 4679.77 285.901 4677.65 280.115C4676.58 277.199 4675.5 274.254 4673.8 271.657C4671.16 267.605 4666.41 264.511 4661.41 265.064C4656.42 265.617 4652.73 269.706 4651.58 274.404C4650.59 278.418 4651.12 282.638 4651.66 286.736C4654.03 305.078 4656.41 323.411 4658.78 341.754C4658.87 342.391 4658.76 344.623 4659.22 345.12C4650.69 335.808 4642.23 326.393 4633.8 316.959C4629.26 311.877 4624.38 306.56 4619.09 302.809C4616.51 300.979 4615.03 300.174 4612.69 299.686C4610.35 299.198 4607.72 299.564 4605.91 301.121C4603.87 302.884 4603.21 305.847 4603.59 308.52C4603.96 311.192 4605.21 313.649 4606.43 316.05C4615.31 333.408 4624.19 350.765 4633.04 368.133C4634.19 370.383 4635.33 372.634 4636.48 374.884C4637.11 376.132 4637.75 377.369 4638.38 378.617C4638.41 378.673 4638.53 379.02 4638.6 379.048C4635.77 378.129 4632.94 377.21 4630.11 376.291C4623.99 374.294 4617.87 372.24 4611.72 370.327C4605.19 368.292 4592.59 365.841 4590.34 370.768C4588.8 373.802 4592.97 379.048 4594.48 381.005C4594.48 381.005 4599.29 386.192 4601.53 388.509Z" fill="#FFEFEA"/>
<path d="M5086.47 388.509C5084.04 391.031 5081.42 393.394 5079.02 395.814C5076.41 398.43 5073.8 401.046 5071.2 403.663C5067.99 406.879 5064.79 410.086 5061.59 413.303C5058.04 416.866 5054.5 420.43 5050.94 423.993C5047.29 427.66 5043.64 431.326 5039.98 434.984C5036.48 438.5 5032.96 442.026 5029.46 445.543C5026.34 448.675 5023.22 451.798 5020.1 454.93C5017.61 457.424 5015.13 459.909 5012.65 462.404C5011.04 464.007 5009.44 465.62 5012.43 471.285C5007.35 467.711 5006.87 468.199 5010.96 472.748H4951.06C4949.05 467.891 4947.04 463.042 4945.04 458.185C4940.64 447.56 4936.25 436.945 4931.87 426.32C4927.53 415.817 4923.19 405.314 4918.85 394.821C4916.41 388.885 4913.87 382.986 4911.34 377.088C4909.13 371.921 4906.59 366.67 4907.06 360.884C4907.39 356.711 4909.52 352.697 4913.86 351.628C4917.78 350.662 4921.64 351.401 4925.24 354.086C4927.13 355.493 4930.48 358.483 4933.04 360.799C4936.81 364.222 4940.52 367.682 4944.21 371.171C4945.82 372.69 4947.43 374.219 4949.04 375.738C4949.29 375.981 4951.08 377.276 4951.06 377.651C4951.33 370.955 4951.59 364.26 4951.87 357.564C4952.39 344.736 4952.9 331.917 4953.42 319.088C4953.82 309.326 4953.98 299.527 4954.52 289.774C4954.82 284.579 4956.66 278.596 4961.13 275.454C4964.56 273.044 4968.93 273.119 4972.44 275.342C4976.74 278.08 4978.62 282.525 4979.69 287.242C4982.75 302.424 4986.28 317.522 4989.51 332.667C4989.6 333.089 4990.12 334.355 4989.96 334.777C4994.63 322.333 4999.43 309.926 5004 297.454C5006.12 291.678 5008.23 285.901 5010.35 280.115C5011.42 277.199 5012.5 274.254 5014.2 271.657C5016.84 267.605 5021.59 264.511 5026.59 265.064C5031.58 265.617 5035.27 269.706 5036.42 274.404C5037.41 278.418 5036.88 282.638 5036.34 286.736C5033.97 305.078 5031.59 323.411 5029.22 341.754C5029.13 342.391 5029.24 344.623 5028.78 345.12C5037.31 335.808 5045.77 326.393 5054.2 316.959C5058.74 311.877 5063.62 306.56 5068.91 302.809C5071.49 300.979 5072.97 300.174 5075.31 299.686C5077.65 299.198 5080.28 299.564 5082.09 301.121C5084.13 302.884 5084.79 305.847 5084.41 308.52C5084.04 311.192 5082.79 313.649 5081.57 316.05C5072.69 333.408 5063.81 350.765 5054.96 368.133C5053.81 370.383 5052.67 372.634 5051.52 374.884C5050.89 376.132 5050.25 377.369 5049.62 378.617C5049.59 378.673 5049.47 379.02 5049.4 379.048C5052.23 378.129 5055.06 377.21 5057.89 376.291C5064.01 374.294 5070.13 372.24 5076.28 370.327C5082.81 368.292 5095.41 365.841 5097.66 370.768C5099.2 373.802 5095.03 379.048 5093.52 381.005C5093.52 381.005 5088.71 386.192 5086.47 388.509Z" fill="#FFEFEA"/>
<rect x="4810" y="-23.0862" width="61" height="157" rx="10" transform="rotate(-56.5796 4810 -23.0862)" fill="#77AAA3"/>
<rect x="4509.4" y="-74" width="61" height="157" rx="10" transform="rotate(46.2464 4509.4 -74)" fill="#A22A2F"/>
<rect x="5255.86" y="-59.5464" width="61" height="157" rx="10" transform="rotate(24.8797 5255.86 -59.5464)" fill="#FFD7CA"/>
<rect x="4657.87" y="-53.3708" width="61" height="157" rx="10" transform="rotate(16.0368 4657.87 -53.3708)" fill="#E46A3F"/>
</g>
<g clip-path="url(#clip4)">
<path d="M5677.53 308.509C5679.96 311.031 5682.58 313.394 5684.98 315.814C5687.59 318.43 5690.2 321.046 5692.8 323.663C5696.01 326.879 5699.21 330.086 5702.41 333.303C5705.96 336.866 5709.5 340.43 5713.06 343.993C5716.71 347.66 5720.36 351.326 5724.02 354.984C5727.52 358.5 5731.04 362.026 5734.54 365.543C5737.66 368.675 5740.78 371.798 5743.9 374.93C5746.39 377.424 5748.87 379.909 5751.35 382.404C5752.96 384.007 5754.56 385.62 5751.57 391.285C5756.65 387.711 5757.13 388.199 5753.04 392.748H5812.94C5814.95 387.891 5816.96 383.042 5818.96 378.185C5823.36 367.56 5827.75 356.945 5832.13 346.32C5836.47 335.817 5840.81 325.314 5845.15 314.821C5847.59 308.885 5850.13 302.986 5852.66 297.088C5854.87 291.921 5857.41 286.67 5856.94 280.884C5856.61 276.711 5854.48 272.697 5850.14 271.628C5846.22 270.662 5842.36 271.401 5838.76 274.086C5836.87 275.493 5833.52 278.483 5830.96 280.799C5827.19 284.222 5823.48 287.682 5819.79 291.171C5818.18 292.69 5816.57 294.219 5814.96 295.738C5814.71 295.981 5812.92 297.276 5812.94 297.651C5812.67 290.955 5812.41 284.26 5812.13 277.564C5811.61 264.736 5811.1 251.917 5810.58 239.088C5810.18 229.326 5810.02 219.527 5809.48 209.774C5809.18 204.579 5807.34 198.596 5802.87 195.454C5799.44 193.044 5795.07 193.119 5791.56 195.342C5787.26 198.08 5785.38 202.525 5784.31 207.242C5781.25 222.424 5777.72 237.522 5774.49 252.667C5774.4 253.089 5773.88 254.355 5774.04 254.777C5769.37 242.333 5764.57 229.926 5760 217.454C5757.88 211.678 5755.77 205.901 5753.65 200.115C5752.58 197.199 5751.5 194.254 5749.8 191.657C5747.16 187.605 5742.41 184.511 5737.41 185.064C5732.42 185.617 5728.73 189.706 5727.58 194.404C5726.59 198.418 5727.12 202.638 5727.66 206.736C5730.03 225.078 5732.41 243.411 5734.78 261.754C5734.87 262.391 5734.76 264.623 5735.22 265.12C5726.69 255.808 5718.23 246.393 5709.8 236.959C5705.26 231.877 5700.38 226.56 5695.09 222.809C5692.51 220.979 5691.03 220.174 5688.69 219.686C5686.35 219.198 5683.72 219.564 5681.91 221.121C5679.87 222.884 5679.21 225.847 5679.59 228.52C5679.96 231.192 5681.21 233.649 5682.43 236.05C5691.31 253.408 5700.19 270.765 5709.04 288.133C5710.19 290.383 5711.33 292.634 5712.48 294.884C5713.11 296.132 5713.75 297.369 5714.38 298.617C5714.41 298.673 5714.53 299.02 5714.6 299.048C5711.77 298.129 5708.94 297.21 5706.11 296.291C5699.99 294.294 5693.87 292.24 5687.72 290.327C5681.19 288.292 5668.59 285.841 5666.34 290.768C5664.8 293.802 5668.97 299.048 5670.48 301.005C5670.48 301.005 5675.29 306.192 5677.53 308.509Z" fill="#FFEFEA"/>
<path d="M5724.31 369.244H5831.98V403.363H5724.31V369.244Z" fill="#0B3C49"/>
<path d="M5757.67 386.94H5744.53L5744.53 400.086C5751.78 400.092 5757.67 394.202 5757.67 386.94Z" fill="black"/>
<path d="M5744.53 400.092V386.94H5731.38C5731.38 394.202 5737.27 400.092 5744.53 400.092Z" fill="#A22A2F"/>
<path d="M5744.53 386.94V373.793C5737.27 373.793 5731.38 379.677 5731.38 386.94H5744.53Z" fill="black"/>
<path d="M5757.68 386.94C5757.68 379.677 5751.79 373.793 5744.53 373.793L5744.53 386.94H5757.68Z" fill="#A22A2F"/>
<path d="M6162.47 308.509C6160.04 311.031 6157.42 313.394 6155.02 315.814C6152.41 318.43 6149.8 321.046 6147.2 323.663C6143.99 326.879 6140.79 330.086 6137.59 333.303C6134.04 336.866 6130.5 340.43 6126.94 343.993C6123.29 347.66 6119.64 351.326 6115.98 354.984C6112.48 358.5 6108.96 362.026 6105.46 365.543C6102.34 368.675 6099.22 371.798 6096.1 374.93C6093.61 377.424 6091.13 379.909 6088.65 382.404C6087.04 384.007 6085.44 385.62 6088.43 391.285C6083.35 387.711 6082.87 388.199 6086.96 392.748H6027.06C6025.05 387.891 6023.04 383.042 6021.04 378.185C6016.64 367.56 6012.25 356.945 6007.87 346.32C6003.53 335.817 5999.19 325.314 5994.85 314.821C5992.41 308.885 5989.87 302.986 5987.34 297.088C5985.13 291.921 5982.59 286.67 5983.06 280.884C5983.39 276.711 5985.52 272.697 5989.86 271.628C5993.78 270.662 5997.64 271.401 6001.24 274.086C6003.13 275.493 6006.48 278.483 6009.04 280.799C6012.81 284.222 6016.52 287.682 6020.21 291.171C6021.82 292.69 6023.43 294.219 6025.04 295.738C6025.29 295.981 6027.08 297.276 6027.06 297.651C6027.33 290.955 6027.59 284.26 6027.87 277.564C6028.39 264.736 6028.9 251.917 6029.42 239.088C6029.82 229.326 6029.98 219.527 6030.52 209.774C6030.82 204.579 6032.66 198.596 6037.13 195.454C6040.56 193.044 6044.93 193.119 6048.44 195.342C6052.74 198.08 6054.62 202.525 6055.69 207.242C6058.75 222.424 6062.28 237.522 6065.51 252.667C6065.6 253.089 6066.12 254.355 6065.96 254.777C6070.63 242.333 6075.43 229.926 6080 217.454C6082.12 211.678 6084.23 205.901 6086.35 200.115C6087.42 197.199 6088.5 194.254 6090.2 191.657C6092.84 187.605 6097.59 184.511 6102.59 185.064C6107.58 185.617 6111.27 189.706 6112.42 194.404C6113.41 198.418 6112.88 202.638 6112.34 206.736C6109.97 225.078 6107.59 243.411 6105.22 261.754C6105.13 262.391 6105.24 264.623 6104.78 265.12C6113.31 255.808 6121.77 246.393 6130.2 236.959C6134.74 231.877 6139.62 226.56 6144.91 222.809C6147.49 220.979 6148.97 220.174 6151.31 219.686C6153.65 219.198 6156.28 219.564 6158.09 221.121C6160.13 222.884 6160.79 225.847 6160.41 228.52C6160.04 231.192 6158.79 233.649 6157.57 236.05C6148.69 253.408 6139.81 270.765 6130.96 288.133C6129.81 290.383 6128.67 292.634 6127.52 294.884C6126.89 296.132 6126.25 297.369 6125.62 298.617C6125.59 298.673 6125.47 299.02 6125.4 299.048C6128.23 298.129 6131.06 297.21 6133.89 296.291C6140.01 294.294 6146.13 292.24 6152.28 290.327C6158.81 288.292 6171.41 285.841 6173.66 290.768C6175.2 293.802 6171.03 299.048 6169.52 301.005C6169.52 301.005 6164.71 306.192 6162.47 308.509Z" fill="#FFEFEA"/>
<path d="M6115.69 369.244H6008.02V403.363H6115.69V369.244Z" fill="#0B3C49"/>
<path d="M6082.33 386.94H6095.47L6095.47 400.086C6088.22 400.092 6082.33 394.202 6082.33 386.94Z" fill="black"/>
<path d="M6095.47 400.092V386.94H6108.62C6108.62 394.202 6102.73 400.092 6095.47 400.092Z" fill="#A22A2F"/>
<path d="M6095.47 386.94V373.793C6102.73 373.793 6108.62 379.677 6108.62 386.94H6095.47Z" fill="black"/>
<path d="M6082.32 386.94C6082.32 379.677 6088.21 373.793 6095.47 373.793L6095.47 386.94H6082.32Z" fill="#A22A2F"/>
<rect x="5876" y="78.9138" width="61" height="157" rx="10" transform="rotate(-56.5796 5876 78.9138)" fill="#77AAA3"/>
<rect x="5575.4" y="114" width="61" height="157" rx="10" transform="rotate(46.2464 5575.4 114)" fill="#A22A2F"/>
<rect x="6298.05" y="88" width="61" height="157" rx="10" transform="rotate(24.8797 6298.05 88)" fill="#FFD7CA"/>
<rect x="5723.87" y="25" width="61" height="157" rx="10" transform="rotate(16.0368 5723.87 25)" fill="#E46A3F"/>
</g>
<g clip-path="url(#clip5)">
<path d="M6753.53 308.509C6755.96 311.031 6758.58 313.394 6760.98 315.814C6763.59 318.43 6766.2 321.046 6768.8 323.663C6772.01 326.879 6775.21 330.086 6778.41 333.303C6781.96 336.866 6785.5 340.43 6789.06 343.993C6792.71 347.66 6796.36 351.326 6800.02 354.984C6803.52 358.5 6807.04 362.026 6810.54 365.543C6813.66 368.675 6816.78 371.798 6819.9 374.93C6822.39 377.424 6824.87 379.909 6827.35 382.404C6828.96 384.007 6830.56 385.62 6827.57 391.285C6832.65 387.711 6833.13 388.199 6829.04 392.748H6888.94C6890.95 387.891 6892.96 383.042 6894.96 378.185C6899.36 367.56 6903.75 356.945 6908.13 346.32C6912.47 335.817 6916.81 325.314 6921.15 314.821C6923.59 308.885 6926.13 302.986 6928.66 297.088C6930.87 291.921 6933.41 286.67 6932.94 280.884C6932.61 276.711 6930.48 272.697 6926.14 271.628C6922.22 270.662 6918.36 271.401 6914.76 274.086C6912.87 275.493 6909.52 278.483 6906.96 280.799C6903.19 284.222 6899.48 287.682 6895.79 291.171C6894.18 292.69 6892.57 294.219 6890.96 295.738C6890.71 295.981 6888.92 297.276 6888.94 297.651C6888.67 290.955 6888.41 284.26 6888.13 277.564C6887.61 264.736 6887.1 251.917 6886.58 239.088C6886.18 229.326 6886.02 219.527 6885.48 209.774C6885.18 204.579 6883.34 198.596 6878.87 195.454C6875.44 193.044 6871.07 193.119 6867.56 195.342C6863.26 198.08 6861.38 202.525 6860.31 207.242C6857.25 222.424 6853.72 237.522 6850.49 252.667C6850.4 253.089 6849.88 254.355 6850.04 254.777C6845.37 242.333 6840.57 229.926 6836 217.454C6833.88 211.678 6831.77 205.901 6829.65 200.115C6828.58 197.199 6827.5 194.254 6825.8 191.657C6823.16 187.605 6818.41 184.511 6813.41 185.064C6808.42 185.617 6804.73 189.706 6803.58 194.404C6802.59 198.418 6803.12 202.638 6803.66 206.736C6806.03 225.078 6808.41 243.411 6810.78 261.754C6810.87 262.391 6810.76 264.623 6811.22 265.12C6802.69 255.808 6794.23 246.393 6785.8 236.959C6781.26 231.877 6776.38 226.56 6771.09 222.809C6768.51 220.979 6767.03 220.174 6764.69 219.686C6762.35 219.198 6759.72 219.564 6757.91 221.121C6755.87 222.884 6755.21 225.847 6755.59 228.52C6755.96 231.192 6757.21 233.649 6758.43 236.05C6767.31 253.408 6776.19 270.765 6785.04 288.133C6786.19 290.383 6787.33 292.634 6788.48 294.884C6789.11 296.132 6789.75 297.369 6790.38 298.617C6790.41 298.673 6790.53 299.02 6790.6 299.048C6787.77 298.129 6784.94 297.21 6782.11 296.291C6775.99 294.294 6769.87 292.24 6763.72 290.327C6757.19 288.292 6744.59 285.841 6742.34 290.768C6740.8 293.802 6744.97 299.048 6746.48 301.005C6746.48 301.005 6751.29 306.192 6753.53 308.509Z" fill="#FFEFEA"/>
<path d="M6800.31 369.244H6907.98V403.363H6800.31V369.244Z" fill="#0B3C49"/>
<path d="M6833.67 386.94H6820.53L6820.53 400.086C6827.78 400.092 6833.67 394.202 6833.67 386.94Z" fill="black"/>
<path d="M6820.53 400.092V386.94H6807.38C6807.38 394.202 6813.27 400.092 6820.53 400.092Z" fill="#A22A2F"/>
<path d="M6820.53 386.94V373.793C6813.27 373.793 6807.38 379.677 6807.38 386.94H6820.53Z" fill="black"/>
<path d="M6833.68 386.94C6833.68 379.677 6827.79 373.793 6820.53 373.793L6820.53 386.94H6833.68Z" fill="#A22A2F"/>
<path d="M7238.47 308.509C7236.04 311.031 7233.42 313.394 7231.02 315.814C7228.41 318.43 7225.8 321.046 7223.2 323.663C7219.99 326.879 7216.79 330.086 7213.59 333.303C7210.04 336.866 7206.5 340.43 7202.94 343.993C7199.29 347.66 7195.64 351.326 7191.98 354.984C7188.48 358.5 7184.96 362.026 7181.46 365.543C7178.34 368.675 7175.22 371.798 7172.1 374.93C7169.61 377.424 7167.13 379.909 7164.65 382.404C7163.04 384.007 7161.44 385.62 7164.43 391.285C7159.35 387.711 7158.87 388.199 7162.96 392.748H7103.06C7101.05 387.891 7099.04 383.042 7097.04 378.185C7092.64 367.56 7088.25 356.945 7083.87 346.32C7079.53 335.817 7075.19 325.314 7070.85 314.821C7068.41 308.885 7065.87 302.986 7063.34 297.088C7061.13 291.921 7058.59 286.67 7059.06 280.884C7059.39 276.711 7061.52 272.697 7065.86 271.628C7069.78 270.662 7073.64 271.401 7077.24 274.086C7079.13 275.493 7082.48 278.483 7085.04 280.799C7088.81 284.222 7092.52 287.682 7096.21 291.171C7097.82 292.69 7099.43 294.219 7101.04 295.738C7101.29 295.981 7103.08 297.276 7103.06 297.651C7103.33 290.955 7103.59 284.26 7103.87 277.564C7104.39 264.736 7104.9 251.917 7105.42 239.088C7105.82 229.326 7105.98 219.527 7106.52 209.774C7106.82 204.579 7108.66 198.596 7113.13 195.454C7116.56 193.044 7120.93 193.119 7124.44 195.342C7128.74 198.08 7130.62 202.525 7131.69 207.242C7134.75 222.424 7138.28 237.522 7141.51 252.667C7141.6 253.089 7142.12 254.355 7141.96 254.777C7146.63 242.333 7151.43 229.926 7156 217.454C7158.12 211.678 7160.23 205.901 7162.35 200.115C7163.42 197.199 7164.5 194.254 7166.2 191.657C7168.84 187.605 7173.59 184.511 7178.59 185.064C7183.58 185.617 7187.27 189.706 7188.42 194.404C7189.41 198.418 7188.88 202.638 7188.34 206.736C7185.97 225.078 7183.59 243.411 7181.22 261.754C7181.13 262.391 7181.24 264.623 7180.78 265.12C7189.31 255.808 7197.77 246.393 7206.2 236.959C7210.74 231.877 7215.62 226.56 7220.91 222.809C7223.49 220.979 7224.97 220.174 7227.31 219.686C7229.65 219.198 7232.28 219.564 7234.09 221.121C7236.13 222.884 7236.79 225.847 7236.41 228.52C7236.04 231.192 7234.79 233.649 7233.57 236.05C7224.69 253.408 7215.81 270.765 7206.96 288.133C7205.81 290.383 7204.67 292.634 7203.52 294.884C7202.89 296.132 7202.25 297.369 7201.62 298.617C7201.59 298.673 7201.47 299.02 7201.4 299.048C7204.23 298.129 7207.06 297.21 7209.89 296.291C7216.01 294.294 7222.13 292.24 7228.28 290.327C7234.81 288.292 7247.41 285.841 7249.66 290.768C7251.2 293.802 7247.03 299.048 7245.52 301.005C7245.52 301.005 7240.71 306.192 7238.47 308.509Z" fill="#FFEFEA"/>
<path d="M7191.69 369.244H7084.02V403.363H7191.69V369.244Z" fill="#0B3C49"/>
<path d="M7158.33 386.94H7171.47L7171.47 400.086C7164.22 400.092 7158.33 394.202 7158.33 386.94Z" fill="black"/>
<path d="M7171.47 400.092V386.94H7184.62C7184.62 394.202 7178.73 400.092 7171.47 400.092Z" fill="#A22A2F"/>
<path d="M7171.47 386.94V373.793C7178.73 373.793 7184.62 379.677 7184.62 386.94H7171.47Z" fill="black"/>
<path d="M7158.32 386.94C7158.32 379.677 7164.21 373.793 7171.47 373.793L7171.47 386.94H7158.32Z" fill="#A22A2F"/>
<rect x="6948" y="198.914" width="61" height="157" rx="10" transform="rotate(-56.5796 6948 198.914)" fill="#77AAA3"/>
<rect x="7138.25" y="-94" width="61" height="157" rx="10" transform="rotate(3.01263 7138.25 -94)" fill="#77AAA3"/>
<rect x="6570" y="52.2188" width="61" height="157" rx="10" transform="rotate(-15.4194 6570 52.2188)" fill="#77AAA3"/>
<rect x="6828.93" y="-28.8403" width="61" height="157" rx="10" transform="rotate(-42.2316 6828.93 -28.8403)" fill="#FFD7CA"/>
<rect x="6647.4" y="234" width="61" height="157" rx="10" transform="rotate(46.2464 6647.4 234)" fill="#A22A2F"/>
<rect x="7390" y="-42.9009" width="61" height="157" rx="10" transform="rotate(-32.8614 7390 -42.9009)" fill="#A22A2F"/>
<rect x="7274.4" y="66" width="61" height="157" rx="10" transform="rotate(46.2464 7274.4 66)" fill="#A22A2F"/>
<rect x="6778.4" y="-70" width="61" height="157" rx="10" transform="rotate(46.2464 6778.4 -70)" fill="#A22A2F"/>
<rect x="6492.73" y="-70" width="61" height="157" rx="10" transform="rotate(7.21932 6492.73 -70)" fill="#E46A3F"/>
<rect x="7370.05" y="208" width="61" height="157" rx="10" transform="rotate(24.8797 7370.05 208)" fill="#FFD7CA"/>
<rect x="6795.87" y="145" width="61" height="157" rx="10" transform="rotate(16.0368 6795.87 145)" fill="#E46A3F"/>
<rect x="7303.65" y="88.5605" width="61" height="157" rx="10" transform="rotate(-45.4681 7303.65 88.5605)" fill="#E46A3F"/>
</g>
<g clip-path="url(#clip6)">
<path d="M7829.53 388.509C7831.96 391.031 7834.58 393.394 7836.98 395.814C7839.59 398.43 7842.2 401.046 7844.8 403.663C7848.01 406.879 7851.21 410.086 7854.41 413.303C7857.96 416.866 7861.5 420.43 7865.06 423.993C7868.71 427.66 7872.36 431.326 7876.02 434.984C7879.52 438.5 7883.04 442.026 7886.54 445.543C7889.66 448.675 7892.78 451.798 7895.9 454.93C7898.39 457.424 7900.87 459.909 7903.35 462.404C7904.96 464.007 7906.56 465.62 7903.57 471.285C7908.65 467.711 7909.13 468.199 7905.04 472.748H7964.94C7966.95 467.891 7968.96 463.042 7970.96 458.185C7975.36 447.56 7979.75 436.945 7984.13 426.32C7988.47 415.817 7992.81 405.314 7997.15 394.821C7999.59 388.885 8002.13 382.986 8004.66 377.088C8006.87 371.921 8009.41 366.67 8008.94 360.884C8008.61 356.711 8006.48 352.697 8002.14 351.628C7998.22 350.662 7994.36 351.401 7990.76 354.086C7988.87 355.493 7985.52 358.483 7982.96 360.799C7979.19 364.222 7975.48 367.682 7971.79 371.171C7970.18 372.69 7968.57 374.219 7966.96 375.738C7966.71 375.981 7964.92 377.276 7964.94 377.651C7964.67 370.955 7964.41 364.26 7964.13 357.564C7963.61 344.736 7963.1 331.917 7962.58 319.088C7962.18 309.326 7962.02 299.527 7961.48 289.774C7961.18 284.579 7959.34 278.596 7954.87 275.454C7951.44 273.044 7947.07 273.119 7943.56 275.342C7939.26 278.08 7937.38 282.525 7936.31 287.242C7933.25 302.424 7929.72 317.522 7926.49 332.667C7926.4 333.089 7925.88 334.355 7926.04 334.777C7921.37 322.333 7916.57 309.926 7912 297.454C7909.88 291.678 7907.77 285.901 7905.65 280.115C7904.58 277.199 7903.5 274.254 7901.8 271.657C7899.16 267.605 7894.41 264.511 7889.41 265.064C7884.42 265.617 7880.73 269.706 7879.58 274.404C7878.59 278.418 7879.12 282.638 7879.66 286.736C7882.03 305.078 7884.41 323.411 7886.78 341.754C7886.87 342.391 7886.76 344.623 7887.22 345.12C7878.69 335.808 7870.23 326.393 7861.8 316.959C7857.26 311.877 7852.38 306.56 7847.09 302.809C7844.51 300.979 7843.03 300.174 7840.69 299.686C7838.35 299.198 7835.72 299.564 7833.91 301.121C7831.87 302.884 7831.21 305.847 7831.59 308.52C7831.96 311.192 7833.21 313.649 7834.43 316.05C7843.31 333.408 7852.19 350.765 7861.04 368.133C7862.19 370.383 7863.33 372.634 7864.48 374.884C7865.11 376.132 7865.75 377.369 7866.38 378.617C7866.41 378.673 7866.53 379.02 7866.6 379.048C7863.77 378.129 7860.94 377.21 7858.11 376.291C7851.99 374.294 7845.87 372.24 7839.72 370.327C7833.19 368.292 7820.59 365.841 7818.34 370.768C7816.8 373.802 7820.97 379.048 7822.48 381.005C7822.48 381.005 7827.29 386.192 7829.53 388.509Z" fill="#FFEFEA"/>
<path d="M8314.47 388.509C8312.04 391.031 8309.42 393.394 8307.02 395.814C8304.41 398.43 8301.8 401.046 8299.2 403.663C8295.99 406.879 8292.79 410.086 8289.59 413.303C8286.04 416.866 8282.5 420.43 8278.94 423.993C8275.29 427.66 8271.64 431.326 8267.98 434.984C8264.48 438.5 8260.96 442.026 8257.46 445.543C8254.34 448.675 8251.22 451.798 8248.1 454.93C8245.61 457.424 8243.13 459.909 8240.65 462.404C8239.04 464.007 8237.44 465.62 8240.43 471.285C8235.35 467.711 8234.87 468.199 8238.96 472.748H8179.06C8177.05 467.891 8175.04 463.042 8173.04 458.185C8168.64 447.56 8164.25 436.945 8159.87 426.32C8155.53 415.817 8151.19 405.314 8146.85 394.821C8144.41 388.885 8141.87 382.986 8139.34 377.088C8137.13 371.921 8134.59 366.67 8135.06 360.884C8135.39 356.711 8137.52 352.697 8141.86 351.628C8145.78 350.662 8149.64 351.401 8153.24 354.086C8155.13 355.493 8158.48 358.483 8161.04 360.799C8164.81 364.222 8168.52 367.682 8172.21 371.171C8173.82 372.69 8175.43 374.219 8177.04 375.738C8177.29 375.981 8179.08 377.276 8179.06 377.651C8179.33 370.955 8179.59 364.26 8179.87 357.564C8180.39 344.736 8180.9 331.917 8181.42 319.088C8181.82 309.326 8181.98 299.527 8182.52 289.774C8182.82 284.579 8184.66 278.596 8189.13 275.454C8192.56 273.044 8196.93 273.119 8200.44 275.342C8204.74 278.08 8206.62 282.525 8207.69 287.242C8210.75 302.424 8214.28 317.522 8217.51 332.667C8217.6 333.089 8218.12 334.355 8217.96 334.777C8222.63 322.333 8227.43 309.926 8232 297.454C8234.12 291.678 8236.23 285.901 8238.35 280.115C8239.42 277.199 8240.5 274.254 8242.2 271.657C8244.84 267.605 8249.59 264.511 8254.59 265.064C8259.58 265.617 8263.27 269.706 8264.42 274.404C8265.41 278.418 8264.88 282.638 8264.34 286.736C8261.97 305.078 8259.59 323.411 8257.22 341.754C8257.13 342.391 8257.24 344.623 8256.78 345.12C8265.31 335.808 8273.77 326.393 8282.2 316.959C8286.74 311.877 8291.62 306.56 8296.91 302.809C8299.49 300.979 8300.97 300.174 8303.31 299.686C8305.65 299.198 8308.28 299.564 8310.09 301.121C8312.13 302.884 8312.79 305.847 8312.41 308.52C8312.04 311.192 8310.79 313.649 8309.57 316.05C8300.69 333.408 8291.81 350.765 8282.96 368.133C8281.81 370.383 8280.67 372.634 8279.52 374.884C8278.89 376.132 8278.25 377.369 8277.62 378.617C8277.59 378.673 8277.47 379.02 8277.4 379.048C8280.23 378.129 8283.06 377.21 8285.89 376.291C8292.01 374.294 8298.13 372.24 8304.28 370.327C8310.81 368.292 8323.41 365.841 8325.66 370.768C8327.2 373.802 8323.03 379.048 8321.52 381.005C8321.52 381.005 8316.71 386.192 8314.47 388.509Z" fill="#FFEFEA"/>
<rect x="8020" y="332.914" width="61" height="157" rx="10" transform="rotate(-56.5796 8020 332.914)" fill="#77AAA3"/>
<rect x="8210.25" y="40" width="61" height="157" rx="10" transform="rotate(3.01263 8210.25 40)" fill="#77AAA3"/>
<rect x="7642" y="186.219" width="61" height="157" rx="10" transform="rotate(-15.4194 7642 186.219)" fill="#77AAA3"/>
<rect x="7900.93" y="105.16" width="61" height="157" rx="10" transform="rotate(-42.2316 7900.93 105.16)" fill="#FFD7CA"/>
<rect x="7719.4" y="368" width="61" height="157" rx="10" transform="rotate(46.2464 7719.4 368)" fill="#A22A2F"/>
<rect x="8462" y="91.0991" width="61" height="157" rx="10" transform="rotate(-32.8614 8462 91.0991)" fill="#A22A2F"/>
<rect x="8346.4" y="200" width="61" height="157" rx="10" transform="rotate(46.2464 8346.4 200)" fill="#A22A2F"/>
<rect x="7850.4" y="64" width="61" height="157" rx="10" transform="rotate(46.2464 7850.4 64)" fill="#A22A2F"/>
<rect x="7564.73" y="64" width="61" height="157" rx="10" transform="rotate(7.21932 7564.73 64)" fill="#E46A3F"/>
<rect x="8442.05" y="342" width="61" height="157" rx="10" transform="rotate(24.8797 8442.05 342)" fill="#FFD7CA"/>
<rect x="7867.87" y="279" width="61" height="157" rx="10" transform="rotate(16.0368 7867.87 279)" fill="#E46A3F"/>
<rect x="8375.65" y="222.561" width="61" height="157" rx="10" transform="rotate(-45.4681 8375.65 222.561)" fill="#E46A3F"/>
</g>
<g clip-path="url(#clip7)">
<rect x="9096" y="450.914" width="61" height="157" rx="10" transform="rotate(-56.5796 9096 450.914)" fill="#77AAA3"/>
<rect x="9286.25" y="158" width="61" height="157" rx="10" transform="rotate(3.01263 9286.25 158)" fill="#77AAA3"/>
<rect x="8718" y="304.219" width="61" height="157" rx="10" transform="rotate(-15.4194 8718 304.219)" fill="#77AAA3"/>
<rect x="8976.93" y="223.16" width="61" height="157" rx="10" transform="rotate(-42.2316 8976.93 223.16)" fill="#FFD7CA"/>
<rect x="9538" y="209.099" width="61" height="157" rx="10" transform="rotate(-32.8614 9538 209.099)" fill="#A22A2F"/>
<rect x="9422.4" y="318" width="61" height="157" rx="10" transform="rotate(46.2464 9422.4 318)" fill="#A22A2F"/>
<rect x="8926.4" y="182" width="61" height="157" rx="10" transform="rotate(46.2464 8926.4 182)" fill="#A22A2F"/>
<rect x="8640.73" y="182" width="61" height="157" rx="10" transform="rotate(7.21932 8640.73 182)" fill="#E46A3F"/>
<rect x="8943.87" y="397" width="61" height="157" rx="10" transform="rotate(16.0368 8943.87 397)" fill="#E46A3F"/>
<rect x="9451.65" y="340.561" width="61" height="157" rx="10" transform="rotate(-45.4681 9451.65 340.561)" fill="#E46A3F"/>
</g>
<g clip-path="url(#clip8)">
<rect x="10362.3" y="277" width="61" height="157" rx="10" transform="rotate(3.01263 10362.3 277)" fill="#77AAA3"/>
<rect x="10052.9" y="342.16" width="61" height="157" rx="10" transform="rotate(-42.2316 10052.9 342.16)" fill="#FFD7CA"/>
<rect x="10614" y="328.099" width="61" height="157" rx="10" transform="rotate(-32.8614 10614 328.099)" fill="#A22A2F"/>
<rect x="10002.4" y="301" width="61" height="157" rx="10" transform="rotate(46.2464 10002.4 301)" fill="#A22A2F"/>
<rect x="9716.73" y="301" width="61" height="157" rx="10" transform="rotate(7.21932 9716.73 301)" fill="#E46A3F"/>
</g>
<defs>
<clipPath id="clip0">
<rect width="1077" height="403" fill="white"/>
</clipPath>
<clipPath id="clip1">
<rect width="1076" height="403" fill="white" transform="translate(1077)"/>
</clipPath>
<clipPath id="clip2">
<rect width="1077" height="403" fill="white" transform="translate(2153)"/>
</clipPath>
<clipPath id="clip3">
<rect width="1076" height="403" fill="white" transform="translate(4306)"/>
</clipPath>
<clipPath id="clip4">
<rect width="1076" height="403" fill="white" transform="translate(5382)"/>
</clipPath>
<clipPath id="clip5">
<rect width="1076" height="403" fill="white" transform="translate(6458)"/>
</clipPath>
<clipPath id="clip6">
<rect width="1076" height="403" fill="white" transform="translate(7534)"/>
</clipPath>
<clipPath id="clip7">
<rect width="1076" height="403" fill="white" transform="translate(8610)"/>
</clipPath>
<clipPath id="clip8">
<rect width="1076" height="403" fill="white" transform="translate(9686)"/>
</clipPath>
</defs>
</svg>
