<svg width="1953" height="245" viewBox="0 0 1953 245" fill="none" xmlns="http://www.w3.org/2000/svg">
<g clip-path="url(#clip0)">
<path d="M242.379 91.797L153.139 22.7333L50.847 101.844L93 131.5L105.5 226.5L242.379 216.457V91.797Z" fill="#FFD7CA"/>
<path d="M242.379 91.797L412.954 0L441.134 101.844L416.5 124L391.5 229.5L242.379 222.204V91.797Z" fill="#662527"/>
<path d="M29.4753 90.1365V119.612H0C0 103.321 13.2016 90.1365 29.4753 90.1365Z" fill="black"/>
<path d="M0 119.595H29.4753V149.071C13.2016 149.071 0 135.869 0 119.595Z" fill="#662527"/>
<path d="M29.4753 119.595H58.9507C58.9507 135.869 45.7657 149.071 29.4753 149.071V119.595Z" fill="black"/>
<path d="M29.4753 90.1365C45.7491 90.1365 58.9507 103.338 58.9507 119.612H29.4753V90.1365Z" fill="#662527"/>
<path d="M429.51 119.595H458.985V149.071C442.711 149.071 429.51 135.869 429.51 119.595Z" fill="black"/>
<path d="M458.968 149.071V119.595H488.444C488.444 135.869 475.259 149.071 458.968 149.071Z" fill="#662527"/>
<path d="M458.968 119.595V90.1365C475.242 90.1365 488.444 103.321 488.444 119.612H458.968V119.595Z" fill="black"/>
<path d="M429.51 119.595C429.51 103.321 442.711 90.1198 458.985 90.1198V119.595H429.51Z" fill="#662527"/>
</g>
<path d="M103 208H397L387.5 245H107L103 208Z" fill="#E46A3F"/>
<g clip-path="url(#clip1)">
<path d="M730.379 91.797L641.139 22.7333L538.847 101.844L581 131.5L593.5 226.5L730.379 216.457V91.797Z" fill="#662527"/>
<path d="M730.379 91.797L900.954 0L929.134 101.844L904.5 124L879.5 229.5L730.379 222.204V91.797Z" fill="#77AAA3"/>
<path d="M517.475 90.1365V119.612H488C488 103.321 501.202 90.1365 517.475 90.1365Z" fill="black"/>
<path d="M488 119.595H517.475V149.071C501.202 149.071 488 135.869 488 119.595Z" fill="#E46A3F"/>
<path d="M517.475 119.595H546.951C546.951 135.869 533.766 149.071 517.475 149.071V119.595Z" fill="black"/>
<path d="M517.475 90.1365C533.749 90.1365 546.951 103.338 546.951 119.612H517.475V90.1365Z" fill="#FFD7CA"/>
<path d="M917.51 119.595H946.985V149.071C930.711 149.071 917.51 135.869 917.51 119.595Z" fill="black"/>
<path d="M946.969 149.071V119.595H976.444C976.444 135.869 963.259 149.071 946.969 149.071Z" fill="#0B3C49"/>
<path d="M946.969 119.595V90.1365C963.242 90.1365 976.444 103.321 976.444 119.612H946.969V119.595Z" fill="black"/>
<path d="M917.51 119.595C917.51 103.321 930.711 90.1198 946.985 90.1198V119.595H917.51Z" fill="#CC2E2E"/>
</g>
<path d="M591 208H885L875.5 245H595L591 208Z" fill="#E46A3F"/>
<g clip-path="url(#clip2)">
<path d="M1218.38 91.797L1129.14 22.7333L1026.85 101.844L1069 131.5L1081.5 226.5L1218.38 216.457V91.797Z" fill="#FFD7CA"/>
<path d="M1218.38 91.797L1388.95 0L1417.13 101.844L1392.5 124L1367.5 229.5L1218.38 222.204V91.797Z" fill="#CC2E2E"/>
<path d="M1005.48 90.1365V119.612H976C976 103.321 989.202 90.1365 1005.48 90.1365Z" fill="black"/>
<path d="M976 119.595H1005.48V149.071C989.202 149.071 976 135.869 976 119.595Z" fill="#662527"/>
<path d="M1005.48 119.595H1034.95C1034.95 135.869 1021.77 149.071 1005.48 149.071V119.595Z" fill="black"/>
<path d="M1005.48 90.1365C1021.75 90.1365 1034.95 103.338 1034.95 119.612H1005.48V90.1365Z" fill="#77AAA3"/>
<path d="M1405.51 119.595H1434.99V149.071C1418.71 149.071 1405.51 135.869 1405.51 119.595Z" fill="black"/>
<path d="M1434.97 149.071V119.595H1464.44C1464.44 135.869 1451.26 149.071 1434.97 149.071Z" fill="#E46A3F"/>
<path d="M1434.97 119.595V90.1365C1451.24 90.1365 1464.44 103.321 1464.44 119.612H1434.97V119.595Z" fill="black"/>
<path d="M1405.51 119.595C1405.51 103.321 1418.71 90.1198 1434.99 90.1198V119.595H1405.51Z" fill="#662527"/>
</g>
<path d="M1079 208H1373L1363.5 245H1083L1079 208Z" fill="#E46A3F"/>
<g clip-path="url(#clip3)">
<path d="M1706.38 91.797L1617.14 22.7333L1514.85 101.844L1557 131.5L1569.5 226.5L1706.38 216.457V91.797Z" fill="#77AAA3"/>
<path d="M1706.38 91.797L1876.95 0L1905.13 101.844L1880.5 124L1855.5 229.5L1706.38 222.204V91.797Z" fill="#FFD7CA"/>
<path d="M1493.48 90.1365V119.612H1464C1464 103.321 1477.2 90.1365 1493.48 90.1365Z" fill="black"/>
<path d="M1464 119.595H1493.48V149.071C1477.2 149.071 1464 135.869 1464 119.595Z" fill="#E46A3F"/>
<path d="M1493.48 119.595H1522.95C1522.95 135.869 1509.77 149.071 1493.48 149.071V119.595Z" fill="black"/>
<path d="M1493.48 90.1365C1509.75 90.1365 1522.95 103.338 1522.95 119.612H1493.48V90.1365Z" fill="#CC2E2E"/>
<path d="M1893.51 119.595H1922.99V149.071C1906.71 149.071 1893.51 135.869 1893.51 119.595Z" fill="black"/>
<path d="M1922.97 149.071V119.595H1952.44C1952.44 135.869 1939.26 149.071 1922.97 149.071Z" fill="#662527"/>
<path d="M1922.97 119.595V90.1365C1939.24 90.1365 1952.44 103.321 1952.44 119.612H1922.97V119.595Z" fill="black"/>
<path d="M1893.51 119.595C1893.51 103.321 1906.71 90.1198 1922.99 90.1198V119.595H1893.51Z" fill="#CC2E2E"/>
</g>
<path d="M1567 208H1861L1851.5 245H1571L1567 208Z" fill="#E46A3F"/>
<defs>
<clipPath id="clip0">
<rect width="488.444" height="216.457" fill="white"/>
</clipPath>
<clipPath id="clip1">
<rect width="488.444" height="216.457" fill="white" transform="translate(488)"/>
</clipPath>
<clipPath id="clip2">
<rect width="488.444" height="216.457" fill="white" transform="translate(976)"/>
</clipPath>
<clipPath id="clip3">
<rect width="488.444" height="216.457" fill="white" transform="translate(1464)"/>
</clipPath>
</defs>
</svg>
