<svg width="6370" height="563" viewBox="0 0 6370 563" fill="none" xmlns="http://www.w3.org/2000/svg">
<g clip-path="url(#clip0)">
<path d="M955.982 288C804.708 288 682 410.726 682 562.023H740.953C740.953 443.271 837.248 346.962 955.982 346.962C1074.72 346.962 1171.01 443.271 1171.01 562.023L1229.96 562.023C1230.05 410.726 1107.34 288 955.982 288Z" fill="#A22A2F"/>
<path d="M955.982 409.981C1039.94 409.981 1108 478.052 1108 562.023H1171.01C1171.01 443.271 1074.72 346.961 955.982 346.961C837.248 346.961 740.953 443.271 740.953 562.023H803.963C803.963 478.052 872.024 409.981 955.982 409.981Z" fill="#996633"/>
<path d="M955.981 409.981C872.023 409.981 803.963 478.052 803.963 562.023H859.189C859.189 508.527 902.493 465.216 955.981 465.216C1009.47 465.216 1052.77 508.527 1052.77 562.023H1108C1108.08 478.052 1040.02 409.981 955.981 409.981Z" fill="#77AAA3"/>
</g>
<g clip-path="url(#clip1)">
<path d="M1592.98 288C1441.71 288 1319 410.726 1319 562.023H1377.95C1377.95 443.271 1474.25 346.962 1592.98 346.962C1711.72 346.962 1808.01 443.271 1808.01 562.023L1866.96 562.023C1867.05 410.726 1744.34 288 1592.98 288Z" fill="#A22A2F"/>
<path d="M1592.98 409.981C1676.94 409.981 1745 478.052 1745 562.023H1808.01C1808.01 443.271 1711.72 346.961 1592.98 346.961C1474.25 346.961 1377.95 443.271 1377.95 562.023H1440.96C1440.96 478.052 1509.02 409.981 1592.98 409.981Z" fill="#996633"/>
</g>
<g clip-path="url(#clip2)">
<path d="M2229.98 288C2078.71 288 1956 410.726 1956 562.023H2014.95C2014.95 443.271 2111.25 346.962 2229.98 346.962C2348.72 346.962 2445.01 443.271 2445.01 562.023L2503.96 562.023C2504.05 410.726 2381.34 288 2229.98 288Z" fill="#A22A2F"/>
</g>
<g clip-path="url(#clip3)">
<path d="M2866.98 288C2715.71 288 2593 410.726 2593 562.023H2651.95C2651.95 443.271 2748.25 346.962 2866.98 346.962C2985.72 346.962 3082.01 443.271 3082.01 562.023L3140.96 562.023C3141.05 410.726 3018.34 288 2866.98 288Z" fill="#A22A2F"/>
<path d="M2866.98 409.981C2950.94 409.981 3019 478.052 3019 562.023H3082.01C3082.01 443.271 2985.72 346.961 2866.98 346.961C2748.25 346.961 2651.95 443.271 2651.95 562.023H2714.96C2714.96 478.052 2783.02 409.981 2866.98 409.981Z" fill="#996633"/>
<ellipse cx="2567.21" cy="238.625" rx="141.792" ry="124.006" fill="#C4C4C4"/>
<circle cx="2470.87" cy="121.536" r="121.536" fill="#C4C4C4"/>
<g filter="url(#filter0_f)">
<ellipse cx="2567.21" cy="238.625" rx="141.792" ry="124.006" fill="#C4C4C4"/>
<circle cx="2470.87" cy="121.536" r="121.536" fill="#C4C4C4"/>
</g>
<g filter="url(#filter1_f)">
<ellipse cx="3092.72" cy="474.405" rx="83.7196" ry="72.964" fill="#C4C4C4"/>
<ellipse cx="3218.59" cy="474.405" rx="83.4289" ry="72.964" fill="#C4C4C4"/>
<circle cx="3161.9" cy="405.511" r="71.5105" fill="#C4C4C4"/>
</g>
</g>
<g clip-path="url(#clip4)">
<path d="M3503.98 288C3352.71 288 3230 410.726 3230 562.023H3288.95C3288.95 443.271 3385.25 346.962 3503.98 346.962C3622.72 346.962 3719.01 443.271 3719.01 562.023L3777.96 562.023C3778.05 410.726 3655.34 288 3503.98 288Z" fill="#A22A2F"/>
<path d="M3503.98 409.981C3587.94 409.981 3656 478.052 3656 562.023H3719.01C3719.01 443.271 3622.72 346.961 3503.98 346.961C3385.25 346.961 3288.95 443.271 3288.95 562.023H3351.96C3351.96 478.052 3420.02 409.981 3503.98 409.981Z" fill="#996633"/>
<path d="M3503.98 409.981C3420.02 409.981 3351.96 478.052 3351.96 562.023H3407.19C3407.19 508.527 3450.49 465.216 3503.98 465.216C3557.47 465.216 3600.77 508.527 3600.77 562.023H3656C3656.08 478.052 3588.02 409.981 3503.98 409.981Z" fill="#77AAA3"/>
<g filter="url(#filter2_f)">
<ellipse cx="3148.29" cy="238.625" rx="142.286" ry="124.006" fill="#C4C4C4"/>
<ellipse cx="3362.21" cy="238.625" rx="141.792" ry="124.006" fill="#C4C4C4"/>
<circle cx="3265.87" cy="121.536" r="121.536" fill="#C4C4C4"/>
</g>
<g filter="url(#filter3_f)">
<ellipse cx="3655.72" cy="474.405" rx="83.7196" ry="72.964" fill="#C4C4C4"/>
<ellipse cx="3781.59" cy="474.405" rx="83.4289" ry="72.964" fill="#C4C4C4"/>
<circle cx="3724.9" cy="405.511" r="71.5105" fill="#C4C4C4"/>
</g>
</g>
<g clip-path="url(#clip5)">
<path d="M4140.98 288C3989.71 288 3867 410.726 3867 562.023H3925.95C3925.95 443.271 4022.25 346.962 4140.98 346.962C4259.72 346.962 4356.01 443.271 4356.01 562.023L4414.96 562.023C4415.05 410.726 4292.34 288 4140.98 288Z" fill="#A22A2F"/>
<path d="M4140.98 409.981C4224.94 409.981 4293 478.052 4293 562.023H4356.01C4356.01 443.271 4259.72 346.961 4140.98 346.961C4022.25 346.961 3925.95 443.271 3925.95 562.023H3988.96C3988.96 478.052 4057.02 409.981 4140.98 409.981Z" fill="#996633"/>
<path d="M4140.98 409.981C4057.02 409.981 3988.96 478.052 3988.96 562.023H4044.19C4044.19 508.527 4087.49 465.216 4140.98 465.216C4194.47 465.216 4237.77 508.527 4237.77 562.023H4293C4293.08 478.052 4225.02 409.981 4140.98 409.981Z" fill="#77AAA3"/>
<path d="M4140.98 503.392C4173.36 503.392 4199.6 529.644 4199.6 562.023H4237.77C4237.77 508.527 4194.47 465.216 4140.98 465.216C4087.49 465.216 4044.19 508.527 4044.19 562.023H4082.36C4082.36 529.644 4108.61 503.392 4140.98 503.392Z" fill="#A22A2F"/>
<path d="M4140.98 288C3989.71 288 3867 410.726 3867 562.023H3925.95C3925.95 443.271 4022.25 346.962 4140.98 346.962C4259.72 346.962 4356.01 443.271 4356.01 562.023L4414.96 562.023C4415.05 410.726 4292.34 288 4140.98 288Z" fill="#A22A2F"/>
<path d="M4140.98 409.981C4224.94 409.981 4293 478.052 4293 562.023H4356.01C4356.01 443.271 4259.72 346.961 4140.98 346.961C4022.25 346.961 3925.95 443.271 3925.95 562.023H3988.96C3988.96 478.052 4057.02 409.981 4140.98 409.981Z" fill="#996633"/>
<path d="M4140.98 409.981C4057.02 409.981 3988.96 478.052 3988.96 562.023H4044.19C4044.19 508.527 4087.49 465.216 4140.98 465.216C4194.47 465.216 4237.77 508.527 4237.77 562.023H4293C4293.08 478.052 4225.02 409.981 4140.98 409.981Z" fill="#77AAA3"/>
<path d="M4140.98 503.392C4173.36 503.392 4199.6 529.644 4199.6 562.023H4237.77C4237.77 508.527 4194.47 465.216 4140.98 465.216C4087.49 465.216 4044.19 508.527 4044.19 562.023H4082.36C4082.36 529.644 4108.61 503.392 4140.98 503.392Z" fill="#A22A2F"/>
<g filter="url(#filter4_f)">
<ellipse cx="3968.29" cy="238.625" rx="142.286" ry="124.006" fill="#C4C4C4"/>
<ellipse cx="4182.21" cy="238.625" rx="141.792" ry="124.006" fill="#C4C4C4"/>
<circle cx="4085.87" cy="121.536" r="121.536" fill="#C4C4C4"/>
</g>
<g filter="url(#filter5_f)">
<ellipse cx="4242.72" cy="474.405" rx="83.7196" ry="72.964" fill="#C4C4C4"/>
<ellipse cx="4368.59" cy="474.405" rx="83.4289" ry="72.964" fill="#C4C4C4"/>
<circle cx="4311.9" cy="405.511" r="71.5105" fill="#C4C4C4"/>
</g>
</g>
<g clip-path="url(#clip6)">
<path d="M4777.98 288C4626.71 288 4504 410.726 4504 562.023H4562.95C4562.95 443.271 4659.25 346.962 4777.98 346.962C4896.72 346.962 4993.01 443.271 4993.01 562.023L5051.96 562.023C5052.05 410.726 4929.34 288 4777.98 288Z" fill="#A22A2F"/>
<path d="M4777.98 409.981C4861.94 409.981 4930 478.052 4930 562.023H4993.01C4993.01 443.271 4896.72 346.961 4777.98 346.961C4659.25 346.961 4562.95 443.271 4562.95 562.023H4625.96C4625.96 478.052 4694.02 409.981 4777.98 409.981Z" fill="#996633"/>
<path d="M4777.98 409.981C4694.02 409.981 4625.96 478.052 4625.96 562.023H4681.19C4681.19 508.527 4724.49 465.216 4777.98 465.216C4831.47 465.216 4874.77 508.527 4874.77 562.023H4930C4930.08 478.052 4862.02 409.981 4777.98 409.981Z" fill="#77AAA3"/>
<path d="M4777.98 503.392C4810.36 503.392 4836.6 529.644 4836.6 562.023H4874.77C4874.77 508.527 4831.47 465.216 4777.98 465.216C4724.49 465.216 4681.19 508.527 4681.19 562.023H4719.36C4719.36 529.644 4745.61 503.392 4777.98 503.392Z" fill="#A22A2F"/>
<path d="M4777.98 288C4626.71 288 4504 410.726 4504 562.023H4562.95C4562.95 443.271 4659.25 346.962 4777.98 346.962C4896.72 346.962 4993.01 443.271 4993.01 562.023L5051.96 562.023C5052.05 410.726 4929.34 288 4777.98 288Z" fill="#A22A2F"/>
<path d="M4777.98 409.981C4861.94 409.981 4930 478.052 4930 562.023H4993.01C4993.01 443.271 4896.72 346.961 4777.98 346.961C4659.25 346.961 4562.95 443.271 4562.95 562.023H4625.96C4625.96 478.052 4694.02 409.981 4777.98 409.981Z" fill="#996633"/>
<path d="M4777.98 409.981C4694.02 409.981 4625.96 478.052 4625.96 562.023H4681.19C4681.19 508.527 4724.49 465.216 4777.98 465.216C4831.47 465.216 4874.77 508.527 4874.77 562.023H4930C4930.08 478.052 4862.02 409.981 4777.98 409.981Z" fill="#77AAA3"/>
<path d="M4777.98 503.392C4810.36 503.392 4836.6 529.644 4836.6 562.023H4874.77C4874.77 508.527 4831.47 465.216 4777.98 465.216C4724.49 465.216 4681.19 508.527 4681.19 562.023H4719.36C4719.36 529.644 4745.61 503.392 4777.98 503.392Z" fill="#A22A2F"/>
<g filter="url(#filter6_f)">
<ellipse cx="4491.29" cy="238.625" rx="142.286" ry="124.006" fill="#C4C4C4"/>
<ellipse cx="4705.21" cy="238.625" rx="141.792" ry="124.006" fill="#C4C4C4"/>
<circle cx="4608.87" cy="121.536" r="121.536" fill="#C4C4C4"/>
</g>
<g filter="url(#filter7_f)">
<ellipse cx="4929.72" cy="474.405" rx="83.7196" ry="72.964" fill="#C4C4C4"/>
<ellipse cx="5055.59" cy="474.405" rx="83.4289" ry="72.964" fill="#C4C4C4"/>
<circle cx="4998.9" cy="405.511" r="71.5105" fill="#C4C4C4"/>
</g>
</g>
<g clip-path="url(#clip7)">
<path d="M5414.98 288C5263.71 288 5141 410.726 5141 562.023H5199.95C5199.95 443.271 5296.25 346.962 5414.98 346.962C5533.72 346.962 5630.01 443.271 5630.01 562.023L5688.96 562.023C5689.05 410.726 5566.34 288 5414.98 288Z" fill="#A22A2F"/>
<path d="M5414.98 409.981C5498.94 409.981 5567 478.052 5567 562.023H5630.01C5630.01 443.271 5533.72 346.961 5414.98 346.961C5296.25 346.961 5199.95 443.271 5199.95 562.023H5262.96C5262.96 478.052 5331.02 409.981 5414.98 409.981Z" fill="#996633"/>
<path d="M5414.98 409.981C5331.02 409.981 5262.96 478.052 5262.96 562.023H5318.19C5318.19 508.527 5361.49 465.216 5414.98 465.216C5468.47 465.216 5511.77 508.527 5511.77 562.023H5567C5567.08 478.052 5499.02 409.981 5414.98 409.981Z" fill="#77AAA3"/>
<path d="M5414.98 503.392C5447.36 503.392 5473.6 529.644 5473.6 562.023H5511.77C5511.77 508.527 5468.47 465.216 5414.98 465.216C5361.49 465.216 5318.19 508.527 5318.19 562.023H5356.36C5356.36 529.644 5382.61 503.392 5414.98 503.392Z" fill="#A22A2F"/>
<path d="M5414.98 288C5263.71 288 5141 410.726 5141 562.023H5199.95C5199.95 443.271 5296.25 346.962 5414.98 346.962C5533.72 346.962 5630.01 443.271 5630.01 562.023L5688.96 562.023C5689.05 410.726 5566.34 288 5414.98 288Z" fill="#A22A2F"/>
<path d="M5414.98 409.981C5498.94 409.981 5567 478.052 5567 562.023H5630.01C5630.01 443.271 5533.72 346.961 5414.98 346.961C5296.25 346.961 5199.95 443.271 5199.95 562.023H5262.96C5262.96 478.052 5331.02 409.981 5414.98 409.981Z" fill="#996633"/>
<path d="M5414.98 409.981C5331.02 409.981 5262.96 478.052 5262.96 562.023H5318.19C5318.19 508.527 5361.49 465.216 5414.98 465.216C5468.47 465.216 5511.77 508.527 5511.77 562.023H5567C5567.08 478.052 5499.02 409.981 5414.98 409.981Z" fill="#77AAA3"/>
<path d="M5414.98 503.392C5447.36 503.392 5473.6 529.644 5473.6 562.023H5511.77C5511.77 508.527 5468.47 465.216 5414.98 465.216C5361.49 465.216 5318.19 508.527 5318.19 562.023H5356.36C5356.36 529.644 5382.61 503.392 5414.98 503.392Z" fill="#A22A2F"/>
<g filter="url(#filter8_f)">
<ellipse cx="4989.29" cy="238.625" rx="142.286" ry="124.006" fill="#C4C4C4"/>
<ellipse cx="5203.21" cy="238.625" rx="141.792" ry="124.006" fill="#C4C4C4"/>
<circle cx="5106.87" cy="121.536" r="121.536" fill="#C4C4C4"/>
</g>
<g filter="url(#filter9_f)">
<ellipse cx="5669.72" cy="474.405" rx="83.7196" ry="72.964" fill="#C4C4C4"/>
<ellipse cx="5795.59" cy="474.405" rx="83.4289" ry="72.964" fill="#C4C4C4"/>
<circle cx="5738.9" cy="405.511" r="71.5105" fill="#C4C4C4"/>
</g>
</g>
<g clip-path="url(#clip8)">
<path d="M6051.98 288C5900.71 288 5778 410.726 5778 562.023H5836.95C5836.95 443.271 5933.25 346.962 6051.98 346.962C6170.72 346.962 6267.01 443.271 6267.01 562.023L6325.96 562.023C6326.05 410.726 6203.34 288 6051.98 288Z" fill="#A22A2F"/>
<path d="M6051.98 409.981C6135.94 409.981 6204 478.052 6204 562.023H6267.01C6267.01 443.271 6170.72 346.961 6051.98 346.961C5933.25 346.961 5836.95 443.271 5836.95 562.023H5899.96C5899.96 478.052 5968.02 409.981 6051.98 409.981Z" fill="#996633"/>
<path d="M6051.98 409.981C5968.02 409.981 5899.96 478.052 5899.96 562.023H5955.19C5955.19 508.527 5998.49 465.216 6051.98 465.216C6105.47 465.216 6148.77 508.527 6148.77 562.023H6204C6204.08 478.052 6136.02 409.981 6051.98 409.981Z" fill="#77AAA3"/>
<path d="M6051.98 503.392C6084.36 503.392 6110.6 529.644 6110.6 562.023H6148.77C6148.77 508.527 6105.47 465.216 6051.98 465.216C5998.49 465.216 5955.19 508.527 5955.19 562.023H5993.36C5993.36 529.644 6019.61 503.392 6051.98 503.392Z" fill="#A22A2F"/>
<path d="M6051.98 288C5900.71 288 5778 410.726 5778 562.023H5836.95C5836.95 443.271 5933.25 346.962 6051.98 346.962C6170.72 346.962 6267.01 443.271 6267.01 562.023L6325.96 562.023C6326.05 410.726 6203.34 288 6051.98 288Z" fill="#A22A2F"/>
<path d="M6051.98 409.981C6135.94 409.981 6204 478.052 6204 562.023H6267.01C6267.01 443.271 6170.72 346.961 6051.98 346.961C5933.25 346.961 5836.95 443.271 5836.95 562.023H5899.96C5899.96 478.052 5968.02 409.981 6051.98 409.981Z" fill="#996633"/>
<path d="M6051.98 409.981C5968.02 409.981 5899.96 478.052 5899.96 562.023H5955.19C5955.19 508.527 5998.49 465.216 6051.98 465.216C6105.47 465.216 6148.77 508.527 6148.77 562.023H6204C6204.08 478.052 6136.02 409.981 6051.98 409.981Z" fill="#77AAA3"/>
<path d="M6051.98 503.392C6084.36 503.392 6110.6 529.644 6110.6 562.023H6148.77C6148.77 508.527 6105.47 465.216 6051.98 465.216C5998.49 465.216 5955.19 508.527 5955.19 562.023H5993.36C5993.36 529.644 6019.61 503.392 6051.98 503.392Z" fill="#A22A2F"/>
<g filter="url(#filter10_f)">
<ellipse cx="5707.21" cy="238.625" rx="141.792" ry="124.006" fill="#C4C4C4"/>
</g>
<g filter="url(#filter11_f)">
<ellipse cx="6377.72" cy="474.405" rx="83.7196" ry="72.964" fill="#C4C4C4"/>
</g>
</g>
<path d="M318.982 288C167.708 288 45 410.726 45 562.023H103.953C103.953 443.271 200.248 346.962 318.982 346.962C437.715 346.962 534.01 443.271 534.01 562.023L592.963 562.023C593.046 410.726 470.338 288 318.982 288Z" fill="#A22A2F"/>
<path d="M318.982 409.981C402.94 409.981 471 478.052 471 562.023H534.01C534.01 443.271 437.715 346.961 318.982 346.961C200.248 346.961 103.953 443.271 103.953 562.023H166.963C166.963 478.052 235.024 409.981 318.982 409.981Z" fill="#996633"/>
<path d="M318.981 409.981C235.023 409.981 166.963 478.052 166.963 562.023H222.189C222.189 508.527 265.493 465.216 318.981 465.216C372.469 465.216 415.773 508.527 415.773 562.023H471C471.083 478.052 403.022 409.981 318.981 409.981Z" fill="#77AAA3"/>
<path d="M318.982 503.392C351.356 503.392 377.603 529.644 377.603 562.023H415.774C415.774 508.527 372.47 465.216 318.982 465.216C265.494 465.216 222.19 508.527 222.19 562.023H260.36C260.36 529.644 286.607 503.392 318.982 503.392Z" fill="#A22A2F"/>
<defs>
<filter id="filter0_f" x="2207" y="-4" width="506" height="370.631" filterUnits="userSpaceOnUse" color-interpolation-filters="sRGB">
<feFlood flood-opacity="0" result="BackgroundImageFix"/>
<feBlend mode="normal" in="SourceGraphic" in2="BackgroundImageFix" result="shape"/>
<feGaussianBlur stdDeviation="2" result="effect1_foregroundBlur"/>
</filter>
<filter id="filter1_f" x="3005" y="330" width="301.019" height="221.369" filterUnits="userSpaceOnUse" color-interpolation-filters="sRGB">
<feFlood flood-opacity="0" result="BackgroundImageFix"/>
<feBlend mode="normal" in="SourceGraphic" in2="BackgroundImageFix" result="shape"/>
<feGaussianBlur stdDeviation="2" result="effect1_foregroundBlur"/>
</filter>
<filter id="filter2_f" x="3002" y="-4" width="506" height="370.631" filterUnits="userSpaceOnUse" color-interpolation-filters="sRGB">
<feFlood flood-opacity="0" result="BackgroundImageFix"/>
<feBlend mode="normal" in="SourceGraphic" in2="BackgroundImageFix" result="shape"/>
<feGaussianBlur stdDeviation="2" result="effect1_foregroundBlur"/>
</filter>
<filter id="filter3_f" x="3568" y="330" width="301.019" height="221.369" filterUnits="userSpaceOnUse" color-interpolation-filters="sRGB">
<feFlood flood-opacity="0" result="BackgroundImageFix"/>
<feBlend mode="normal" in="SourceGraphic" in2="BackgroundImageFix" result="shape"/>
<feGaussianBlur stdDeviation="2" result="effect1_foregroundBlur"/>
</filter>
<filter id="filter4_f" x="3822" y="-4" width="506" height="370.631" filterUnits="userSpaceOnUse" color-interpolation-filters="sRGB">
<feFlood flood-opacity="0" result="BackgroundImageFix"/>
<feBlend mode="normal" in="SourceGraphic" in2="BackgroundImageFix" result="shape"/>
<feGaussianBlur stdDeviation="2" result="effect1_foregroundBlur"/>
</filter>
<filter id="filter5_f" x="4155" y="330" width="301.019" height="221.369" filterUnits="userSpaceOnUse" color-interpolation-filters="sRGB">
<feFlood flood-opacity="0" result="BackgroundImageFix"/>
<feBlend mode="normal" in="SourceGraphic" in2="BackgroundImageFix" result="shape"/>
<feGaussianBlur stdDeviation="2" result="effect1_foregroundBlur"/>
</filter>
<filter id="filter6_f" x="4345" y="-4" width="506" height="370.631" filterUnits="userSpaceOnUse" color-interpolation-filters="sRGB">
<feFlood flood-opacity="0" result="BackgroundImageFix"/>
<feBlend mode="normal" in="SourceGraphic" in2="BackgroundImageFix" result="shape"/>
<feGaussianBlur stdDeviation="2" result="effect1_foregroundBlur"/>
</filter>
<filter id="filter7_f" x="4842" y="330" width="301.019" height="221.369" filterUnits="userSpaceOnUse" color-interpolation-filters="sRGB">
<feFlood flood-opacity="0" result="BackgroundImageFix"/>
<feBlend mode="normal" in="SourceGraphic" in2="BackgroundImageFix" result="shape"/>
<feGaussianBlur stdDeviation="2" result="effect1_foregroundBlur"/>
</filter>
<filter id="filter8_f" x="4843" y="-4" width="506" height="370.631" filterUnits="userSpaceOnUse" color-interpolation-filters="sRGB">
<feFlood flood-opacity="0" result="BackgroundImageFix"/>
<feBlend mode="normal" in="SourceGraphic" in2="BackgroundImageFix" result="shape"/>
<feGaussianBlur stdDeviation="2" result="effect1_foregroundBlur"/>
</filter>
<filter id="filter9_f" x="5582" y="330" width="301.019" height="221.369" filterUnits="userSpaceOnUse" color-interpolation-filters="sRGB">
<feFlood flood-opacity="0" result="BackgroundImageFix"/>
<feBlend mode="normal" in="SourceGraphic" in2="BackgroundImageFix" result="shape"/>
<feGaussianBlur stdDeviation="2" result="effect1_foregroundBlur"/>
</filter>
<filter id="filter10_f" x="5347" y="-4" width="506" height="370.631" filterUnits="userSpaceOnUse" color-interpolation-filters="sRGB">
<feFlood flood-opacity="0" result="BackgroundImageFix"/>
<feBlend mode="normal" in="SourceGraphic" in2="BackgroundImageFix" result="shape"/>
<feGaussianBlur stdDeviation="2" result="effect1_foregroundBlur"/>
</filter>
<filter id="filter11_f" x="6290" y="330" width="301.019" height="221.369" filterUnits="userSpaceOnUse" color-interpolation-filters="sRGB">
<feFlood flood-opacity="0" result="BackgroundImageFix"/>
<feBlend mode="normal" in="SourceGraphic" in2="BackgroundImageFix" result="shape"/>
<feGaussianBlur stdDeviation="2" result="effect1_foregroundBlur"/>
</filter>
<clipPath id="clip0">
<rect width="637" height="562" fill="white" transform="translate(637)"/>
</clipPath>
<clipPath id="clip1">
<rect width="637" height="562" fill="white" transform="translate(1274)"/>
</clipPath>
<clipPath id="clip2">
<rect width="637" height="562" fill="white" transform="translate(1911)"/>
</clipPath>
<clipPath id="clip3">
<rect width="637" height="562" fill="white" transform="translate(2548)"/>
</clipPath>
<clipPath id="clip4">
<rect width="637" height="562" fill="white" transform="translate(3185)"/>
</clipPath>
<clipPath id="clip5">
<rect width="637" height="562" fill="white" transform="translate(3822)"/>
</clipPath>
<clipPath id="clip6">
<rect width="637" height="562" fill="white" transform="translate(4459)"/>
</clipPath>
<clipPath id="clip7">
<rect width="637" height="562" fill="white" transform="translate(5096)"/>
</clipPath>
<clipPath id="clip8">
<rect width="637" height="562" fill="white" transform="translate(5733)"/>
</clipPath>
</defs>
</svg>
